<mxfile host="Electron" agent="Mozilla/5.0 (Windows NT 10.0; Win64; x64) AppleWebKit/537.36 (KHTML, like Gecko) draw.io/26.1.1 Chrome/132.0.6834.210 Electron/34.3.3 Safari/537.36" version="26.1.1" pages="15">
  <diagram id="BXmRR3Hv8SMAe9HneU4A" name="system block diagram">
    <mxGraphModel dx="1020" dy="544" grid="1" gridSize="10" guides="1" tooltips="1" connect="1" arrows="1" fold="1" page="1" pageScale="1" pageWidth="1169" pageHeight="827" math="0" shadow="0">
      <root>
        <mxCell id="0" />
        <mxCell id="1" parent="0" />
        <mxCell id="BmjOouidqMWSfDU3-yNx-10" style="edgeStyle=orthogonalEdgeStyle;rounded=0;orthogonalLoop=1;jettySize=auto;html=1;entryX=0;entryY=0.5;entryDx=0;entryDy=0;" parent="1" source="BmjOouidqMWSfDU3-yNx-1" target="BmjOouidqMWSfDU3-yNx-3" edge="1">
          <mxGeometry relative="1" as="geometry" />
        </mxCell>
        <mxCell id="BmjOouidqMWSfDU3-yNx-1" value="&lt;font style=&quot;font-size: 14px;&quot;&gt;Software Image Processing&lt;/font&gt;" style="swimlane;whiteSpace=wrap;html=1;" parent="1" vertex="1">
          <mxGeometry x="40" y="160" width="295" height="120" as="geometry" />
        </mxCell>
        <mxCell id="BmjOouidqMWSfDU3-yNx-2" value="&lt;font style=&quot;font-size: 14px;&quot;&gt;Using python program for processing image&amp;nbsp;&lt;/font&gt;&lt;div&gt;&lt;font style=&quot;font-size: 14px;&quot;&gt;&lt;font style=&quot;&quot;&gt;and&amp;nbsp;&lt;/font&gt;&lt;span style=&quot;background-color: transparent; color: light-dark(rgb(0, 0, 0), rgb(255, 255, 255));&quot;&gt;store to dump file for hardware&lt;/span&gt;&lt;/font&gt;&lt;div&gt;&lt;div&gt;&lt;br&gt;&lt;/div&gt;&lt;/div&gt;&lt;/div&gt;" style="text;html=1;align=center;verticalAlign=middle;resizable=0;points=[];autosize=1;strokeColor=none;fillColor=none;" parent="BmjOouidqMWSfDU3-yNx-1" vertex="1">
          <mxGeometry x="-5" y="50" width="300" height="60" as="geometry" />
        </mxCell>
        <mxCell id="BmjOouidqMWSfDU3-yNx-11" style="edgeStyle=orthogonalEdgeStyle;rounded=0;orthogonalLoop=1;jettySize=auto;html=1;entryX=0;entryY=0.5;entryDx=0;entryDy=0;" parent="1" source="BmjOouidqMWSfDU3-yNx-3" target="BmjOouidqMWSfDU3-yNx-5" edge="1">
          <mxGeometry relative="1" as="geometry" />
        </mxCell>
        <mxCell id="BmjOouidqMWSfDU3-yNx-3" value="&lt;font style=&quot;font-size: 14px;&quot;&gt;Hardware Image Extraction&lt;/font&gt;" style="swimlane;whiteSpace=wrap;html=1;" parent="1" vertex="1">
          <mxGeometry x="440" y="160" width="280" height="120" as="geometry" />
        </mxCell>
        <mxCell id="BmjOouidqMWSfDU3-yNx-4" value="&lt;font style=&quot;font-size: 14px;&quot;&gt;Using Median Roburst Extended&amp;nbsp;&lt;/font&gt;&lt;div&gt;&lt;font style=&quot;font-size: 14px;&quot;&gt;Logic Binary Pattern design&lt;/font&gt;&lt;div&gt;&lt;br&gt;&lt;/div&gt;&lt;/div&gt;" style="text;html=1;align=center;verticalAlign=middle;resizable=0;points=[];autosize=1;strokeColor=none;fillColor=none;" parent="BmjOouidqMWSfDU3-yNx-3" vertex="1">
          <mxGeometry x="25" y="50" width="230" height="60" as="geometry" />
        </mxCell>
        <mxCell id="BmjOouidqMWSfDU3-yNx-5" value="&lt;font style=&quot;font-size: 14px;&quot;&gt;Hardware Image Classification&lt;/font&gt;" style="swimlane;whiteSpace=wrap;html=1;startSize=23;" parent="1" vertex="1">
          <mxGeometry x="840" y="160" width="280" height="120" as="geometry" />
        </mxCell>
        <mxCell id="BmjOouidqMWSfDU3-yNx-6" value="&lt;font style=&quot;font-size: 14px;&quot;&gt;Using Support Vector Machine&lt;span style=&quot;background-color: transparent; color: light-dark(rgb(0, 0, 0), rgb(255, 255, 255));&quot;&gt;&amp;nbsp;design&lt;/span&gt;&lt;/font&gt;&lt;div&gt;&lt;div&gt;&lt;br&gt;&lt;/div&gt;&lt;/div&gt;" style="text;html=1;align=center;verticalAlign=middle;resizable=0;points=[];autosize=1;strokeColor=none;fillColor=none;" parent="BmjOouidqMWSfDU3-yNx-5" vertex="1">
          <mxGeometry x="20" y="50" width="260" height="40" as="geometry" />
        </mxCell>
      </root>
    </mxGraphModel>
  </diagram>
  <diagram name="block_diagram" id="ZYE2bSdPffOmuRQG8ASP">
    <mxGraphModel dx="1569" dy="837" grid="1" gridSize="10" guides="1" tooltips="1" connect="1" arrows="1" fold="1" page="1" pageScale="1" pageWidth="1169" pageHeight="827" math="0" shadow="0">
      <root>
        <mxCell id="0" />
        <mxCell id="1" parent="0" />
        <mxCell id="IU3xgT4LN485I8QqCdFf-3" value="" style="edgeStyle=orthogonalEdgeStyle;rounded=0;orthogonalLoop=1;jettySize=auto;html=1;" parent="1" source="IU3xgT4LN485I8QqCdFf-1" target="IU3xgT4LN485I8QqCdFf-2" edge="1">
          <mxGeometry relative="1" as="geometry" />
        </mxCell>
        <mxCell id="IU3xgT4LN485I8QqCdFf-1" value="&lt;b&gt;&lt;font style=&quot;font-size: 14px;&quot;&gt;Input bram&lt;/font&gt;&lt;/b&gt;" style="rounded=1;whiteSpace=wrap;html=1;" parent="1" vertex="1">
          <mxGeometry x="20" y="220" width="110" height="140" as="geometry" />
        </mxCell>
        <mxCell id="IU3xgT4LN485I8QqCdFf-5" value="" style="edgeStyle=orthogonalEdgeStyle;rounded=0;orthogonalLoop=1;jettySize=auto;html=1;" parent="1" source="IU3xgT4LN485I8QqCdFf-2" target="IU3xgT4LN485I8QqCdFf-4" edge="1">
          <mxGeometry relative="1" as="geometry" />
        </mxCell>
        <mxCell id="IU3xgT4LN485I8QqCdFf-7" value="" style="edgeStyle=orthogonalEdgeStyle;rounded=0;orthogonalLoop=1;jettySize=auto;html=1;" parent="1" source="IU3xgT4LN485I8QqCdFf-2" target="IU3xgT4LN485I8QqCdFf-6" edge="1">
          <mxGeometry relative="1" as="geometry" />
        </mxCell>
        <mxCell id="IU3xgT4LN485I8QqCdFf-2" value="&lt;b&gt;&lt;font style=&quot;font-size: 14px;&quot;&gt;Median processing&lt;/font&gt;&lt;/b&gt;" style="rounded=1;whiteSpace=wrap;html=1;" parent="1" vertex="1">
          <mxGeometry x="160" y="220" width="140" height="140" as="geometry" />
        </mxCell>
        <mxCell id="IU3xgT4LN485I8QqCdFf-9" value="" style="edgeStyle=orthogonalEdgeStyle;rounded=0;orthogonalLoop=1;jettySize=auto;html=1;" parent="1" source="IU3xgT4LN485I8QqCdFf-4" target="IU3xgT4LN485I8QqCdFf-8" edge="1">
          <mxGeometry relative="1" as="geometry" />
        </mxCell>
        <mxCell id="IU3xgT4LN485I8QqCdFf-11" value="" style="edgeStyle=orthogonalEdgeStyle;rounded=0;orthogonalLoop=1;jettySize=auto;html=1;" parent="1" source="IU3xgT4LN485I8QqCdFf-4" target="IU3xgT4LN485I8QqCdFf-10" edge="1">
          <mxGeometry relative="1" as="geometry" />
        </mxCell>
        <mxCell id="IU3xgT4LN485I8QqCdFf-4" value="&lt;b&gt;&lt;font style=&quot;font-size: 14px;&quot;&gt;Interporlation&lt;/font&gt;&lt;/b&gt;" style="rounded=1;whiteSpace=wrap;html=1;" parent="1" vertex="1">
          <mxGeometry x="400" y="350" width="140" height="140" as="geometry" />
        </mxCell>
        <mxCell id="IU3xgT4LN485I8QqCdFf-13" value="" style="edgeStyle=orthogonalEdgeStyle;rounded=0;orthogonalLoop=1;jettySize=auto;html=1;" parent="1" source="IU3xgT4LN485I8QqCdFf-6" target="IU3xgT4LN485I8QqCdFf-12" edge="1">
          <mxGeometry relative="1" as="geometry" />
        </mxCell>
        <mxCell id="IU3xgT4LN485I8QqCdFf-6" value="&lt;font style=&quot;font-size: 14px;&quot;&gt;&lt;b&gt;CI calculator&amp;nbsp;&lt;/b&gt;&lt;/font&gt;" style="rounded=1;whiteSpace=wrap;html=1;" parent="1" vertex="1">
          <mxGeometry x="400" y="90" width="140" height="140" as="geometry" />
        </mxCell>
        <mxCell id="IU3xgT4LN485I8QqCdFf-15" value="" style="edgeStyle=orthogonalEdgeStyle;rounded=0;orthogonalLoop=1;jettySize=auto;html=1;" parent="1" source="IU3xgT4LN485I8QqCdFf-8" target="IU3xgT4LN485I8QqCdFf-14" edge="1">
          <mxGeometry relative="1" as="geometry" />
        </mxCell>
        <mxCell id="IU3xgT4LN485I8QqCdFf-8" value="&lt;b&gt;&lt;font style=&quot;font-size: 14px;&quot;&gt;RD calculator&lt;/font&gt;&lt;/b&gt;" style="rounded=1;whiteSpace=wrap;html=1;" parent="1" vertex="1">
          <mxGeometry x="660" y="250" width="140" height="140" as="geometry" />
        </mxCell>
        <mxCell id="IU3xgT4LN485I8QqCdFf-16" style="edgeStyle=orthogonalEdgeStyle;rounded=0;orthogonalLoop=1;jettySize=auto;html=1;entryX=0;entryY=0.5;entryDx=0;entryDy=0;" parent="1" source="IU3xgT4LN485I8QqCdFf-10" target="IU3xgT4LN485I8QqCdFf-14" edge="1">
          <mxGeometry relative="1" as="geometry">
            <mxPoint x="840" y="530" as="targetPoint" />
          </mxGeometry>
        </mxCell>
        <mxCell id="IU3xgT4LN485I8QqCdFf-10" value="&lt;b&gt;&lt;font style=&quot;font-size: 14px;&quot;&gt;NI calculator&lt;/font&gt;&lt;/b&gt;" style="rounded=1;whiteSpace=wrap;html=1;" parent="1" vertex="1">
          <mxGeometry x="660" y="470" width="140" height="140" as="geometry" />
        </mxCell>
        <mxCell id="IU3xgT4LN485I8QqCdFf-12" value="&lt;font style=&quot;font-size: 14px;&quot;&gt;&lt;b&gt;CI historgram&lt;/b&gt;&lt;/font&gt;" style="rounded=1;whiteSpace=wrap;html=1;" parent="1" vertex="1">
          <mxGeometry x="1000" y="90" width="140" height="140" as="geometry" />
        </mxCell>
        <mxCell id="IU3xgT4LN485I8QqCdFf-14" value="&lt;b&gt;&lt;font style=&quot;font-size: 14px;&quot;&gt;NI &amp;amp; RD histogram&lt;/font&gt;&lt;/b&gt;" style="rounded=1;whiteSpace=wrap;html=1;" parent="1" vertex="1">
          <mxGeometry x="1000" y="360" width="140" height="140" as="geometry" />
        </mxCell>
      </root>
    </mxGraphModel>
  </diagram>
  <diagram id="ASaDZeCifCzf3n1r4Hap" name="input_bram">
    <mxGraphModel dx="1360" dy="725" grid="1" gridSize="10" guides="1" tooltips="1" connect="1" arrows="1" fold="1" page="1" pageScale="1" pageWidth="1169" pageHeight="827" math="0" shadow="0">
      <root>
        <mxCell id="0" />
        <mxCell id="1" parent="0" />
        <mxCell id="RaZOCAZE1w6m9E56zmA9-1" value="" style="rounded=0;whiteSpace=wrap;html=1;" parent="1" vertex="1">
          <mxGeometry x="560" y="40" width="360" height="40" as="geometry" />
        </mxCell>
        <mxCell id="RaZOCAZE1w6m9E56zmA9-2" value="" style="rounded=0;whiteSpace=wrap;html=1;" parent="1" vertex="1">
          <mxGeometry x="560" y="120" width="360" height="40" as="geometry" />
        </mxCell>
        <mxCell id="RaZOCAZE1w6m9E56zmA9-3" value="" style="rounded=0;whiteSpace=wrap;html=1;" parent="1" vertex="1">
          <mxGeometry x="560" y="200" width="360" height="40" as="geometry" />
        </mxCell>
        <mxCell id="RaZOCAZE1w6m9E56zmA9-4" value="" style="rounded=0;whiteSpace=wrap;html=1;fontStyle=1" parent="1" vertex="1">
          <mxGeometry x="560" y="280" width="360" height="40" as="geometry" />
        </mxCell>
        <mxCell id="RaZOCAZE1w6m9E56zmA9-13" style="edgeStyle=orthogonalEdgeStyle;rounded=0;orthogonalLoop=1;jettySize=auto;html=1;entryX=0.059;entryY=0.011;entryDx=0;entryDy=0;entryPerimeter=0;exitX=0.946;exitY=0.992;exitDx=0;exitDy=0;exitPerimeter=0;" parent="1" source="RaZOCAZE1w6m9E56zmA9-1" target="RaZOCAZE1w6m9E56zmA9-2" edge="1">
          <mxGeometry relative="1" as="geometry" />
        </mxCell>
        <mxCell id="RaZOCAZE1w6m9E56zmA9-14" style="edgeStyle=orthogonalEdgeStyle;rounded=0;orthogonalLoop=1;jettySize=auto;html=1;exitX=0.944;exitY=1.018;exitDx=0;exitDy=0;exitPerimeter=0;" parent="1" source="RaZOCAZE1w6m9E56zmA9-2" edge="1">
          <mxGeometry relative="1" as="geometry">
            <mxPoint x="900" y="190" as="sourcePoint" />
            <mxPoint x="580" y="200" as="targetPoint" />
          </mxGeometry>
        </mxCell>
        <mxCell id="RaZOCAZE1w6m9E56zmA9-15" style="edgeStyle=orthogonalEdgeStyle;rounded=0;orthogonalLoop=1;jettySize=auto;html=1;exitX=0.935;exitY=1.021;exitDx=0;exitDy=0;exitPerimeter=0;" parent="1" source="RaZOCAZE1w6m9E56zmA9-3" edge="1">
          <mxGeometry relative="1" as="geometry">
            <mxPoint x="900" y="260" as="sourcePoint" />
            <mxPoint x="580" y="280" as="targetPoint" />
          </mxGeometry>
        </mxCell>
        <mxCell id="RaZOCAZE1w6m9E56zmA9-16" value="" style="rounded=0;whiteSpace=wrap;html=1;" parent="1" vertex="1">
          <mxGeometry x="560" y="360" width="360" height="40" as="geometry" />
        </mxCell>
        <mxCell id="RaZOCAZE1w6m9E56zmA9-17" value="" style="rounded=0;whiteSpace=wrap;html=1;" parent="1" vertex="1">
          <mxGeometry x="560" y="440" width="360" height="40" as="geometry" />
        </mxCell>
        <mxCell id="RaZOCAZE1w6m9E56zmA9-18" value="" style="rounded=0;whiteSpace=wrap;html=1;" parent="1" vertex="1">
          <mxGeometry x="560" y="520" width="360" height="40" as="geometry" />
        </mxCell>
        <mxCell id="RaZOCAZE1w6m9E56zmA9-19" value="" style="rounded=0;whiteSpace=wrap;html=1;" parent="1" vertex="1">
          <mxGeometry x="560" y="600" width="360" height="40" as="geometry" />
        </mxCell>
        <mxCell id="RaZOCAZE1w6m9E56zmA9-20" style="edgeStyle=orthogonalEdgeStyle;rounded=0;orthogonalLoop=1;jettySize=auto;html=1;entryX=0.059;entryY=0.011;entryDx=0;entryDy=0;entryPerimeter=0;exitX=0.946;exitY=0.992;exitDx=0;exitDy=0;exitPerimeter=0;" parent="1" source="RaZOCAZE1w6m9E56zmA9-16" target="RaZOCAZE1w6m9E56zmA9-17" edge="1">
          <mxGeometry relative="1" as="geometry" />
        </mxCell>
        <mxCell id="RaZOCAZE1w6m9E56zmA9-21" style="edgeStyle=orthogonalEdgeStyle;rounded=0;orthogonalLoop=1;jettySize=auto;html=1;exitX=0.944;exitY=1.018;exitDx=0;exitDy=0;exitPerimeter=0;" parent="1" source="RaZOCAZE1w6m9E56zmA9-17" edge="1">
          <mxGeometry relative="1" as="geometry">
            <mxPoint x="900" y="510" as="sourcePoint" />
            <mxPoint x="580" y="520" as="targetPoint" />
          </mxGeometry>
        </mxCell>
        <mxCell id="RaZOCAZE1w6m9E56zmA9-22" style="edgeStyle=orthogonalEdgeStyle;rounded=0;orthogonalLoop=1;jettySize=auto;html=1;exitX=0.935;exitY=1.021;exitDx=0;exitDy=0;exitPerimeter=0;" parent="1" source="RaZOCAZE1w6m9E56zmA9-18" edge="1">
          <mxGeometry relative="1" as="geometry">
            <mxPoint x="900" y="580" as="sourcePoint" />
            <mxPoint x="580" y="600" as="targetPoint" />
          </mxGeometry>
        </mxCell>
        <mxCell id="RaZOCAZE1w6m9E56zmA9-23" style="edgeStyle=orthogonalEdgeStyle;rounded=0;orthogonalLoop=1;jettySize=auto;html=1;exitX=0.94;exitY=1.012;exitDx=0;exitDy=0;exitPerimeter=0;" parent="1" source="RaZOCAZE1w6m9E56zmA9-4" edge="1">
          <mxGeometry relative="1" as="geometry">
            <mxPoint x="898.5" y="340" as="sourcePoint" />
            <mxPoint x="580" y="360" as="targetPoint" />
          </mxGeometry>
        </mxCell>
        <mxCell id="RaZOCAZE1w6m9E56zmA9-25" value="" style="rounded=0;whiteSpace=wrap;html=1;" parent="1" vertex="1">
          <mxGeometry x="560" y="680" width="360" height="40" as="geometry" />
        </mxCell>
        <mxCell id="RaZOCAZE1w6m9E56zmA9-27" style="edgeStyle=orthogonalEdgeStyle;rounded=0;orthogonalLoop=1;jettySize=auto;html=1;exitX=0.941;exitY=0.996;exitDx=0;exitDy=0;exitPerimeter=0;" parent="1" source="RaZOCAZE1w6m9E56zmA9-19" edge="1">
          <mxGeometry relative="1" as="geometry">
            <mxPoint x="898.5" y="660" as="sourcePoint" />
            <mxPoint x="580" y="680" as="targetPoint" />
          </mxGeometry>
        </mxCell>
        <mxCell id="RaZOCAZE1w6m9E56zmA9-29" value="" style="endArrow=classic;html=1;rounded=0;entryX=0;entryY=0.5;entryDx=0;entryDy=0;" parent="1" edge="1">
          <mxGeometry width="50" height="50" relative="1" as="geometry">
            <mxPoint x="160" y="70" as="sourcePoint" />
            <mxPoint x="320" y="69.99999999999994" as="targetPoint" />
          </mxGeometry>
        </mxCell>
        <mxCell id="RaZOCAZE1w6m9E56zmA9-30" value="&lt;span style=&quot;font-size: 14px;&quot;&gt;&lt;b&gt;i_data&lt;/b&gt;&lt;/span&gt;" style="edgeLabel;html=1;align=center;verticalAlign=middle;resizable=0;points=[];" parent="RaZOCAZE1w6m9E56zmA9-29" vertex="1" connectable="0">
          <mxGeometry x="-0.1938" y="-2" relative="1" as="geometry">
            <mxPoint x="16" y="-2" as="offset" />
          </mxGeometry>
        </mxCell>
        <mxCell id="RaZOCAZE1w6m9E56zmA9-31" value="" style="endArrow=none;html=1;rounded=0;entryX=0.109;entryY=-0.006;entryDx=0;entryDy=0;entryPerimeter=0;exitX=0.107;exitY=0.986;exitDx=0;exitDy=0;exitPerimeter=0;" parent="1" source="RaZOCAZE1w6m9E56zmA9-1" target="RaZOCAZE1w6m9E56zmA9-1" edge="1">
          <mxGeometry width="50" height="50" relative="1" as="geometry">
            <mxPoint x="450" y="180" as="sourcePoint" />
            <mxPoint x="500" y="130" as="targetPoint" />
          </mxGeometry>
        </mxCell>
        <mxCell id="RaZOCAZE1w6m9E56zmA9-32" value="" style="endArrow=none;html=1;rounded=0;entryX=0.109;entryY=-0.006;entryDx=0;entryDy=0;entryPerimeter=0;exitX=0.107;exitY=0.986;exitDx=0;exitDy=0;exitPerimeter=0;" parent="1" edge="1">
          <mxGeometry width="50" height="50" relative="1" as="geometry">
            <mxPoint x="640" y="79" as="sourcePoint" />
            <mxPoint x="640" y="40" as="targetPoint" />
          </mxGeometry>
        </mxCell>
        <mxCell id="RaZOCAZE1w6m9E56zmA9-33" value="" style="endArrow=none;html=1;rounded=0;entryX=0.109;entryY=-0.006;entryDx=0;entryDy=0;entryPerimeter=0;exitX=0.107;exitY=0.986;exitDx=0;exitDy=0;exitPerimeter=0;" parent="1" edge="1">
          <mxGeometry width="50" height="50" relative="1" as="geometry">
            <mxPoint x="680" y="79" as="sourcePoint" />
            <mxPoint x="680" y="40" as="targetPoint" />
          </mxGeometry>
        </mxCell>
        <mxCell id="RaZOCAZE1w6m9E56zmA9-34" value="" style="endArrow=none;html=1;rounded=0;entryX=0.109;entryY=-0.006;entryDx=0;entryDy=0;entryPerimeter=0;exitX=0.107;exitY=0.986;exitDx=0;exitDy=0;exitPerimeter=0;" parent="1" edge="1">
          <mxGeometry width="50" height="50" relative="1" as="geometry">
            <mxPoint x="720" y="80" as="sourcePoint" />
            <mxPoint x="720" y="41" as="targetPoint" />
          </mxGeometry>
        </mxCell>
        <mxCell id="RaZOCAZE1w6m9E56zmA9-36" value="" style="endArrow=none;html=1;rounded=0;entryX=0.109;entryY=-0.006;entryDx=0;entryDy=0;entryPerimeter=0;exitX=0.107;exitY=0.986;exitDx=0;exitDy=0;exitPerimeter=0;" parent="1" edge="1">
          <mxGeometry width="50" height="50" relative="1" as="geometry">
            <mxPoint x="760" y="79" as="sourcePoint" />
            <mxPoint x="760" y="40" as="targetPoint" />
          </mxGeometry>
        </mxCell>
        <mxCell id="RaZOCAZE1w6m9E56zmA9-37" value="" style="endArrow=none;html=1;rounded=0;entryX=0.109;entryY=-0.006;entryDx=0;entryDy=0;entryPerimeter=0;exitX=0.107;exitY=0.986;exitDx=0;exitDy=0;exitPerimeter=0;" parent="1" edge="1">
          <mxGeometry width="50" height="50" relative="1" as="geometry">
            <mxPoint x="800" y="79" as="sourcePoint" />
            <mxPoint x="800" y="40" as="targetPoint" />
          </mxGeometry>
        </mxCell>
        <mxCell id="RaZOCAZE1w6m9E56zmA9-38" value="" style="endArrow=none;html=1;rounded=0;entryX=0.109;entryY=-0.006;entryDx=0;entryDy=0;entryPerimeter=0;exitX=0.107;exitY=0.986;exitDx=0;exitDy=0;exitPerimeter=0;" parent="1" edge="1">
          <mxGeometry width="50" height="50" relative="1" as="geometry">
            <mxPoint x="840" y="80" as="sourcePoint" />
            <mxPoint x="840" y="41" as="targetPoint" />
          </mxGeometry>
        </mxCell>
        <mxCell id="RaZOCAZE1w6m9E56zmA9-39" value="" style="endArrow=none;html=1;rounded=0;entryX=0.109;entryY=-0.006;entryDx=0;entryDy=0;entryPerimeter=0;exitX=0.107;exitY=0.986;exitDx=0;exitDy=0;exitPerimeter=0;" parent="1" edge="1">
          <mxGeometry width="50" height="50" relative="1" as="geometry">
            <mxPoint x="880" y="80" as="sourcePoint" />
            <mxPoint x="880" y="41" as="targetPoint" />
          </mxGeometry>
        </mxCell>
        <mxCell id="RaZOCAZE1w6m9E56zmA9-40" value="" style="endArrow=none;html=1;rounded=0;entryX=0.109;entryY=-0.006;entryDx=0;entryDy=0;entryPerimeter=0;exitX=0.107;exitY=0.986;exitDx=0;exitDy=0;exitPerimeter=0;" parent="1" edge="1">
          <mxGeometry width="50" height="50" relative="1" as="geometry">
            <mxPoint x="599.14" y="159" as="sourcePoint" />
            <mxPoint x="599.14" y="120" as="targetPoint" />
          </mxGeometry>
        </mxCell>
        <mxCell id="RaZOCAZE1w6m9E56zmA9-41" value="" style="endArrow=none;html=1;rounded=0;entryX=0.109;entryY=-0.006;entryDx=0;entryDy=0;entryPerimeter=0;exitX=0.107;exitY=0.986;exitDx=0;exitDy=0;exitPerimeter=0;" parent="1" edge="1">
          <mxGeometry width="50" height="50" relative="1" as="geometry">
            <mxPoint x="640.14" y="159" as="sourcePoint" />
            <mxPoint x="640.14" y="120" as="targetPoint" />
          </mxGeometry>
        </mxCell>
        <mxCell id="RaZOCAZE1w6m9E56zmA9-42" value="" style="endArrow=none;html=1;rounded=0;entryX=0.109;entryY=-0.006;entryDx=0;entryDy=0;entryPerimeter=0;exitX=0.107;exitY=0.986;exitDx=0;exitDy=0;exitPerimeter=0;" parent="1" edge="1">
          <mxGeometry width="50" height="50" relative="1" as="geometry">
            <mxPoint x="680.14" y="159" as="sourcePoint" />
            <mxPoint x="680.14" y="120" as="targetPoint" />
          </mxGeometry>
        </mxCell>
        <mxCell id="RaZOCAZE1w6m9E56zmA9-43" value="" style="endArrow=none;html=1;rounded=0;entryX=0.109;entryY=-0.006;entryDx=0;entryDy=0;entryPerimeter=0;exitX=0.107;exitY=0.986;exitDx=0;exitDy=0;exitPerimeter=0;" parent="1" edge="1">
          <mxGeometry width="50" height="50" relative="1" as="geometry">
            <mxPoint x="720.14" y="160" as="sourcePoint" />
            <mxPoint x="720.14" y="121" as="targetPoint" />
          </mxGeometry>
        </mxCell>
        <mxCell id="RaZOCAZE1w6m9E56zmA9-44" value="" style="endArrow=none;html=1;rounded=0;entryX=0.109;entryY=-0.006;entryDx=0;entryDy=0;entryPerimeter=0;exitX=0.107;exitY=0.986;exitDx=0;exitDy=0;exitPerimeter=0;" parent="1" edge="1">
          <mxGeometry width="50" height="50" relative="1" as="geometry">
            <mxPoint x="760.14" y="159" as="sourcePoint" />
            <mxPoint x="760.14" y="120" as="targetPoint" />
          </mxGeometry>
        </mxCell>
        <mxCell id="RaZOCAZE1w6m9E56zmA9-45" value="" style="endArrow=none;html=1;rounded=0;entryX=0.109;entryY=-0.006;entryDx=0;entryDy=0;entryPerimeter=0;exitX=0.107;exitY=0.986;exitDx=0;exitDy=0;exitPerimeter=0;" parent="1" edge="1">
          <mxGeometry width="50" height="50" relative="1" as="geometry">
            <mxPoint x="800.14" y="159" as="sourcePoint" />
            <mxPoint x="800.14" y="120" as="targetPoint" />
          </mxGeometry>
        </mxCell>
        <mxCell id="RaZOCAZE1w6m9E56zmA9-46" value="" style="endArrow=none;html=1;rounded=0;entryX=0.109;entryY=-0.006;entryDx=0;entryDy=0;entryPerimeter=0;exitX=0.107;exitY=0.986;exitDx=0;exitDy=0;exitPerimeter=0;" parent="1" edge="1">
          <mxGeometry width="50" height="50" relative="1" as="geometry">
            <mxPoint x="840.14" y="160" as="sourcePoint" />
            <mxPoint x="840.14" y="121" as="targetPoint" />
          </mxGeometry>
        </mxCell>
        <mxCell id="RaZOCAZE1w6m9E56zmA9-47" value="" style="endArrow=none;html=1;rounded=0;entryX=0.109;entryY=-0.006;entryDx=0;entryDy=0;entryPerimeter=0;exitX=0.107;exitY=0.986;exitDx=0;exitDy=0;exitPerimeter=0;" parent="1" edge="1">
          <mxGeometry width="50" height="50" relative="1" as="geometry">
            <mxPoint x="880.14" y="160" as="sourcePoint" />
            <mxPoint x="880.14" y="121" as="targetPoint" />
          </mxGeometry>
        </mxCell>
        <mxCell id="RaZOCAZE1w6m9E56zmA9-48" value="" style="endArrow=none;html=1;rounded=0;entryX=0.109;entryY=-0.006;entryDx=0;entryDy=0;entryPerimeter=0;exitX=0.107;exitY=0.986;exitDx=0;exitDy=0;exitPerimeter=0;" parent="1" edge="1">
          <mxGeometry width="50" height="50" relative="1" as="geometry">
            <mxPoint x="599.14" y="239" as="sourcePoint" />
            <mxPoint x="599.14" y="200" as="targetPoint" />
          </mxGeometry>
        </mxCell>
        <mxCell id="RaZOCAZE1w6m9E56zmA9-49" value="" style="endArrow=none;html=1;rounded=0;entryX=0.109;entryY=-0.006;entryDx=0;entryDy=0;entryPerimeter=0;exitX=0.107;exitY=0.986;exitDx=0;exitDy=0;exitPerimeter=0;" parent="1" edge="1">
          <mxGeometry width="50" height="50" relative="1" as="geometry">
            <mxPoint x="640.14" y="239" as="sourcePoint" />
            <mxPoint x="640.14" y="200" as="targetPoint" />
          </mxGeometry>
        </mxCell>
        <mxCell id="RaZOCAZE1w6m9E56zmA9-50" value="" style="endArrow=none;html=1;rounded=0;entryX=0.109;entryY=-0.006;entryDx=0;entryDy=0;entryPerimeter=0;exitX=0.107;exitY=0.986;exitDx=0;exitDy=0;exitPerimeter=0;" parent="1" edge="1">
          <mxGeometry width="50" height="50" relative="1" as="geometry">
            <mxPoint x="680.14" y="239" as="sourcePoint" />
            <mxPoint x="680.14" y="200" as="targetPoint" />
          </mxGeometry>
        </mxCell>
        <mxCell id="RaZOCAZE1w6m9E56zmA9-51" value="" style="endArrow=none;html=1;rounded=0;entryX=0.109;entryY=-0.006;entryDx=0;entryDy=0;entryPerimeter=0;exitX=0.107;exitY=0.986;exitDx=0;exitDy=0;exitPerimeter=0;" parent="1" edge="1">
          <mxGeometry width="50" height="50" relative="1" as="geometry">
            <mxPoint x="720.14" y="240" as="sourcePoint" />
            <mxPoint x="720.14" y="201" as="targetPoint" />
          </mxGeometry>
        </mxCell>
        <mxCell id="RaZOCAZE1w6m9E56zmA9-52" value="" style="endArrow=none;html=1;rounded=0;entryX=0.109;entryY=-0.006;entryDx=0;entryDy=0;entryPerimeter=0;exitX=0.107;exitY=0.986;exitDx=0;exitDy=0;exitPerimeter=0;" parent="1" edge="1">
          <mxGeometry width="50" height="50" relative="1" as="geometry">
            <mxPoint x="760.14" y="239" as="sourcePoint" />
            <mxPoint x="760.14" y="200" as="targetPoint" />
          </mxGeometry>
        </mxCell>
        <mxCell id="RaZOCAZE1w6m9E56zmA9-53" value="" style="endArrow=none;html=1;rounded=0;entryX=0.109;entryY=-0.006;entryDx=0;entryDy=0;entryPerimeter=0;exitX=0.107;exitY=0.986;exitDx=0;exitDy=0;exitPerimeter=0;" parent="1" edge="1">
          <mxGeometry width="50" height="50" relative="1" as="geometry">
            <mxPoint x="800.14" y="239" as="sourcePoint" />
            <mxPoint x="800.14" y="200" as="targetPoint" />
          </mxGeometry>
        </mxCell>
        <mxCell id="RaZOCAZE1w6m9E56zmA9-54" value="" style="endArrow=none;html=1;rounded=0;entryX=0.109;entryY=-0.006;entryDx=0;entryDy=0;entryPerimeter=0;exitX=0.107;exitY=0.986;exitDx=0;exitDy=0;exitPerimeter=0;" parent="1" edge="1">
          <mxGeometry width="50" height="50" relative="1" as="geometry">
            <mxPoint x="840.14" y="240" as="sourcePoint" />
            <mxPoint x="840.14" y="201" as="targetPoint" />
          </mxGeometry>
        </mxCell>
        <mxCell id="RaZOCAZE1w6m9E56zmA9-55" value="" style="endArrow=none;html=1;rounded=0;entryX=0.109;entryY=-0.006;entryDx=0;entryDy=0;entryPerimeter=0;exitX=0.107;exitY=0.986;exitDx=0;exitDy=0;exitPerimeter=0;" parent="1" edge="1">
          <mxGeometry width="50" height="50" relative="1" as="geometry">
            <mxPoint x="880.14" y="240" as="sourcePoint" />
            <mxPoint x="880.14" y="201" as="targetPoint" />
          </mxGeometry>
        </mxCell>
        <mxCell id="RaZOCAZE1w6m9E56zmA9-56" value="" style="endArrow=none;html=1;rounded=0;entryX=0.109;entryY=-0.006;entryDx=0;entryDy=0;entryPerimeter=0;exitX=0.107;exitY=0.986;exitDx=0;exitDy=0;exitPerimeter=0;" parent="1" edge="1">
          <mxGeometry width="50" height="50" relative="1" as="geometry">
            <mxPoint x="599.14" y="319" as="sourcePoint" />
            <mxPoint x="599.14" y="280" as="targetPoint" />
          </mxGeometry>
        </mxCell>
        <mxCell id="RaZOCAZE1w6m9E56zmA9-57" value="" style="endArrow=none;html=1;rounded=0;entryX=0.109;entryY=-0.006;entryDx=0;entryDy=0;entryPerimeter=0;exitX=0.107;exitY=0.986;exitDx=0;exitDy=0;exitPerimeter=0;" parent="1" edge="1">
          <mxGeometry width="50" height="50" relative="1" as="geometry">
            <mxPoint x="640.14" y="319" as="sourcePoint" />
            <mxPoint x="640.14" y="280" as="targetPoint" />
          </mxGeometry>
        </mxCell>
        <mxCell id="RaZOCAZE1w6m9E56zmA9-58" value="" style="endArrow=none;html=1;rounded=0;entryX=0.109;entryY=-0.006;entryDx=0;entryDy=0;entryPerimeter=0;exitX=0.107;exitY=0.986;exitDx=0;exitDy=0;exitPerimeter=0;" parent="1" edge="1">
          <mxGeometry width="50" height="50" relative="1" as="geometry">
            <mxPoint x="680.14" y="319" as="sourcePoint" />
            <mxPoint x="680.14" y="280" as="targetPoint" />
          </mxGeometry>
        </mxCell>
        <mxCell id="RaZOCAZE1w6m9E56zmA9-59" value="" style="endArrow=none;html=1;rounded=0;entryX=0.109;entryY=-0.006;entryDx=0;entryDy=0;entryPerimeter=0;exitX=0.107;exitY=0.986;exitDx=0;exitDy=0;exitPerimeter=0;" parent="1" edge="1">
          <mxGeometry width="50" height="50" relative="1" as="geometry">
            <mxPoint x="720.14" y="320" as="sourcePoint" />
            <mxPoint x="720.14" y="281" as="targetPoint" />
          </mxGeometry>
        </mxCell>
        <mxCell id="RaZOCAZE1w6m9E56zmA9-60" value="" style="endArrow=none;html=1;rounded=0;entryX=0.109;entryY=-0.006;entryDx=0;entryDy=0;entryPerimeter=0;exitX=0.107;exitY=0.986;exitDx=0;exitDy=0;exitPerimeter=0;" parent="1" edge="1">
          <mxGeometry width="50" height="50" relative="1" as="geometry">
            <mxPoint x="760.14" y="319" as="sourcePoint" />
            <mxPoint x="760.14" y="280" as="targetPoint" />
          </mxGeometry>
        </mxCell>
        <mxCell id="RaZOCAZE1w6m9E56zmA9-61" value="" style="endArrow=none;html=1;rounded=0;entryX=0.109;entryY=-0.006;entryDx=0;entryDy=0;entryPerimeter=0;exitX=0.107;exitY=0.986;exitDx=0;exitDy=0;exitPerimeter=0;" parent="1" edge="1">
          <mxGeometry width="50" height="50" relative="1" as="geometry">
            <mxPoint x="800.14" y="319" as="sourcePoint" />
            <mxPoint x="800.14" y="280" as="targetPoint" />
          </mxGeometry>
        </mxCell>
        <mxCell id="RaZOCAZE1w6m9E56zmA9-62" value="" style="endArrow=none;html=1;rounded=0;entryX=0.109;entryY=-0.006;entryDx=0;entryDy=0;entryPerimeter=0;exitX=0.107;exitY=0.986;exitDx=0;exitDy=0;exitPerimeter=0;" parent="1" edge="1">
          <mxGeometry width="50" height="50" relative="1" as="geometry">
            <mxPoint x="840.14" y="320" as="sourcePoint" />
            <mxPoint x="840.14" y="281" as="targetPoint" />
          </mxGeometry>
        </mxCell>
        <mxCell id="RaZOCAZE1w6m9E56zmA9-63" value="" style="endArrow=none;html=1;rounded=0;entryX=0.109;entryY=-0.006;entryDx=0;entryDy=0;entryPerimeter=0;exitX=0.107;exitY=0.986;exitDx=0;exitDy=0;exitPerimeter=0;" parent="1" edge="1">
          <mxGeometry width="50" height="50" relative="1" as="geometry">
            <mxPoint x="880.14" y="320" as="sourcePoint" />
            <mxPoint x="880.14" y="281" as="targetPoint" />
          </mxGeometry>
        </mxCell>
        <mxCell id="RaZOCAZE1w6m9E56zmA9-64" value="" style="endArrow=none;html=1;rounded=0;entryX=0.109;entryY=-0.006;entryDx=0;entryDy=0;entryPerimeter=0;exitX=0.107;exitY=0.986;exitDx=0;exitDy=0;exitPerimeter=0;" parent="1" edge="1">
          <mxGeometry width="50" height="50" relative="1" as="geometry">
            <mxPoint x="599.14" y="399" as="sourcePoint" />
            <mxPoint x="599.14" y="360" as="targetPoint" />
          </mxGeometry>
        </mxCell>
        <mxCell id="RaZOCAZE1w6m9E56zmA9-65" value="" style="endArrow=none;html=1;rounded=0;entryX=0.109;entryY=-0.006;entryDx=0;entryDy=0;entryPerimeter=0;exitX=0.107;exitY=0.986;exitDx=0;exitDy=0;exitPerimeter=0;" parent="1" edge="1">
          <mxGeometry width="50" height="50" relative="1" as="geometry">
            <mxPoint x="640.14" y="399" as="sourcePoint" />
            <mxPoint x="640.14" y="360" as="targetPoint" />
          </mxGeometry>
        </mxCell>
        <mxCell id="RaZOCAZE1w6m9E56zmA9-66" value="" style="endArrow=none;html=1;rounded=0;entryX=0.109;entryY=-0.006;entryDx=0;entryDy=0;entryPerimeter=0;exitX=0.107;exitY=0.986;exitDx=0;exitDy=0;exitPerimeter=0;" parent="1" edge="1">
          <mxGeometry width="50" height="50" relative="1" as="geometry">
            <mxPoint x="680.14" y="399" as="sourcePoint" />
            <mxPoint x="680.14" y="360" as="targetPoint" />
          </mxGeometry>
        </mxCell>
        <mxCell id="RaZOCAZE1w6m9E56zmA9-67" value="" style="endArrow=none;html=1;rounded=0;entryX=0.109;entryY=-0.006;entryDx=0;entryDy=0;entryPerimeter=0;exitX=0.107;exitY=0.986;exitDx=0;exitDy=0;exitPerimeter=0;" parent="1" edge="1">
          <mxGeometry width="50" height="50" relative="1" as="geometry">
            <mxPoint x="720.14" y="400" as="sourcePoint" />
            <mxPoint x="720.14" y="361" as="targetPoint" />
          </mxGeometry>
        </mxCell>
        <mxCell id="RaZOCAZE1w6m9E56zmA9-68" value="" style="endArrow=none;html=1;rounded=0;entryX=0.109;entryY=-0.006;entryDx=0;entryDy=0;entryPerimeter=0;exitX=0.107;exitY=0.986;exitDx=0;exitDy=0;exitPerimeter=0;" parent="1" edge="1">
          <mxGeometry width="50" height="50" relative="1" as="geometry">
            <mxPoint x="760.14" y="399" as="sourcePoint" />
            <mxPoint x="760.14" y="360" as="targetPoint" />
          </mxGeometry>
        </mxCell>
        <mxCell id="RaZOCAZE1w6m9E56zmA9-69" value="" style="endArrow=none;html=1;rounded=0;entryX=0.109;entryY=-0.006;entryDx=0;entryDy=0;entryPerimeter=0;exitX=0.107;exitY=0.986;exitDx=0;exitDy=0;exitPerimeter=0;" parent="1" edge="1">
          <mxGeometry width="50" height="50" relative="1" as="geometry">
            <mxPoint x="800.14" y="399" as="sourcePoint" />
            <mxPoint x="800.14" y="360" as="targetPoint" />
          </mxGeometry>
        </mxCell>
        <mxCell id="RaZOCAZE1w6m9E56zmA9-70" value="" style="endArrow=none;html=1;rounded=0;entryX=0.109;entryY=-0.006;entryDx=0;entryDy=0;entryPerimeter=0;exitX=0.107;exitY=0.986;exitDx=0;exitDy=0;exitPerimeter=0;" parent="1" edge="1">
          <mxGeometry width="50" height="50" relative="1" as="geometry">
            <mxPoint x="840.14" y="400" as="sourcePoint" />
            <mxPoint x="840.14" y="361" as="targetPoint" />
          </mxGeometry>
        </mxCell>
        <mxCell id="RaZOCAZE1w6m9E56zmA9-71" value="" style="endArrow=none;html=1;rounded=0;entryX=0.109;entryY=-0.006;entryDx=0;entryDy=0;entryPerimeter=0;exitX=0.107;exitY=0.986;exitDx=0;exitDy=0;exitPerimeter=0;" parent="1" edge="1">
          <mxGeometry width="50" height="50" relative="1" as="geometry">
            <mxPoint x="880.14" y="400" as="sourcePoint" />
            <mxPoint x="880.14" y="361" as="targetPoint" />
          </mxGeometry>
        </mxCell>
        <mxCell id="RaZOCAZE1w6m9E56zmA9-72" value="" style="endArrow=none;html=1;rounded=0;entryX=0.109;entryY=-0.006;entryDx=0;entryDy=0;entryPerimeter=0;exitX=0.107;exitY=0.986;exitDx=0;exitDy=0;exitPerimeter=0;" parent="1" edge="1">
          <mxGeometry width="50" height="50" relative="1" as="geometry">
            <mxPoint x="599.14" y="479" as="sourcePoint" />
            <mxPoint x="599.14" y="440" as="targetPoint" />
          </mxGeometry>
        </mxCell>
        <mxCell id="RaZOCAZE1w6m9E56zmA9-73" value="" style="endArrow=none;html=1;rounded=0;entryX=0.109;entryY=-0.006;entryDx=0;entryDy=0;entryPerimeter=0;exitX=0.107;exitY=0.986;exitDx=0;exitDy=0;exitPerimeter=0;" parent="1" edge="1">
          <mxGeometry width="50" height="50" relative="1" as="geometry">
            <mxPoint x="640.14" y="479" as="sourcePoint" />
            <mxPoint x="640.14" y="440" as="targetPoint" />
          </mxGeometry>
        </mxCell>
        <mxCell id="RaZOCAZE1w6m9E56zmA9-74" value="" style="endArrow=none;html=1;rounded=0;entryX=0.109;entryY=-0.006;entryDx=0;entryDy=0;entryPerimeter=0;exitX=0.107;exitY=0.986;exitDx=0;exitDy=0;exitPerimeter=0;" parent="1" edge="1">
          <mxGeometry width="50" height="50" relative="1" as="geometry">
            <mxPoint x="680.14" y="479" as="sourcePoint" />
            <mxPoint x="680.14" y="440" as="targetPoint" />
          </mxGeometry>
        </mxCell>
        <mxCell id="RaZOCAZE1w6m9E56zmA9-75" value="" style="endArrow=none;html=1;rounded=0;entryX=0.109;entryY=-0.006;entryDx=0;entryDy=0;entryPerimeter=0;exitX=0.107;exitY=0.986;exitDx=0;exitDy=0;exitPerimeter=0;" parent="1" edge="1">
          <mxGeometry width="50" height="50" relative="1" as="geometry">
            <mxPoint x="720.14" y="480" as="sourcePoint" />
            <mxPoint x="720.14" y="441" as="targetPoint" />
          </mxGeometry>
        </mxCell>
        <mxCell id="RaZOCAZE1w6m9E56zmA9-76" value="" style="endArrow=none;html=1;rounded=0;entryX=0.109;entryY=-0.006;entryDx=0;entryDy=0;entryPerimeter=0;exitX=0.107;exitY=0.986;exitDx=0;exitDy=0;exitPerimeter=0;" parent="1" edge="1">
          <mxGeometry width="50" height="50" relative="1" as="geometry">
            <mxPoint x="760.14" y="479" as="sourcePoint" />
            <mxPoint x="760.14" y="440" as="targetPoint" />
          </mxGeometry>
        </mxCell>
        <mxCell id="RaZOCAZE1w6m9E56zmA9-77" value="" style="endArrow=none;html=1;rounded=0;entryX=0.109;entryY=-0.006;entryDx=0;entryDy=0;entryPerimeter=0;exitX=0.107;exitY=0.986;exitDx=0;exitDy=0;exitPerimeter=0;" parent="1" edge="1">
          <mxGeometry width="50" height="50" relative="1" as="geometry">
            <mxPoint x="800.14" y="479" as="sourcePoint" />
            <mxPoint x="800.14" y="440" as="targetPoint" />
          </mxGeometry>
        </mxCell>
        <mxCell id="RaZOCAZE1w6m9E56zmA9-78" value="" style="endArrow=none;html=1;rounded=0;entryX=0.109;entryY=-0.006;entryDx=0;entryDy=0;entryPerimeter=0;exitX=0.107;exitY=0.986;exitDx=0;exitDy=0;exitPerimeter=0;" parent="1" edge="1">
          <mxGeometry width="50" height="50" relative="1" as="geometry">
            <mxPoint x="840.14" y="480" as="sourcePoint" />
            <mxPoint x="840.14" y="441" as="targetPoint" />
          </mxGeometry>
        </mxCell>
        <mxCell id="RaZOCAZE1w6m9E56zmA9-79" value="" style="endArrow=none;html=1;rounded=0;entryX=0.109;entryY=-0.006;entryDx=0;entryDy=0;entryPerimeter=0;exitX=0.107;exitY=0.986;exitDx=0;exitDy=0;exitPerimeter=0;" parent="1" edge="1">
          <mxGeometry width="50" height="50" relative="1" as="geometry">
            <mxPoint x="880.14" y="480" as="sourcePoint" />
            <mxPoint x="880.14" y="441" as="targetPoint" />
          </mxGeometry>
        </mxCell>
        <mxCell id="RaZOCAZE1w6m9E56zmA9-80" value="" style="endArrow=none;html=1;rounded=0;entryX=0.109;entryY=-0.006;entryDx=0;entryDy=0;entryPerimeter=0;exitX=0.107;exitY=0.986;exitDx=0;exitDy=0;exitPerimeter=0;" parent="1" edge="1">
          <mxGeometry width="50" height="50" relative="1" as="geometry">
            <mxPoint x="599.14" y="559" as="sourcePoint" />
            <mxPoint x="599.14" y="520" as="targetPoint" />
          </mxGeometry>
        </mxCell>
        <mxCell id="RaZOCAZE1w6m9E56zmA9-81" value="" style="endArrow=none;html=1;rounded=0;entryX=0.109;entryY=-0.006;entryDx=0;entryDy=0;entryPerimeter=0;exitX=0.107;exitY=0.986;exitDx=0;exitDy=0;exitPerimeter=0;" parent="1" edge="1">
          <mxGeometry width="50" height="50" relative="1" as="geometry">
            <mxPoint x="640.14" y="559" as="sourcePoint" />
            <mxPoint x="640.14" y="520" as="targetPoint" />
          </mxGeometry>
        </mxCell>
        <mxCell id="RaZOCAZE1w6m9E56zmA9-82" value="" style="endArrow=none;html=1;rounded=0;entryX=0.109;entryY=-0.006;entryDx=0;entryDy=0;entryPerimeter=0;exitX=0.107;exitY=0.986;exitDx=0;exitDy=0;exitPerimeter=0;" parent="1" edge="1">
          <mxGeometry width="50" height="50" relative="1" as="geometry">
            <mxPoint x="680.14" y="559" as="sourcePoint" />
            <mxPoint x="680.14" y="520" as="targetPoint" />
          </mxGeometry>
        </mxCell>
        <mxCell id="RaZOCAZE1w6m9E56zmA9-83" value="" style="endArrow=none;html=1;rounded=0;entryX=0.109;entryY=-0.006;entryDx=0;entryDy=0;entryPerimeter=0;exitX=0.107;exitY=0.986;exitDx=0;exitDy=0;exitPerimeter=0;" parent="1" edge="1">
          <mxGeometry width="50" height="50" relative="1" as="geometry">
            <mxPoint x="720.14" y="560" as="sourcePoint" />
            <mxPoint x="720.14" y="521" as="targetPoint" />
          </mxGeometry>
        </mxCell>
        <mxCell id="RaZOCAZE1w6m9E56zmA9-84" value="" style="endArrow=none;html=1;rounded=0;entryX=0.109;entryY=-0.006;entryDx=0;entryDy=0;entryPerimeter=0;exitX=0.107;exitY=0.986;exitDx=0;exitDy=0;exitPerimeter=0;" parent="1" edge="1">
          <mxGeometry width="50" height="50" relative="1" as="geometry">
            <mxPoint x="760.14" y="559" as="sourcePoint" />
            <mxPoint x="760.14" y="520" as="targetPoint" />
          </mxGeometry>
        </mxCell>
        <mxCell id="RaZOCAZE1w6m9E56zmA9-85" value="" style="endArrow=none;html=1;rounded=0;entryX=0.109;entryY=-0.006;entryDx=0;entryDy=0;entryPerimeter=0;exitX=0.107;exitY=0.986;exitDx=0;exitDy=0;exitPerimeter=0;" parent="1" edge="1">
          <mxGeometry width="50" height="50" relative="1" as="geometry">
            <mxPoint x="800.14" y="559" as="sourcePoint" />
            <mxPoint x="800.14" y="520" as="targetPoint" />
          </mxGeometry>
        </mxCell>
        <mxCell id="RaZOCAZE1w6m9E56zmA9-86" value="" style="endArrow=none;html=1;rounded=0;entryX=0.109;entryY=-0.006;entryDx=0;entryDy=0;entryPerimeter=0;exitX=0.107;exitY=0.986;exitDx=0;exitDy=0;exitPerimeter=0;" parent="1" edge="1">
          <mxGeometry width="50" height="50" relative="1" as="geometry">
            <mxPoint x="840.14" y="560" as="sourcePoint" />
            <mxPoint x="840.14" y="521" as="targetPoint" />
          </mxGeometry>
        </mxCell>
        <mxCell id="RaZOCAZE1w6m9E56zmA9-87" value="" style="endArrow=none;html=1;rounded=0;entryX=0.109;entryY=-0.006;entryDx=0;entryDy=0;entryPerimeter=0;exitX=0.107;exitY=0.986;exitDx=0;exitDy=0;exitPerimeter=0;" parent="1" edge="1">
          <mxGeometry width="50" height="50" relative="1" as="geometry">
            <mxPoint x="880.14" y="560" as="sourcePoint" />
            <mxPoint x="880.14" y="521" as="targetPoint" />
          </mxGeometry>
        </mxCell>
        <mxCell id="RaZOCAZE1w6m9E56zmA9-88" value="" style="endArrow=none;html=1;rounded=0;entryX=0.109;entryY=-0.006;entryDx=0;entryDy=0;entryPerimeter=0;exitX=0.107;exitY=0.986;exitDx=0;exitDy=0;exitPerimeter=0;" parent="1" edge="1">
          <mxGeometry width="50" height="50" relative="1" as="geometry">
            <mxPoint x="599.14" y="639" as="sourcePoint" />
            <mxPoint x="599.14" y="600" as="targetPoint" />
          </mxGeometry>
        </mxCell>
        <mxCell id="RaZOCAZE1w6m9E56zmA9-89" value="" style="endArrow=none;html=1;rounded=0;entryX=0.109;entryY=-0.006;entryDx=0;entryDy=0;entryPerimeter=0;exitX=0.107;exitY=0.986;exitDx=0;exitDy=0;exitPerimeter=0;" parent="1" edge="1">
          <mxGeometry width="50" height="50" relative="1" as="geometry">
            <mxPoint x="640.14" y="639" as="sourcePoint" />
            <mxPoint x="640.14" y="600" as="targetPoint" />
          </mxGeometry>
        </mxCell>
        <mxCell id="RaZOCAZE1w6m9E56zmA9-90" value="" style="endArrow=none;html=1;rounded=0;entryX=0.109;entryY=-0.006;entryDx=0;entryDy=0;entryPerimeter=0;exitX=0.107;exitY=0.986;exitDx=0;exitDy=0;exitPerimeter=0;" parent="1" edge="1">
          <mxGeometry width="50" height="50" relative="1" as="geometry">
            <mxPoint x="680.14" y="639" as="sourcePoint" />
            <mxPoint x="680.14" y="600" as="targetPoint" />
          </mxGeometry>
        </mxCell>
        <mxCell id="RaZOCAZE1w6m9E56zmA9-91" value="" style="endArrow=none;html=1;rounded=0;entryX=0.109;entryY=-0.006;entryDx=0;entryDy=0;entryPerimeter=0;exitX=0.107;exitY=0.986;exitDx=0;exitDy=0;exitPerimeter=0;" parent="1" edge="1">
          <mxGeometry width="50" height="50" relative="1" as="geometry">
            <mxPoint x="720.14" y="640" as="sourcePoint" />
            <mxPoint x="720.14" y="601" as="targetPoint" />
          </mxGeometry>
        </mxCell>
        <mxCell id="RaZOCAZE1w6m9E56zmA9-92" value="" style="endArrow=none;html=1;rounded=0;entryX=0.109;entryY=-0.006;entryDx=0;entryDy=0;entryPerimeter=0;exitX=0.107;exitY=0.986;exitDx=0;exitDy=0;exitPerimeter=0;" parent="1" edge="1">
          <mxGeometry width="50" height="50" relative="1" as="geometry">
            <mxPoint x="760.14" y="639" as="sourcePoint" />
            <mxPoint x="760.14" y="600" as="targetPoint" />
          </mxGeometry>
        </mxCell>
        <mxCell id="RaZOCAZE1w6m9E56zmA9-93" value="" style="endArrow=none;html=1;rounded=0;entryX=0.109;entryY=-0.006;entryDx=0;entryDy=0;entryPerimeter=0;exitX=0.107;exitY=0.986;exitDx=0;exitDy=0;exitPerimeter=0;" parent="1" edge="1">
          <mxGeometry width="50" height="50" relative="1" as="geometry">
            <mxPoint x="800.14" y="639" as="sourcePoint" />
            <mxPoint x="800.14" y="600" as="targetPoint" />
          </mxGeometry>
        </mxCell>
        <mxCell id="RaZOCAZE1w6m9E56zmA9-94" value="" style="endArrow=none;html=1;rounded=0;entryX=0.109;entryY=-0.006;entryDx=0;entryDy=0;entryPerimeter=0;exitX=0.107;exitY=0.986;exitDx=0;exitDy=0;exitPerimeter=0;" parent="1" edge="1">
          <mxGeometry width="50" height="50" relative="1" as="geometry">
            <mxPoint x="840.14" y="640" as="sourcePoint" />
            <mxPoint x="840.14" y="601" as="targetPoint" />
          </mxGeometry>
        </mxCell>
        <mxCell id="RaZOCAZE1w6m9E56zmA9-95" value="" style="endArrow=none;html=1;rounded=0;entryX=0.109;entryY=-0.006;entryDx=0;entryDy=0;entryPerimeter=0;exitX=0.107;exitY=0.986;exitDx=0;exitDy=0;exitPerimeter=0;" parent="1" edge="1">
          <mxGeometry width="50" height="50" relative="1" as="geometry">
            <mxPoint x="880.14" y="640" as="sourcePoint" />
            <mxPoint x="880.14" y="601" as="targetPoint" />
          </mxGeometry>
        </mxCell>
        <mxCell id="RaZOCAZE1w6m9E56zmA9-96" value="" style="endArrow=none;html=1;rounded=0;entryX=0.109;entryY=-0.006;entryDx=0;entryDy=0;entryPerimeter=0;exitX=0.107;exitY=0.986;exitDx=0;exitDy=0;exitPerimeter=0;" parent="1" edge="1">
          <mxGeometry width="50" height="50" relative="1" as="geometry">
            <mxPoint x="599.14" y="719" as="sourcePoint" />
            <mxPoint x="599.14" y="680" as="targetPoint" />
          </mxGeometry>
        </mxCell>
        <mxCell id="RaZOCAZE1w6m9E56zmA9-97" value="" style="endArrow=none;html=1;rounded=0;entryX=0.109;entryY=-0.006;entryDx=0;entryDy=0;entryPerimeter=0;exitX=0.107;exitY=0.986;exitDx=0;exitDy=0;exitPerimeter=0;" parent="1" edge="1">
          <mxGeometry width="50" height="50" relative="1" as="geometry">
            <mxPoint x="640.14" y="719" as="sourcePoint" />
            <mxPoint x="640.14" y="680" as="targetPoint" />
          </mxGeometry>
        </mxCell>
        <mxCell id="RaZOCAZE1w6m9E56zmA9-98" value="" style="endArrow=none;html=1;rounded=0;entryX=0.109;entryY=-0.006;entryDx=0;entryDy=0;entryPerimeter=0;exitX=0.107;exitY=0.986;exitDx=0;exitDy=0;exitPerimeter=0;" parent="1" edge="1">
          <mxGeometry width="50" height="50" relative="1" as="geometry">
            <mxPoint x="680.14" y="719" as="sourcePoint" />
            <mxPoint x="680.14" y="680" as="targetPoint" />
          </mxGeometry>
        </mxCell>
        <mxCell id="RaZOCAZE1w6m9E56zmA9-99" value="" style="endArrow=none;html=1;rounded=0;entryX=0.109;entryY=-0.006;entryDx=0;entryDy=0;entryPerimeter=0;exitX=0.107;exitY=0.986;exitDx=0;exitDy=0;exitPerimeter=0;" parent="1" edge="1">
          <mxGeometry width="50" height="50" relative="1" as="geometry">
            <mxPoint x="720.14" y="720" as="sourcePoint" />
            <mxPoint x="720.14" y="681" as="targetPoint" />
          </mxGeometry>
        </mxCell>
        <mxCell id="RaZOCAZE1w6m9E56zmA9-100" value="" style="endArrow=none;html=1;rounded=0;entryX=0.109;entryY=-0.006;entryDx=0;entryDy=0;entryPerimeter=0;exitX=0.107;exitY=0.986;exitDx=0;exitDy=0;exitPerimeter=0;" parent="1" edge="1">
          <mxGeometry width="50" height="50" relative="1" as="geometry">
            <mxPoint x="760.14" y="719" as="sourcePoint" />
            <mxPoint x="760.14" y="680" as="targetPoint" />
          </mxGeometry>
        </mxCell>
        <mxCell id="RaZOCAZE1w6m9E56zmA9-101" value="" style="endArrow=none;html=1;rounded=0;entryX=0.109;entryY=-0.006;entryDx=0;entryDy=0;entryPerimeter=0;exitX=0.107;exitY=0.986;exitDx=0;exitDy=0;exitPerimeter=0;" parent="1" edge="1">
          <mxGeometry width="50" height="50" relative="1" as="geometry">
            <mxPoint x="800.14" y="719" as="sourcePoint" />
            <mxPoint x="800.14" y="680" as="targetPoint" />
          </mxGeometry>
        </mxCell>
        <mxCell id="RaZOCAZE1w6m9E56zmA9-102" value="" style="endArrow=none;html=1;rounded=0;entryX=0.109;entryY=-0.006;entryDx=0;entryDy=0;entryPerimeter=0;exitX=0.107;exitY=0.986;exitDx=0;exitDy=0;exitPerimeter=0;" parent="1" edge="1">
          <mxGeometry width="50" height="50" relative="1" as="geometry">
            <mxPoint x="840.14" y="720" as="sourcePoint" />
            <mxPoint x="840.14" y="681" as="targetPoint" />
          </mxGeometry>
        </mxCell>
        <mxCell id="RaZOCAZE1w6m9E56zmA9-103" value="" style="endArrow=none;html=1;rounded=0;entryX=0.109;entryY=-0.006;entryDx=0;entryDy=0;entryPerimeter=0;exitX=0.107;exitY=0.986;exitDx=0;exitDy=0;exitPerimeter=0;" parent="1" edge="1">
          <mxGeometry width="50" height="50" relative="1" as="geometry">
            <mxPoint x="880.14" y="720" as="sourcePoint" />
            <mxPoint x="880.14" y="681" as="targetPoint" />
          </mxGeometry>
        </mxCell>
        <mxCell id="RaZOCAZE1w6m9E56zmA9-104" value="" style="endArrow=classic;html=1;rounded=0;exitX=1;exitY=0.5;exitDx=0;exitDy=0;" parent="1" source="RaZOCAZE1w6m9E56zmA9-1" edge="1">
          <mxGeometry width="50" height="50" relative="1" as="geometry">
            <mxPoint x="1030" y="70" as="sourcePoint" />
            <mxPoint x="1120" y="60" as="targetPoint" />
          </mxGeometry>
        </mxCell>
        <mxCell id="RaZOCAZE1w6m9E56zmA9-113" value="&lt;b&gt;&lt;font style=&quot;font-size: 14px;&quot;&gt;o_image_bram[0]&lt;/font&gt;&lt;/b&gt;" style="edgeLabel;html=1;align=center;verticalAlign=middle;resizable=0;points=[];" parent="RaZOCAZE1w6m9E56zmA9-104" vertex="1" connectable="0">
          <mxGeometry x="0.0074" relative="1" as="geometry">
            <mxPoint as="offset" />
          </mxGeometry>
        </mxCell>
        <mxCell id="RaZOCAZE1w6m9E56zmA9-105" value="" style="endArrow=classic;html=1;rounded=0;exitX=1;exitY=0.5;exitDx=0;exitDy=0;" parent="1" edge="1">
          <mxGeometry width="50" height="50" relative="1" as="geometry">
            <mxPoint x="920" y="139.63" as="sourcePoint" />
            <mxPoint x="1120" y="140" as="targetPoint" />
          </mxGeometry>
        </mxCell>
        <mxCell id="RaZOCAZE1w6m9E56zmA9-114" value="&lt;span style=&quot;color: rgba(0, 0, 0, 0); font-family: monospace; font-size: 0px; text-align: start; background-color: rgb(251, 251, 251);&quot;&gt;%3CmxGraphModel%3E%3Croot%3E%3CmxCell%20id%3D%220%22%2F%3E%3CmxCell%20id%3D%221%22%20parent%3D%220%22%2F%3E%3CmxCell%20id%3D%222%22%20value%3D%22o_image_bram%5B0%5D%22%20style%3D%22edgeLabel%3Bhtml%3D1%3Balign%3Dcenter%3BverticalAlign%3Dmiddle%3Bresizable%3D0%3Bpoints%3D%5B%5D%3B%22%20vertex%3D%221%22%20connectable%3D%220%22%20parent%3D%221%22%3E%3CmxGeometry%20x%3D%22700%22%20y%3D%2260%22%20as%3D%22geometry%22%2F%3E%3C%2FmxCell%3E%3C%2Froot%3E%3C%2FmxGraphModel%3E&lt;/span&gt;" style="edgeLabel;html=1;align=center;verticalAlign=middle;resizable=0;points=[];" parent="RaZOCAZE1w6m9E56zmA9-105" vertex="1" connectable="0">
          <mxGeometry x="-0.1704" y="-3" relative="1" as="geometry">
            <mxPoint as="offset" />
          </mxGeometry>
        </mxCell>
        <mxCell id="RaZOCAZE1w6m9E56zmA9-106" value="" style="endArrow=classic;html=1;rounded=0;exitX=1;exitY=0.5;exitDx=0;exitDy=0;" parent="1" edge="1">
          <mxGeometry width="50" height="50" relative="1" as="geometry">
            <mxPoint x="920" y="219.69" as="sourcePoint" />
            <mxPoint x="1120" y="220" as="targetPoint" />
          </mxGeometry>
        </mxCell>
        <mxCell id="RaZOCAZE1w6m9E56zmA9-116" value="&lt;b&gt;&lt;font style=&quot;font-size: 14px;&quot;&gt;o_image_bram[2]&lt;/font&gt;&lt;/b&gt;" style="edgeLabel;html=1;align=center;verticalAlign=middle;resizable=0;points=[];" parent="RaZOCAZE1w6m9E56zmA9-106" vertex="1" connectable="0">
          <mxGeometry x="-0.0014" y="-1" relative="1" as="geometry">
            <mxPoint as="offset" />
          </mxGeometry>
        </mxCell>
        <mxCell id="RaZOCAZE1w6m9E56zmA9-107" value="" style="endArrow=classic;html=1;rounded=0;exitX=1;exitY=0.5;exitDx=0;exitDy=0;" parent="1" edge="1">
          <mxGeometry width="50" height="50" relative="1" as="geometry">
            <mxPoint x="920" y="299.69" as="sourcePoint" />
            <mxPoint x="1120" y="300" as="targetPoint" />
          </mxGeometry>
        </mxCell>
        <mxCell id="RaZOCAZE1w6m9E56zmA9-117" value="&lt;b&gt;&lt;font style=&quot;font-size: 14px;&quot;&gt;o_image_bram[3&lt;span style=&quot;background-color: light-dark(#ffffff, var(--ge-dark-color, #121212)); color: light-dark(rgb(0, 0, 0), rgb(255, 255, 255));&quot;&gt;]&lt;/span&gt;&lt;/font&gt;&lt;/b&gt;" style="edgeLabel;html=1;align=center;verticalAlign=middle;resizable=0;points=[];" parent="RaZOCAZE1w6m9E56zmA9-107" vertex="1" connectable="0">
          <mxGeometry x="0.0194" y="2" relative="1" as="geometry">
            <mxPoint as="offset" />
          </mxGeometry>
        </mxCell>
        <mxCell id="RaZOCAZE1w6m9E56zmA9-108" value="" style="endArrow=classic;html=1;rounded=0;exitX=1;exitY=0.5;exitDx=0;exitDy=0;" parent="1" edge="1">
          <mxGeometry width="50" height="50" relative="1" as="geometry">
            <mxPoint x="920" y="379.69" as="sourcePoint" />
            <mxPoint x="1120" y="380" as="targetPoint" />
          </mxGeometry>
        </mxCell>
        <mxCell id="RaZOCAZE1w6m9E56zmA9-118" value="&lt;font style=&quot;font-size: 14px;&quot;&gt;o_image_bram[4]&lt;/font&gt;" style="edgeLabel;html=1;align=center;verticalAlign=middle;resizable=0;points=[];fontStyle=1" parent="RaZOCAZE1w6m9E56zmA9-108" vertex="1" connectable="0">
          <mxGeometry x="-0.0326" relative="1" as="geometry">
            <mxPoint as="offset" />
          </mxGeometry>
        </mxCell>
        <mxCell id="RaZOCAZE1w6m9E56zmA9-109" value="" style="endArrow=classic;html=1;rounded=0;exitX=1;exitY=0.5;exitDx=0;exitDy=0;" parent="1" edge="1">
          <mxGeometry width="50" height="50" relative="1" as="geometry">
            <mxPoint x="920" y="459.69" as="sourcePoint" />
            <mxPoint x="1120" y="460" as="targetPoint" />
          </mxGeometry>
        </mxCell>
        <mxCell id="RaZOCAZE1w6m9E56zmA9-119" value="&lt;b&gt;&lt;font style=&quot;font-size: 14px;&quot;&gt;o_image_bram[5]&lt;/font&gt;&lt;/b&gt;" style="edgeLabel;html=1;align=center;verticalAlign=middle;resizable=0;points=[];" parent="RaZOCAZE1w6m9E56zmA9-109" vertex="1" connectable="0">
          <mxGeometry x="-0.1576" y="-1" relative="1" as="geometry">
            <mxPoint x="9" y="-1" as="offset" />
          </mxGeometry>
        </mxCell>
        <mxCell id="RaZOCAZE1w6m9E56zmA9-110" value="" style="endArrow=classic;html=1;rounded=0;exitX=1;exitY=0.5;exitDx=0;exitDy=0;" parent="1" edge="1">
          <mxGeometry width="50" height="50" relative="1" as="geometry">
            <mxPoint x="920" y="539.69" as="sourcePoint" />
            <mxPoint x="1120" y="540" as="targetPoint" />
          </mxGeometry>
        </mxCell>
        <mxCell id="RaZOCAZE1w6m9E56zmA9-120" value="&lt;font style=&quot;font-size: 14px;&quot;&gt;o_image_bram[6]&lt;/font&gt;" style="edgeLabel;html=1;align=center;verticalAlign=middle;resizable=0;points=[];fontStyle=1" parent="RaZOCAZE1w6m9E56zmA9-110" vertex="1" connectable="0">
          <mxGeometry x="-0.0118" y="1" relative="1" as="geometry">
            <mxPoint as="offset" />
          </mxGeometry>
        </mxCell>
        <mxCell id="RaZOCAZE1w6m9E56zmA9-111" value="" style="endArrow=classic;html=1;rounded=0;exitX=1;exitY=0.5;exitDx=0;exitDy=0;" parent="1" edge="1">
          <mxGeometry width="50" height="50" relative="1" as="geometry">
            <mxPoint x="920" y="619.69" as="sourcePoint" />
            <mxPoint x="1120" y="620" as="targetPoint" />
          </mxGeometry>
        </mxCell>
        <mxCell id="RaZOCAZE1w6m9E56zmA9-121" value="&lt;b&gt;&lt;font style=&quot;font-size: 14px;&quot;&gt;o_image_bram[7]&lt;/font&gt;&lt;/b&gt;" style="edgeLabel;html=1;align=center;verticalAlign=middle;resizable=0;points=[];" parent="RaZOCAZE1w6m9E56zmA9-111" vertex="1" connectable="0">
          <mxGeometry x="0.0444" y="-1" relative="1" as="geometry">
            <mxPoint x="-14" y="-1" as="offset" />
          </mxGeometry>
        </mxCell>
        <mxCell id="RaZOCAZE1w6m9E56zmA9-112" value="" style="endArrow=classic;html=1;rounded=0;exitX=1;exitY=0.5;exitDx=0;exitDy=0;" parent="1" edge="1">
          <mxGeometry width="50" height="50" relative="1" as="geometry">
            <mxPoint x="920" y="699.69" as="sourcePoint" />
            <mxPoint x="1120" y="700" as="targetPoint" />
          </mxGeometry>
        </mxCell>
        <mxCell id="RaZOCAZE1w6m9E56zmA9-122" value="&lt;b&gt;&lt;font style=&quot;font-size: 14px;&quot;&gt;o_image_bram[8]&lt;/font&gt;&lt;/b&gt;" style="edgeLabel;html=1;align=center;verticalAlign=middle;resizable=0;points=[];" parent="RaZOCAZE1w6m9E56zmA9-112" vertex="1" connectable="0">
          <mxGeometry x="0.1111" relative="1" as="geometry">
            <mxPoint x="-11" as="offset" />
          </mxGeometry>
        </mxCell>
        <mxCell id="RaZOCAZE1w6m9E56zmA9-115" value="&lt;b&gt;&lt;font style=&quot;font-size: 14px;&quot;&gt;o_image_bram[1]&lt;/font&gt;&lt;/b&gt;" style="edgeLabel;html=1;align=center;verticalAlign=middle;resizable=0;points=[];" parent="1" vertex="1" connectable="0">
          <mxGeometry x="1010" y="140" as="geometry">
            <mxPoint x="5" y="-2" as="offset" />
          </mxGeometry>
        </mxCell>
        <mxCell id="UdEltBjJehsJmAS0ig98-4" value="" style="endArrow=classic;html=1;rounded=0;entryX=0;entryY=0.5;entryDx=0;entryDy=0;" edge="1" parent="1">
          <mxGeometry width="50" height="50" relative="1" as="geometry">
            <mxPoint x="160" y="90.91" as="sourcePoint" />
            <mxPoint x="320" y="90.91" as="targetPoint" />
          </mxGeometry>
        </mxCell>
        <mxCell id="UdEltBjJehsJmAS0ig98-5" value="&lt;span style=&quot;font-size: 14px;&quot;&gt;&lt;b&gt;i_wren&lt;/b&gt;&lt;/span&gt;" style="edgeLabel;html=1;align=center;verticalAlign=middle;resizable=0;points=[];" vertex="1" connectable="0" parent="1">
          <mxGeometry x="240" y="90.91000000000003" as="geometry" />
        </mxCell>
        <mxCell id="UdEltBjJehsJmAS0ig98-12" style="edgeStyle=orthogonalEdgeStyle;rounded=0;orthogonalLoop=1;jettySize=auto;html=1;entryX=0;entryY=0.5;entryDx=0;entryDy=0;" edge="1" parent="1" source="UdEltBjJehsJmAS0ig98-6" target="RaZOCAZE1w6m9E56zmA9-1">
          <mxGeometry relative="1" as="geometry" />
        </mxCell>
        <mxCell id="UdEltBjJehsJmAS0ig98-6" value="&lt;b&gt;&lt;font style=&quot;font-size: 18px;&quot;&gt;D_FF&lt;/font&gt;&lt;/b&gt;" style="rounded=0;whiteSpace=wrap;html=1;" vertex="1" parent="1">
          <mxGeometry x="320" y="40" width="80" height="151" as="geometry" />
        </mxCell>
        <mxCell id="UdEltBjJehsJmAS0ig98-7" value="" style="endArrow=classic;html=1;rounded=0;entryX=0;entryY=0.5;entryDx=0;entryDy=0;" edge="1" parent="1">
          <mxGeometry width="50" height="50" relative="1" as="geometry">
            <mxPoint x="160" y="160" as="sourcePoint" />
            <mxPoint x="320" y="159.99999999999994" as="targetPoint" />
          </mxGeometry>
        </mxCell>
        <mxCell id="UdEltBjJehsJmAS0ig98-8" value="&lt;span style=&quot;font-size: 14px;&quot;&gt;&lt;b&gt;i_clk&lt;/b&gt;&lt;/span&gt;" style="edgeLabel;html=1;align=center;verticalAlign=middle;resizable=0;points=[];" vertex="1" connectable="0" parent="UdEltBjJehsJmAS0ig98-7">
          <mxGeometry x="-0.1938" y="-2" relative="1" as="geometry">
            <mxPoint x="16" y="-2" as="offset" />
          </mxGeometry>
        </mxCell>
        <mxCell id="UdEltBjJehsJmAS0ig98-9" value="" style="endArrow=classic;html=1;rounded=0;entryX=0;entryY=0.5;entryDx=0;entryDy=0;" edge="1" parent="1">
          <mxGeometry width="50" height="50" relative="1" as="geometry">
            <mxPoint x="160" y="180.91" as="sourcePoint" />
            <mxPoint x="320" y="180.91" as="targetPoint" />
          </mxGeometry>
        </mxCell>
        <mxCell id="UdEltBjJehsJmAS0ig98-10" value="&lt;span style=&quot;font-size: 14px;&quot;&gt;&lt;b&gt;i_rst&lt;/b&gt;&lt;/span&gt;" style="edgeLabel;html=1;align=center;verticalAlign=middle;resizable=0;points=[];" vertex="1" connectable="0" parent="1">
          <mxGeometry x="240" y="180.91000000000003" as="geometry" />
        </mxCell>
      </root>
    </mxGraphModel>
  </diagram>
  <diagram id="H8k-OS2uYDPFfqNN7Idl" name="median_processing">
    <mxGraphModel dx="756" dy="403" grid="1" gridSize="10" guides="1" tooltips="1" connect="1" arrows="1" fold="1" page="1" pageScale="1" pageWidth="1169" pageHeight="827" math="0" shadow="0">
      <root>
        <mxCell id="0" />
        <mxCell id="1" parent="0" />
        <mxCell id="ozrENfYV2Y0ctqZiUlOy-1" value="&lt;b&gt;&lt;font style=&quot;font-size: 14px;&quot;&gt;Median pre_processing&lt;/font&gt;&lt;/b&gt;" style="whiteSpace=wrap;html=1;aspect=fixed;" parent="1" vertex="1">
          <mxGeometry x="40" y="400" width="120" height="120" as="geometry" />
        </mxCell>
        <mxCell id="ozrENfYV2Y0ctqZiUlOy-2" value="" style="endArrow=classic;html=1;rounded=0;exitX=1.002;exitY=0.168;exitDx=0;exitDy=0;exitPerimeter=0;" parent="1" source="ozrENfYV2Y0ctqZiUlOy-1" edge="1">
          <mxGeometry width="50" height="50" relative="1" as="geometry">
            <mxPoint x="180" y="439" as="sourcePoint" />
            <mxPoint x="280" y="420" as="targetPoint" />
          </mxGeometry>
        </mxCell>
        <mxCell id="ozrENfYV2Y0ctqZiUlOy-7" value="&lt;font style=&quot;font-size: 14px;&quot;&gt;&lt;b&gt;enable_3x3&lt;/b&gt;&lt;/font&gt;" style="edgeLabel;html=1;align=center;verticalAlign=middle;resizable=0;points=[];" parent="ozrENfYV2Y0ctqZiUlOy-2" vertex="1" connectable="0">
          <mxGeometry x="-0.2591" y="1" relative="1" as="geometry">
            <mxPoint x="15" as="offset" />
          </mxGeometry>
        </mxCell>
        <mxCell id="ozrENfYV2Y0ctqZiUlOy-4" value="" style="endArrow=classic;html=1;rounded=0;exitX=1.002;exitY=0.168;exitDx=0;exitDy=0;exitPerimeter=0;" parent="1" edge="1">
          <mxGeometry width="50" height="50" relative="1" as="geometry">
            <mxPoint x="160" y="450" as="sourcePoint" />
            <mxPoint x="280" y="450" as="targetPoint" />
          </mxGeometry>
        </mxCell>
        <mxCell id="ozrENfYV2Y0ctqZiUlOy-5" value="" style="endArrow=classic;html=1;rounded=0;exitX=1.002;exitY=0.168;exitDx=0;exitDy=0;exitPerimeter=0;" parent="1" edge="1">
          <mxGeometry width="50" height="50" relative="1" as="geometry">
            <mxPoint x="160" y="480" as="sourcePoint" />
            <mxPoint x="280" y="480.17" as="targetPoint" />
          </mxGeometry>
        </mxCell>
        <mxCell id="ozrENfYV2Y0ctqZiUlOy-9" value="&lt;font style=&quot;font-size: 14px;&quot;&gt;&lt;b&gt;enable_7x7&lt;/b&gt;&lt;/font&gt;" style="edgeLabel;html=1;align=center;verticalAlign=middle;resizable=0;points=[];" parent="ozrENfYV2Y0ctqZiUlOy-5" vertex="1" connectable="0">
          <mxGeometry x="0.0162" relative="1" as="geometry">
            <mxPoint as="offset" />
          </mxGeometry>
        </mxCell>
        <mxCell id="ozrENfYV2Y0ctqZiUlOy-6" value="" style="endArrow=classic;html=1;rounded=0;exitX=1.002;exitY=0.168;exitDx=0;exitDy=0;exitPerimeter=0;" parent="1" edge="1">
          <mxGeometry width="50" height="50" relative="1" as="geometry">
            <mxPoint x="160" y="510" as="sourcePoint" />
            <mxPoint x="280" y="510" as="targetPoint" />
          </mxGeometry>
        </mxCell>
        <mxCell id="ozrENfYV2Y0ctqZiUlOy-10" value="&lt;font style=&quot;font-size: 14px;&quot;&gt;&lt;b&gt;enable_9x9&lt;/b&gt;&lt;/font&gt;" style="edgeLabel;html=1;align=center;verticalAlign=middle;resizable=0;points=[];" parent="ozrENfYV2Y0ctqZiUlOy-6" vertex="1" connectable="0">
          <mxGeometry x="-0.0629" relative="1" as="geometry">
            <mxPoint as="offset" />
          </mxGeometry>
        </mxCell>
        <mxCell id="ozrENfYV2Y0ctqZiUlOy-8" value="&lt;b&gt;&lt;font style=&quot;font-size: 14px;&quot;&gt;enable_5x5&lt;/font&gt;&lt;/b&gt;" style="edgeLabel;html=1;align=center;verticalAlign=middle;resizable=0;points=[];" parent="1" vertex="1" connectable="0">
          <mxGeometry x="219.99540402585978" y="448.00067325046325" as="geometry">
            <mxPoint x="2" y="1" as="offset" />
          </mxGeometry>
        </mxCell>
        <mxCell id="ozrENfYV2Y0ctqZiUlOy-11" value="" style="endArrow=classic;html=1;rounded=0;" parent="1" edge="1">
          <mxGeometry width="50" height="50" relative="1" as="geometry">
            <mxPoint x="60" y="380" as="sourcePoint" />
            <mxPoint x="280" y="380" as="targetPoint" />
          </mxGeometry>
        </mxCell>
        <mxCell id="ozrENfYV2Y0ctqZiUlOy-13" value="&lt;b&gt;&lt;font style=&quot;font-size: 14px;&quot;&gt;o_image_bram[9:0]&lt;/font&gt;&lt;/b&gt;" style="edgeLabel;html=1;align=center;verticalAlign=middle;resizable=0;points=[];" parent="ozrENfYV2Y0ctqZiUlOy-11" vertex="1" connectable="0">
          <mxGeometry x="-0.2732" relative="1" as="geometry">
            <mxPoint x="10" as="offset" />
          </mxGeometry>
        </mxCell>
        <mxCell id="ozrENfYV2Y0ctqZiUlOy-14" value="&lt;b&gt;&lt;font style=&quot;font-size: 14px;&quot;&gt;Filter 5x5&lt;/font&gt;&lt;/b&gt;" style="whiteSpace=wrap;html=1;aspect=fixed;" parent="1" vertex="1">
          <mxGeometry x="520" y="340" width="80" height="80" as="geometry" />
        </mxCell>
        <mxCell id="ozrENfYV2Y0ctqZiUlOy-15" value="&lt;b&gt;&lt;font style=&quot;font-size: 14px;&quot;&gt;Filter 3x3&lt;/font&gt;&lt;/b&gt;" style="whiteSpace=wrap;html=1;aspect=fixed;" parent="1" vertex="1">
          <mxGeometry x="520" y="220" width="80" height="80" as="geometry" />
        </mxCell>
        <mxCell id="ozrENfYV2Y0ctqZiUlOy-16" value="&lt;b&gt;&lt;font style=&quot;font-size: 14px;&quot;&gt;Filter 7x7&lt;/font&gt;&lt;/b&gt;" style="whiteSpace=wrap;html=1;aspect=fixed;" parent="1" vertex="1">
          <mxGeometry x="520" y="460" width="80" height="80" as="geometry" />
        </mxCell>
        <mxCell id="ozrENfYV2Y0ctqZiUlOy-17" value="&lt;b&gt;&lt;font style=&quot;font-size: 14px;&quot;&gt;Filter 9x9&lt;/font&gt;&lt;/b&gt;" style="whiteSpace=wrap;html=1;aspect=fixed;" parent="1" vertex="1">
          <mxGeometry x="520" y="580" width="80" height="80" as="geometry" />
        </mxCell>
        <mxCell id="ozrENfYV2Y0ctqZiUlOy-20" value="" style="endArrow=classic;html=1;rounded=0;" parent="1" edge="1">
          <mxGeometry width="50" height="50" relative="1" as="geometry">
            <mxPoint x="300" y="250" as="sourcePoint" />
            <mxPoint x="520" y="250" as="targetPoint" />
          </mxGeometry>
        </mxCell>
        <mxCell id="ozrENfYV2Y0ctqZiUlOy-21" value="&lt;b&gt;&lt;font style=&quot;font-size: 14px;&quot;&gt;o_image_bram[5:3]&lt;/font&gt;&lt;/b&gt;" style="edgeLabel;html=1;align=center;verticalAlign=middle;resizable=0;points=[];" parent="ozrENfYV2Y0ctqZiUlOy-20" vertex="1" connectable="0">
          <mxGeometry x="-0.2732" relative="1" as="geometry">
            <mxPoint x="10" as="offset" />
          </mxGeometry>
        </mxCell>
        <mxCell id="jZfuXEjWKyW9hGCEGI88-1" value="" style="endArrow=classic;html=1;rounded=0;exitX=1.002;exitY=0.168;exitDx=0;exitDy=0;exitPerimeter=0;" parent="1" edge="1">
          <mxGeometry width="50" height="50" relative="1" as="geometry">
            <mxPoint x="400" y="280" as="sourcePoint" />
            <mxPoint x="520" y="280" as="targetPoint" />
          </mxGeometry>
        </mxCell>
        <mxCell id="jZfuXEjWKyW9hGCEGI88-2" value="&lt;b&gt;&lt;font style=&quot;font-size: 14px;&quot;&gt;enable_3x3&lt;/font&gt;&lt;/b&gt;" style="edgeLabel;html=1;align=center;verticalAlign=middle;resizable=0;points=[];" parent="jZfuXEjWKyW9hGCEGI88-1" vertex="1" connectable="0">
          <mxGeometry x="-0.2591" y="1" relative="1" as="geometry">
            <mxPoint x="15" as="offset" />
          </mxGeometry>
        </mxCell>
        <mxCell id="jZfuXEjWKyW9hGCEGI88-9" value="" style="endArrow=classic;html=1;rounded=0;" parent="1" edge="1">
          <mxGeometry width="50" height="50" relative="1" as="geometry">
            <mxPoint x="300" y="360" as="sourcePoint" />
            <mxPoint x="520" y="360" as="targetPoint" />
          </mxGeometry>
        </mxCell>
        <mxCell id="jZfuXEjWKyW9hGCEGI88-10" value="&lt;b&gt;&lt;font style=&quot;font-size: 14px;&quot;&gt;o_image_bram[6:2]&lt;/font&gt;&lt;/b&gt;" style="edgeLabel;html=1;align=center;verticalAlign=middle;resizable=0;points=[];" parent="jZfuXEjWKyW9hGCEGI88-9" vertex="1" connectable="0">
          <mxGeometry x="-0.2732" relative="1" as="geometry">
            <mxPoint x="10" as="offset" />
          </mxGeometry>
        </mxCell>
        <mxCell id="jZfuXEjWKyW9hGCEGI88-11" value="" style="endArrow=classic;html=1;rounded=0;exitX=1.002;exitY=0.168;exitDx=0;exitDy=0;exitPerimeter=0;" parent="1" edge="1">
          <mxGeometry width="50" height="50" relative="1" as="geometry">
            <mxPoint x="400" y="389.69" as="sourcePoint" />
            <mxPoint x="520" y="389.69" as="targetPoint" />
          </mxGeometry>
        </mxCell>
        <mxCell id="jZfuXEjWKyW9hGCEGI88-12" value="&lt;b&gt;&lt;font style=&quot;font-size: 14px;&quot;&gt;enable_5x5&lt;/font&gt;&lt;/b&gt;" style="edgeLabel;html=1;align=center;verticalAlign=middle;resizable=0;points=[];" parent="jZfuXEjWKyW9hGCEGI88-11" vertex="1" connectable="0">
          <mxGeometry x="-0.2591" y="1" relative="1" as="geometry">
            <mxPoint x="15" as="offset" />
          </mxGeometry>
        </mxCell>
        <mxCell id="jZfuXEjWKyW9hGCEGI88-17" value="" style="endArrow=classic;html=1;rounded=0;" parent="1" edge="1">
          <mxGeometry width="50" height="50" relative="1" as="geometry">
            <mxPoint x="300" y="480" as="sourcePoint" />
            <mxPoint x="520" y="480" as="targetPoint" />
          </mxGeometry>
        </mxCell>
        <mxCell id="jZfuXEjWKyW9hGCEGI88-18" value="&lt;b&gt;&lt;font style=&quot;font-size: 14px;&quot;&gt;o_image_bram[7:1]&lt;/font&gt;&lt;/b&gt;" style="edgeLabel;html=1;align=center;verticalAlign=middle;resizable=0;points=[];" parent="jZfuXEjWKyW9hGCEGI88-17" vertex="1" connectable="0">
          <mxGeometry x="-0.2732" relative="1" as="geometry">
            <mxPoint x="10" as="offset" />
          </mxGeometry>
        </mxCell>
        <mxCell id="jZfuXEjWKyW9hGCEGI88-19" value="" style="endArrow=classic;html=1;rounded=0;exitX=1.002;exitY=0.168;exitDx=0;exitDy=0;exitPerimeter=0;" parent="1" edge="1">
          <mxGeometry width="50" height="50" relative="1" as="geometry">
            <mxPoint x="400" y="509.69" as="sourcePoint" />
            <mxPoint x="520" y="509.69" as="targetPoint" />
          </mxGeometry>
        </mxCell>
        <mxCell id="jZfuXEjWKyW9hGCEGI88-20" value="&lt;b&gt;&lt;font style=&quot;font-size: 14px;&quot;&gt;enable_7x7&lt;/font&gt;&lt;/b&gt;" style="edgeLabel;html=1;align=center;verticalAlign=middle;resizable=0;points=[];" parent="jZfuXEjWKyW9hGCEGI88-19" vertex="1" connectable="0">
          <mxGeometry x="-0.2591" y="1" relative="1" as="geometry">
            <mxPoint x="15" as="offset" />
          </mxGeometry>
        </mxCell>
        <mxCell id="jZfuXEjWKyW9hGCEGI88-21" value="" style="endArrow=classic;html=1;rounded=0;" parent="1" edge="1">
          <mxGeometry width="50" height="50" relative="1" as="geometry">
            <mxPoint x="300" y="600" as="sourcePoint" />
            <mxPoint x="520" y="600" as="targetPoint" />
          </mxGeometry>
        </mxCell>
        <mxCell id="jZfuXEjWKyW9hGCEGI88-22" value="&lt;b&gt;&lt;font style=&quot;font-size: 14px;&quot;&gt;o_image_bram[8:0]&lt;/font&gt;&lt;/b&gt;" style="edgeLabel;html=1;align=center;verticalAlign=middle;resizable=0;points=[];" parent="jZfuXEjWKyW9hGCEGI88-21" vertex="1" connectable="0">
          <mxGeometry x="-0.2732" relative="1" as="geometry">
            <mxPoint x="10" as="offset" />
          </mxGeometry>
        </mxCell>
        <mxCell id="jZfuXEjWKyW9hGCEGI88-23" value="" style="endArrow=classic;html=1;rounded=0;exitX=1.002;exitY=0.168;exitDx=0;exitDy=0;exitPerimeter=0;" parent="1" edge="1">
          <mxGeometry width="50" height="50" relative="1" as="geometry">
            <mxPoint x="400" y="629.69" as="sourcePoint" />
            <mxPoint x="520" y="629.69" as="targetPoint" />
          </mxGeometry>
        </mxCell>
        <mxCell id="jZfuXEjWKyW9hGCEGI88-24" value="&lt;b&gt;&lt;font style=&quot;font-size: 14px;&quot;&gt;enable_9x9&lt;/font&gt;&lt;/b&gt;" style="edgeLabel;html=1;align=center;verticalAlign=middle;resizable=0;points=[];" parent="jZfuXEjWKyW9hGCEGI88-23" vertex="1" connectable="0">
          <mxGeometry x="-0.2591" y="1" relative="1" as="geometry">
            <mxPoint x="15" as="offset" />
          </mxGeometry>
        </mxCell>
        <mxCell id="jZfuXEjWKyW9hGCEGI88-25" value="" style="endArrow=classic;html=1;rounded=0;exitX=1;exitY=0.5;exitDx=0;exitDy=0;entryX=0;entryY=0.5;entryDx=0;entryDy=0;" parent="1" source="ozrENfYV2Y0ctqZiUlOy-15" target="jZfuXEjWKyW9hGCEGI88-41" edge="1">
          <mxGeometry width="50" height="50" relative="1" as="geometry">
            <mxPoint x="630" y="260" as="sourcePoint" />
            <mxPoint x="720" y="260" as="targetPoint" />
          </mxGeometry>
        </mxCell>
        <mxCell id="jZfuXEjWKyW9hGCEGI88-26" value="&lt;b&gt;&lt;font style=&quot;font-size: 14px;&quot;&gt;median_3x3&lt;/font&gt;&lt;/b&gt;" style="edgeLabel;html=1;align=center;verticalAlign=middle;resizable=0;points=[];" parent="jZfuXEjWKyW9hGCEGI88-25" vertex="1" connectable="0">
          <mxGeometry x="0.0867" y="-1" relative="1" as="geometry">
            <mxPoint y="-1" as="offset" />
          </mxGeometry>
        </mxCell>
        <mxCell id="jZfuXEjWKyW9hGCEGI88-27" value="" style="endArrow=classic;html=1;rounded=0;exitX=1;exitY=0.5;exitDx=0;exitDy=0;entryX=0;entryY=0.5;entryDx=0;entryDy=0;" parent="1" target="jZfuXEjWKyW9hGCEGI88-40" edge="1">
          <mxGeometry width="50" height="50" relative="1" as="geometry">
            <mxPoint x="600" y="379.57" as="sourcePoint" />
            <mxPoint x="720" y="379.57" as="targetPoint" />
          </mxGeometry>
        </mxCell>
        <mxCell id="jZfuXEjWKyW9hGCEGI88-28" value="&lt;b&gt;&lt;font style=&quot;font-size: 14px;&quot;&gt;median_5x5&lt;/font&gt;&lt;/b&gt;" style="edgeLabel;html=1;align=center;verticalAlign=middle;resizable=0;points=[];" parent="jZfuXEjWKyW9hGCEGI88-27" vertex="1" connectable="0">
          <mxGeometry x="0.0867" y="-1" relative="1" as="geometry">
            <mxPoint y="-1" as="offset" />
          </mxGeometry>
        </mxCell>
        <mxCell id="jZfuXEjWKyW9hGCEGI88-29" value="" style="endArrow=classic;html=1;rounded=0;exitX=1;exitY=0.5;exitDx=0;exitDy=0;entryX=0;entryY=0.5;entryDx=0;entryDy=0;" parent="1" target="jZfuXEjWKyW9hGCEGI88-39" edge="1">
          <mxGeometry width="50" height="50" relative="1" as="geometry">
            <mxPoint x="600" y="499.57" as="sourcePoint" />
            <mxPoint x="720" y="499.57" as="targetPoint" />
          </mxGeometry>
        </mxCell>
        <mxCell id="jZfuXEjWKyW9hGCEGI88-30" value="&lt;b&gt;&lt;font style=&quot;font-size: 14px;&quot;&gt;median_7x7&lt;/font&gt;&lt;/b&gt;" style="edgeLabel;html=1;align=center;verticalAlign=middle;resizable=0;points=[];" parent="jZfuXEjWKyW9hGCEGI88-29" vertex="1" connectable="0">
          <mxGeometry x="0.0867" y="-1" relative="1" as="geometry">
            <mxPoint y="-1" as="offset" />
          </mxGeometry>
        </mxCell>
        <mxCell id="jZfuXEjWKyW9hGCEGI88-31" value="" style="endArrow=classic;html=1;rounded=0;exitX=1;exitY=0.5;exitDx=0;exitDy=0;entryX=-0.041;entryY=0.618;entryDx=0;entryDy=0;entryPerimeter=0;" parent="1" target="jZfuXEjWKyW9hGCEGI88-38" edge="1">
          <mxGeometry width="50" height="50" relative="1" as="geometry">
            <mxPoint x="600" y="619.5699999999999" as="sourcePoint" />
            <mxPoint x="720" y="619.5699999999999" as="targetPoint" />
          </mxGeometry>
        </mxCell>
        <mxCell id="jZfuXEjWKyW9hGCEGI88-32" value="&lt;b&gt;&lt;font style=&quot;font-size: 14px;&quot;&gt;median_9x9&lt;/font&gt;&lt;/b&gt;" style="edgeLabel;html=1;align=center;verticalAlign=middle;resizable=0;points=[];" parent="jZfuXEjWKyW9hGCEGI88-31" vertex="1" connectable="0">
          <mxGeometry x="0.0867" y="-1" relative="1" as="geometry">
            <mxPoint y="-1" as="offset" />
          </mxGeometry>
        </mxCell>
        <mxCell id="jZfuXEjWKyW9hGCEGI88-43" style="edgeStyle=orthogonalEdgeStyle;rounded=0;orthogonalLoop=1;jettySize=auto;html=1;entryX=0.5;entryY=1;entryDx=0;entryDy=0;" parent="1" source="jZfuXEjWKyW9hGCEGI88-33" target="jZfuXEjWKyW9hGCEGI88-38" edge="1">
          <mxGeometry relative="1" as="geometry" />
        </mxCell>
        <mxCell id="jZfuXEjWKyW9hGCEGI88-33" value="&lt;b&gt;&lt;font style=&quot;font-size: 14px;&quot;&gt;Calculate address store&lt;/font&gt;&lt;/b&gt;" style="whiteSpace=wrap;html=1;aspect=fixed;" parent="1" vertex="1">
          <mxGeometry x="680" y="640" width="80" height="80" as="geometry" />
        </mxCell>
        <mxCell id="jZfuXEjWKyW9hGCEGI88-44" style="edgeStyle=orthogonalEdgeStyle;rounded=0;orthogonalLoop=1;jettySize=auto;html=1;exitX=1;exitY=0.5;exitDx=0;exitDy=0;entryX=0.5;entryY=1;entryDx=0;entryDy=0;" parent="1" source="jZfuXEjWKyW9hGCEGI88-34" target="jZfuXEjWKyW9hGCEGI88-39" edge="1">
          <mxGeometry relative="1" as="geometry" />
        </mxCell>
        <mxCell id="jZfuXEjWKyW9hGCEGI88-34" value="&lt;font style=&quot;font-size: 14px;&quot;&gt;&lt;b&gt;Calculate address store&lt;/b&gt;&lt;/font&gt;" style="whiteSpace=wrap;html=1;aspect=fixed;" parent="1" vertex="1">
          <mxGeometry x="680" y="520" width="80" height="80" as="geometry" />
        </mxCell>
        <mxCell id="jZfuXEjWKyW9hGCEGI88-46" style="edgeStyle=orthogonalEdgeStyle;rounded=0;orthogonalLoop=1;jettySize=auto;html=1;entryX=0.5;entryY=1;entryDx=0;entryDy=0;" parent="1" source="jZfuXEjWKyW9hGCEGI88-35" target="jZfuXEjWKyW9hGCEGI88-40" edge="1">
          <mxGeometry relative="1" as="geometry" />
        </mxCell>
        <mxCell id="jZfuXEjWKyW9hGCEGI88-35" value="&lt;b&gt;&lt;font style=&quot;font-size: 14px;&quot;&gt;Calculate address store&lt;/font&gt;&lt;/b&gt;" style="whiteSpace=wrap;html=1;aspect=fixed;" parent="1" vertex="1">
          <mxGeometry x="680" y="400" width="80" height="80" as="geometry" />
        </mxCell>
        <mxCell id="jZfuXEjWKyW9hGCEGI88-47" style="edgeStyle=orthogonalEdgeStyle;rounded=0;orthogonalLoop=1;jettySize=auto;html=1;entryX=0.5;entryY=1;entryDx=0;entryDy=0;" parent="1" source="jZfuXEjWKyW9hGCEGI88-36" target="jZfuXEjWKyW9hGCEGI88-41" edge="1">
          <mxGeometry relative="1" as="geometry" />
        </mxCell>
        <mxCell id="jZfuXEjWKyW9hGCEGI88-36" value="&lt;b&gt;&lt;font style=&quot;font-size: 14px;&quot;&gt;Calculate address store&lt;/font&gt;&lt;/b&gt;" style="whiteSpace=wrap;html=1;aspect=fixed;" parent="1" vertex="1">
          <mxGeometry x="680" y="280" width="80" height="80" as="geometry" />
        </mxCell>
        <mxCell id="jZfuXEjWKyW9hGCEGI88-37" style="edgeStyle=orthogonalEdgeStyle;rounded=0;orthogonalLoop=1;jettySize=auto;html=1;exitX=0.5;exitY=1;exitDx=0;exitDy=0;" parent="1" source="jZfuXEjWKyW9hGCEGI88-33" target="jZfuXEjWKyW9hGCEGI88-33" edge="1">
          <mxGeometry relative="1" as="geometry" />
        </mxCell>
        <mxCell id="jZfuXEjWKyW9hGCEGI88-38" value="&lt;b&gt;&lt;font style=&quot;font-size: 14px;&quot;&gt;Store &amp;amp; hold value&lt;/font&gt;&lt;/b&gt;" style="whiteSpace=wrap;html=1;aspect=fixed;" parent="1" vertex="1">
          <mxGeometry x="800" y="570" width="80" height="80" as="geometry" />
        </mxCell>
        <mxCell id="jZfuXEjWKyW9hGCEGI88-39" value="&lt;b&gt;&lt;font style=&quot;font-size: 14px;&quot;&gt;Store &amp;amp; hold value&lt;/font&gt;&lt;/b&gt;" style="whiteSpace=wrap;html=1;aspect=fixed;" parent="1" vertex="1">
          <mxGeometry x="800" y="460" width="80" height="80" as="geometry" />
        </mxCell>
        <mxCell id="jZfuXEjWKyW9hGCEGI88-40" value="&lt;b&gt;&lt;font style=&quot;font-size: 14px;&quot;&gt;Store &amp;amp; hold value&lt;/font&gt;&lt;/b&gt;" style="whiteSpace=wrap;html=1;aspect=fixed;" parent="1" vertex="1">
          <mxGeometry x="800" y="340" width="80" height="80" as="geometry" />
        </mxCell>
        <mxCell id="jZfuXEjWKyW9hGCEGI88-41" value="&lt;b&gt;&lt;font style=&quot;font-size: 14px;&quot;&gt;Store &amp;amp; hold value&lt;/font&gt;&lt;/b&gt;" style="whiteSpace=wrap;html=1;aspect=fixed;" parent="1" vertex="1">
          <mxGeometry x="800" y="220" width="80" height="80" as="geometry" />
        </mxCell>
      </root>
    </mxGraphModel>
  </diagram>
  <diagram id="qs8b6g4G_AIPjaraI84n" name="median_pre_processing">
    <mxGraphModel dx="1020" dy="544" grid="1" gridSize="10" guides="1" tooltips="1" connect="1" arrows="1" fold="1" page="1" pageScale="1" pageWidth="1169" pageHeight="827" math="0" shadow="0">
      <root>
        <mxCell id="0" />
        <mxCell id="1" parent="0" />
        <mxCell id="r-6EUoqKIeBlCzufxcnx-5" style="edgeStyle=orthogonalEdgeStyle;rounded=0;orthogonalLoop=1;jettySize=auto;html=1;" parent="1" source="r-6EUoqKIeBlCzufxcnx-1" target="r-6EUoqKIeBlCzufxcnx-4" edge="1">
          <mxGeometry relative="1" as="geometry" />
        </mxCell>
        <mxCell id="r-6EUoqKIeBlCzufxcnx-1" value="&lt;b&gt;&lt;font style=&quot;font-size: 14px;&quot;&gt;EN_FIRST_COL&lt;/font&gt;&lt;/b&gt;" style="ellipse;whiteSpace=wrap;html=1;aspect=fixed;" parent="1" vertex="1">
          <mxGeometry x="240" y="260" width="120" height="120" as="geometry" />
        </mxCell>
        <mxCell id="r-6EUoqKIeBlCzufxcnx-3" style="edgeStyle=orthogonalEdgeStyle;rounded=0;orthogonalLoop=1;jettySize=auto;html=1;" parent="1" source="r-6EUoqKIeBlCzufxcnx-2" target="r-6EUoqKIeBlCzufxcnx-1" edge="1">
          <mxGeometry relative="1" as="geometry" />
        </mxCell>
        <mxCell id="r-6EUoqKIeBlCzufxcnx-2" value="&lt;b&gt;&lt;font style=&quot;font-size: 14px;&quot;&gt;IDLE&lt;/font&gt;&lt;/b&gt;" style="ellipse;whiteSpace=wrap;html=1;aspect=fixed;" parent="1" vertex="1">
          <mxGeometry x="40" y="260" width="120" height="120" as="geometry" />
        </mxCell>
        <mxCell id="r-6EUoqKIeBlCzufxcnx-7" style="edgeStyle=orthogonalEdgeStyle;rounded=0;orthogonalLoop=1;jettySize=auto;html=1;exitX=1;exitY=0.5;exitDx=0;exitDy=0;entryX=0;entryY=0.5;entryDx=0;entryDy=0;" parent="1" source="r-6EUoqKIeBlCzufxcnx-4" target="r-6EUoqKIeBlCzufxcnx-6" edge="1">
          <mxGeometry relative="1" as="geometry" />
        </mxCell>
        <mxCell id="r-6EUoqKIeBlCzufxcnx-4" value="&lt;b&gt;&lt;font style=&quot;font-size: 14px;&quot;&gt;EN_COL&lt;/font&gt;&lt;/b&gt;" style="ellipse;whiteSpace=wrap;html=1;aspect=fixed;" parent="1" vertex="1">
          <mxGeometry x="440" y="260" width="120" height="120" as="geometry" />
        </mxCell>
        <mxCell id="r-6EUoqKIeBlCzufxcnx-23" style="edgeStyle=orthogonalEdgeStyle;rounded=0;orthogonalLoop=1;jettySize=auto;html=1;entryX=0.5;entryY=1;entryDx=0;entryDy=0;exitX=0.5;exitY=1;exitDx=0;exitDy=0;curved=1;" parent="1" source="r-6EUoqKIeBlCzufxcnx-6" target="r-6EUoqKIeBlCzufxcnx-1" edge="1">
          <mxGeometry relative="1" as="geometry">
            <mxPoint x="700" y="550" as="targetPoint" />
            <Array as="points">
              <mxPoint x="700" y="500" />
              <mxPoint x="300" y="500" />
            </Array>
          </mxGeometry>
        </mxCell>
        <mxCell id="r-6EUoqKIeBlCzufxcnx-6" value="&lt;b&gt;&lt;font style=&quot;font-size: 14px;&quot;&gt;EN_NEW_ROW&lt;/font&gt;&lt;/b&gt;" style="ellipse;whiteSpace=wrap;html=1;aspect=fixed;" parent="1" vertex="1">
          <mxGeometry x="640" y="260" width="120" height="120" as="geometry" />
        </mxCell>
        <mxCell id="r-6EUoqKIeBlCzufxcnx-12" style="edgeStyle=orthogonalEdgeStyle;rounded=0;orthogonalLoop=1;jettySize=auto;html=1;entryX=0.5;entryY=0;entryDx=0;entryDy=0;exitX=0;exitY=0.5;exitDx=0;exitDy=0;curved=1;" parent="1" source="r-6EUoqKIeBlCzufxcnx-8" target="r-6EUoqKIeBlCzufxcnx-1" edge="1">
          <mxGeometry relative="1" as="geometry" />
        </mxCell>
        <mxCell id="r-6EUoqKIeBlCzufxcnx-8" value="&lt;b&gt;&lt;font style=&quot;font-size: 12px;&quot;&gt;WAIT_NEW_MATRIX&lt;/font&gt;&lt;/b&gt;" style="ellipse;whiteSpace=wrap;html=1;aspect=fixed;" parent="1" vertex="1">
          <mxGeometry x="435" y="50" width="130" height="130" as="geometry" />
        </mxCell>
        <mxCell id="r-6EUoqKIeBlCzufxcnx-11" style="edgeStyle=orthogonalEdgeStyle;rounded=0;orthogonalLoop=1;jettySize=auto;html=1;entryX=1;entryY=0.5;entryDx=0;entryDy=0;exitX=0.5;exitY=0;exitDx=0;exitDy=0;curved=1;" parent="1" source="r-6EUoqKIeBlCzufxcnx-6" target="r-6EUoqKIeBlCzufxcnx-8" edge="1">
          <mxGeometry relative="1" as="geometry" />
        </mxCell>
        <mxCell id="r-6EUoqKIeBlCzufxcnx-20" value="" style="endArrow=classic;html=1;rounded=0;exitX=0;exitY=1;exitDx=0;exitDy=0;entryX=1;entryY=1;entryDx=0;entryDy=0;curved=1;elbow=vertical;" parent="1" source="r-6EUoqKIeBlCzufxcnx-4" target="r-6EUoqKIeBlCzufxcnx-4" edge="1">
          <mxGeometry width="50" height="50" relative="1" as="geometry">
            <mxPoint x="490" y="410" as="sourcePoint" />
            <mxPoint x="540" y="360" as="targetPoint" />
            <Array as="points">
              <mxPoint x="500" y="470" />
            </Array>
          </mxGeometry>
        </mxCell>
        <mxCell id="r-6EUoqKIeBlCzufxcnx-21" value="" style="endArrow=classic;html=1;rounded=0;exitX=0;exitY=1;exitDx=0;exitDy=0;entryX=1;entryY=1;entryDx=0;entryDy=0;curved=1;" parent="1" source="r-6EUoqKIeBlCzufxcnx-8" target="r-6EUoqKIeBlCzufxcnx-8" edge="1">
          <mxGeometry width="50" height="50" relative="1" as="geometry">
            <mxPoint x="450" y="250" as="sourcePoint" />
            <mxPoint x="500" y="200" as="targetPoint" />
            <Array as="points">
              <mxPoint x="500" y="260" />
            </Array>
          </mxGeometry>
        </mxCell>
        <mxCell id="I3txwzuA1NRr3NCQCkrB-1" value="" style="endArrow=classic;html=1;rounded=0;exitX=1;exitY=0;exitDx=0;exitDy=0;entryX=1;entryY=1;entryDx=0;entryDy=0;curved=1;" parent="1" source="r-6EUoqKIeBlCzufxcnx-6" target="r-6EUoqKIeBlCzufxcnx-6" edge="1">
          <mxGeometry width="50" height="50" relative="1" as="geometry">
            <mxPoint x="760" y="250" as="sourcePoint" />
            <mxPoint x="810" y="200" as="targetPoint" />
            <Array as="points">
              <mxPoint x="850" y="320" />
            </Array>
          </mxGeometry>
        </mxCell>
      </root>
    </mxGraphModel>
  </diagram>
  <diagram id="Zuf2RkRdgpT609oAvzU_" name="median_pre_processing_2">
    <mxGraphModel dx="1020" dy="544" grid="1" gridSize="10" guides="1" tooltips="1" connect="1" arrows="1" fold="1" page="1" pageScale="1" pageWidth="1169" pageHeight="827" math="0" shadow="0">
      <root>
        <mxCell id="0" />
        <mxCell id="1" parent="0" />
        <mxCell id="peY2EBaIL32t0VvCY4gv-3" value="" style="edgeStyle=orthogonalEdgeStyle;rounded=0;orthogonalLoop=1;jettySize=auto;html=1;" parent="1" source="peY2EBaIL32t0VvCY4gv-1" target="peY2EBaIL32t0VvCY4gv-2" edge="1">
          <mxGeometry relative="1" as="geometry">
            <Array as="points">
              <mxPoint x="350" y="290" />
              <mxPoint x="350" y="290" />
            </Array>
          </mxGeometry>
        </mxCell>
        <mxCell id="peY2EBaIL32t0VvCY4gv-1" value="&lt;b&gt;&lt;font style=&quot;font-size: 18px;&quot;&gt;WAIT&lt;/font&gt;&lt;/b&gt;" style="ellipse;whiteSpace=wrap;html=1;aspect=fixed;" parent="1" vertex="1">
          <mxGeometry x="130" y="230" width="120" height="120" as="geometry" />
        </mxCell>
        <mxCell id="peY2EBaIL32t0VvCY4gv-4" style="edgeStyle=orthogonalEdgeStyle;rounded=0;orthogonalLoop=1;jettySize=auto;html=1;entryX=0.5;entryY=1;entryDx=0;entryDy=0;exitX=0.5;exitY=1;exitDx=0;exitDy=0;curved=1;" parent="1" source="peY2EBaIL32t0VvCY4gv-2" target="peY2EBaIL32t0VvCY4gv-1" edge="1">
          <mxGeometry relative="1" as="geometry">
            <Array as="points">
              <mxPoint x="410" y="410" />
              <mxPoint x="190" y="410" />
            </Array>
          </mxGeometry>
        </mxCell>
        <mxCell id="peY2EBaIL32t0VvCY4gv-2" value="&lt;b&gt;&lt;font style=&quot;font-size: 18px;&quot;&gt;EN&lt;/font&gt;&lt;/b&gt;" style="ellipse;whiteSpace=wrap;html=1;aspect=fixed;" parent="1" vertex="1">
          <mxGeometry x="350" y="230" width="120" height="120" as="geometry" />
        </mxCell>
        <mxCell id="peY2EBaIL32t0VvCY4gv-6" value="" style="endArrow=classic;html=1;rounded=0;exitX=0;exitY=0;exitDx=0;exitDy=0;entryX=1;entryY=0;entryDx=0;entryDy=0;curved=1;" parent="1" source="peY2EBaIL32t0VvCY4gv-1" target="peY2EBaIL32t0VvCY4gv-1" edge="1">
          <mxGeometry width="50" height="50" relative="1" as="geometry">
            <mxPoint x="380" y="210" as="sourcePoint" />
            <mxPoint x="430" y="160" as="targetPoint" />
            <Array as="points">
              <mxPoint x="190" y="160" />
            </Array>
          </mxGeometry>
        </mxCell>
      </root>
    </mxGraphModel>
  </diagram>
  <diagram id="e5RgDyTqfnw9rAqpmA3M" name="median_filter 3x3">
    <mxGraphModel dx="1020" dy="544" grid="1" gridSize="10" guides="1" tooltips="1" connect="1" arrows="1" fold="1" page="1" pageScale="1" pageWidth="1169" pageHeight="827" math="0" shadow="0">
      <root>
        <mxCell id="0" />
        <mxCell id="1" parent="0" />
        <mxCell id="xV19Ny-AT5WIdTPqe_Rw-18" style="edgeStyle=orthogonalEdgeStyle;rounded=0;orthogonalLoop=1;jettySize=auto;html=1;entryX=0;entryY=0.5;entryDx=0;entryDy=0;" parent="1" source="xV19Ny-AT5WIdTPqe_Rw-1" target="xV19Ny-AT5WIdTPqe_Rw-7" edge="1">
          <mxGeometry relative="1" as="geometry">
            <mxPoint x="349.9999999999999" y="180" as="targetPoint" />
          </mxGeometry>
        </mxCell>
        <mxCell id="xV19Ny-AT5WIdTPqe_Rw-1" value="" style="whiteSpace=wrap;html=1;aspect=fixed;" parent="1" vertex="1">
          <mxGeometry x="200" y="120" width="120" height="120" as="geometry" />
        </mxCell>
        <mxCell id="xV19Ny-AT5WIdTPqe_Rw-3" value="" style="endArrow=none;html=1;rounded=0;entryX=0.661;entryY=0.003;entryDx=0;entryDy=0;entryPerimeter=0;" parent="1" target="xV19Ny-AT5WIdTPqe_Rw-1" edge="1">
          <mxGeometry width="50" height="50" relative="1" as="geometry">
            <mxPoint x="279" y="240" as="sourcePoint" />
            <mxPoint x="330" y="210" as="targetPoint" />
          </mxGeometry>
        </mxCell>
        <mxCell id="xV19Ny-AT5WIdTPqe_Rw-4" value="" style="endArrow=none;html=1;rounded=0;entryX=0.332;entryY=-0.011;entryDx=0;entryDy=0;entryPerimeter=0;exitX=0.324;exitY=1.001;exitDx=0;exitDy=0;exitPerimeter=0;" parent="1" source="xV19Ny-AT5WIdTPqe_Rw-1" target="xV19Ny-AT5WIdTPqe_Rw-1" edge="1">
          <mxGeometry width="50" height="50" relative="1" as="geometry">
            <mxPoint x="280" y="260" as="sourcePoint" />
            <mxPoint x="330" y="210" as="targetPoint" />
          </mxGeometry>
        </mxCell>
        <mxCell id="xV19Ny-AT5WIdTPqe_Rw-5" value="" style="endArrow=none;html=1;rounded=0;entryX=1.007;entryY=0.328;entryDx=0;entryDy=0;entryPerimeter=0;" parent="1" target="xV19Ny-AT5WIdTPqe_Rw-1" edge="1">
          <mxGeometry width="50" height="50" relative="1" as="geometry">
            <mxPoint x="200" y="160" as="sourcePoint" />
            <mxPoint x="320" y="180" as="targetPoint" />
          </mxGeometry>
        </mxCell>
        <mxCell id="xV19Ny-AT5WIdTPqe_Rw-6" value="" style="endArrow=none;html=1;rounded=0;exitX=0.009;exitY=0.332;exitDx=0;exitDy=0;exitPerimeter=0;entryX=1.001;entryY=0.668;entryDx=0;entryDy=0;entryPerimeter=0;" parent="1" target="xV19Ny-AT5WIdTPqe_Rw-1" edge="1">
          <mxGeometry width="50" height="50" relative="1" as="geometry">
            <mxPoint x="200" y="200" as="sourcePoint" />
            <mxPoint x="317" y="200" as="targetPoint" />
          </mxGeometry>
        </mxCell>
        <mxCell id="xV19Ny-AT5WIdTPqe_Rw-7" value="" style="whiteSpace=wrap;html=1;aspect=fixed;" parent="1" vertex="1">
          <mxGeometry x="360" y="119.88" width="120" height="120" as="geometry" />
        </mxCell>
        <mxCell id="xV19Ny-AT5WIdTPqe_Rw-8" value="" style="endArrow=none;html=1;rounded=0;entryX=0.661;entryY=0.003;entryDx=0;entryDy=0;entryPerimeter=0;" parent="1" target="xV19Ny-AT5WIdTPqe_Rw-7" edge="1">
          <mxGeometry width="50" height="50" relative="1" as="geometry">
            <mxPoint x="439" y="239.88" as="sourcePoint" />
            <mxPoint x="490" y="209.88" as="targetPoint" />
          </mxGeometry>
        </mxCell>
        <mxCell id="xV19Ny-AT5WIdTPqe_Rw-9" value="" style="endArrow=none;html=1;rounded=0;entryX=0.332;entryY=-0.011;entryDx=0;entryDy=0;entryPerimeter=0;exitX=0.324;exitY=1.001;exitDx=0;exitDy=0;exitPerimeter=0;" parent="1" source="xV19Ny-AT5WIdTPqe_Rw-7" target="xV19Ny-AT5WIdTPqe_Rw-7" edge="1">
          <mxGeometry width="50" height="50" relative="1" as="geometry">
            <mxPoint x="440" y="259.88" as="sourcePoint" />
            <mxPoint x="490" y="209.88" as="targetPoint" />
          </mxGeometry>
        </mxCell>
        <mxCell id="xV19Ny-AT5WIdTPqe_Rw-10" value="" style="endArrow=none;html=1;rounded=0;entryX=1.007;entryY=0.328;entryDx=0;entryDy=0;entryPerimeter=0;" parent="1" target="xV19Ny-AT5WIdTPqe_Rw-7" edge="1">
          <mxGeometry width="50" height="50" relative="1" as="geometry">
            <mxPoint x="360" y="159.88" as="sourcePoint" />
            <mxPoint x="480" y="179.88" as="targetPoint" />
          </mxGeometry>
        </mxCell>
        <mxCell id="xV19Ny-AT5WIdTPqe_Rw-11" value="" style="endArrow=none;html=1;rounded=0;exitX=0.009;exitY=0.332;exitDx=0;exitDy=0;exitPerimeter=0;entryX=1.001;entryY=0.668;entryDx=0;entryDy=0;entryPerimeter=0;" parent="1" target="xV19Ny-AT5WIdTPqe_Rw-7" edge="1">
          <mxGeometry width="50" height="50" relative="1" as="geometry">
            <mxPoint x="360" y="199.88" as="sourcePoint" />
            <mxPoint x="477" y="199.88" as="targetPoint" />
          </mxGeometry>
        </mxCell>
        <mxCell id="xV19Ny-AT5WIdTPqe_Rw-13" value="" style="endArrow=classic;html=1;rounded=0;fillColor=#f8cecc;strokeColor=#b85450;exitX=0.007;exitY=0.16;exitDx=0;exitDy=0;entryX=0.982;entryY=0.164;entryDx=0;entryDy=0;entryPerimeter=0;exitPerimeter=0;" parent="1" source="xV19Ny-AT5WIdTPqe_Rw-1" target="xV19Ny-AT5WIdTPqe_Rw-1" edge="1">
          <mxGeometry width="50" height="50" relative="1" as="geometry">
            <mxPoint x="270" y="330" as="sourcePoint" />
            <mxPoint x="320" y="280" as="targetPoint" />
          </mxGeometry>
        </mxCell>
        <mxCell id="xV19Ny-AT5WIdTPqe_Rw-14" value="" style="endArrow=classic;html=1;rounded=0;fillColor=#f8cecc;strokeColor=#b85450;exitX=0.007;exitY=0.16;exitDx=0;exitDy=0;entryX=0.982;entryY=0.164;entryDx=0;entryDy=0;entryPerimeter=0;exitPerimeter=0;" parent="1" edge="1">
          <mxGeometry width="50" height="50" relative="1" as="geometry">
            <mxPoint x="200" y="179.38" as="sourcePoint" />
            <mxPoint x="317" y="180.38" as="targetPoint" />
          </mxGeometry>
        </mxCell>
        <mxCell id="xV19Ny-AT5WIdTPqe_Rw-15" value="" style="endArrow=classic;html=1;rounded=0;fillColor=#f8cecc;strokeColor=#b85450;exitX=0.007;exitY=0.16;exitDx=0;exitDy=0;entryX=0.982;entryY=0.164;entryDx=0;entryDy=0;entryPerimeter=0;exitPerimeter=0;" parent="1" edge="1">
          <mxGeometry width="50" height="50" relative="1" as="geometry">
            <mxPoint x="200" y="220" as="sourcePoint" />
            <mxPoint x="317" y="221" as="targetPoint" />
          </mxGeometry>
        </mxCell>
        <mxCell id="xV19Ny-AT5WIdTPqe_Rw-17" value="" style="endArrow=classic;html=1;rounded=0;fillColor=#f8cecc;strokeColor=#b85450;exitX=0.169;exitY=0.01;exitDx=0;exitDy=0;entryX=0.159;entryY=0.99;entryDx=0;entryDy=0;entryPerimeter=0;exitPerimeter=0;" parent="1" edge="1">
          <mxGeometry width="50" height="50" relative="1" as="geometry">
            <mxPoint x="420.5" y="122" as="sourcePoint" />
            <mxPoint x="419.5" y="240" as="targetPoint" />
          </mxGeometry>
        </mxCell>
      </root>
    </mxGraphModel>
  </diagram>
  <diagram id="De9dd0mL-rREomKRnUS5" name="median filter 5x5">
    <mxGraphModel dx="1114" dy="777" grid="1" gridSize="10" guides="1" tooltips="1" connect="1" arrows="1" fold="1" page="1" pageScale="1" pageWidth="1169" pageHeight="827" math="0" shadow="0">
      <root>
        <mxCell id="0" />
        <mxCell id="1" parent="0" />
        <mxCell id="jSXWwVM48Mz3ox0O6Pu5-63" style="edgeStyle=orthogonalEdgeStyle;rounded=0;orthogonalLoop=1;jettySize=auto;html=1;" edge="1" parent="1" source="jSXWwVM48Mz3ox0O6Pu5-1">
          <mxGeometry relative="1" as="geometry">
            <mxPoint x="360" y="180" as="targetPoint" />
          </mxGeometry>
        </mxCell>
        <mxCell id="jSXWwVM48Mz3ox0O6Pu5-1" value="" style="whiteSpace=wrap;html=1;aspect=fixed;" vertex="1" parent="1">
          <mxGeometry x="80" y="80" width="200" height="200" as="geometry" />
        </mxCell>
        <mxCell id="jSXWwVM48Mz3ox0O6Pu5-2" value="" style="endArrow=none;html=1;rounded=0;entryX=0.195;entryY=0;entryDx=0;entryDy=0;entryPerimeter=0;exitX=0.192;exitY=1.005;exitDx=0;exitDy=0;exitPerimeter=0;" edge="1" parent="1" source="jSXWwVM48Mz3ox0O6Pu5-1" target="jSXWwVM48Mz3ox0O6Pu5-1">
          <mxGeometry width="50" height="50" relative="1" as="geometry">
            <mxPoint x="360" y="290" as="sourcePoint" />
            <mxPoint x="410" y="240" as="targetPoint" />
          </mxGeometry>
        </mxCell>
        <mxCell id="jSXWwVM48Mz3ox0O6Pu5-3" value="" style="endArrow=none;html=1;rounded=0;entryX=0.195;entryY=0;entryDx=0;entryDy=0;entryPerimeter=0;exitX=0.192;exitY=1.005;exitDx=0;exitDy=0;exitPerimeter=0;" edge="1" parent="1">
          <mxGeometry width="50" height="50" relative="1" as="geometry">
            <mxPoint x="160" y="281" as="sourcePoint" />
            <mxPoint x="161" y="80" as="targetPoint" />
          </mxGeometry>
        </mxCell>
        <mxCell id="jSXWwVM48Mz3ox0O6Pu5-4" value="" style="endArrow=none;html=1;rounded=0;entryX=0.195;entryY=0;entryDx=0;entryDy=0;entryPerimeter=0;exitX=0.192;exitY=1.005;exitDx=0;exitDy=0;exitPerimeter=0;" edge="1" parent="1">
          <mxGeometry width="50" height="50" relative="1" as="geometry">
            <mxPoint x="200" y="281" as="sourcePoint" />
            <mxPoint x="201" y="80" as="targetPoint" />
          </mxGeometry>
        </mxCell>
        <mxCell id="jSXWwVM48Mz3ox0O6Pu5-5" value="" style="endArrow=none;html=1;rounded=0;entryX=0.195;entryY=0;entryDx=0;entryDy=0;entryPerimeter=0;exitX=0.192;exitY=1.005;exitDx=0;exitDy=0;exitPerimeter=0;" edge="1" parent="1">
          <mxGeometry width="50" height="50" relative="1" as="geometry">
            <mxPoint x="240" y="280" as="sourcePoint" />
            <mxPoint x="241" y="79" as="targetPoint" />
          </mxGeometry>
        </mxCell>
        <mxCell id="jSXWwVM48Mz3ox0O6Pu5-6" value="" style="endArrow=none;html=1;rounded=0;entryX=-0.005;entryY=0.194;entryDx=0;entryDy=0;entryPerimeter=0;exitX=0.997;exitY=0.192;exitDx=0;exitDy=0;exitPerimeter=0;" edge="1" parent="1" source="jSXWwVM48Mz3ox0O6Pu5-1" target="jSXWwVM48Mz3ox0O6Pu5-1">
          <mxGeometry width="50" height="50" relative="1" as="geometry">
            <mxPoint x="340" y="311" as="sourcePoint" />
            <mxPoint x="341" y="110" as="targetPoint" />
          </mxGeometry>
        </mxCell>
        <mxCell id="jSXWwVM48Mz3ox0O6Pu5-7" value="" style="endArrow=none;html=1;rounded=0;entryX=-0.005;entryY=0.194;entryDx=0;entryDy=0;entryPerimeter=0;exitX=0.997;exitY=0.192;exitDx=0;exitDy=0;exitPerimeter=0;" edge="1" parent="1">
          <mxGeometry width="50" height="50" relative="1" as="geometry">
            <mxPoint x="280" y="160" as="sourcePoint" />
            <mxPoint x="80" y="161" as="targetPoint" />
          </mxGeometry>
        </mxCell>
        <mxCell id="jSXWwVM48Mz3ox0O6Pu5-8" value="" style="endArrow=none;html=1;rounded=0;entryX=-0.005;entryY=0.194;entryDx=0;entryDy=0;entryPerimeter=0;exitX=0.997;exitY=0.192;exitDx=0;exitDy=0;exitPerimeter=0;" edge="1" parent="1">
          <mxGeometry width="50" height="50" relative="1" as="geometry">
            <mxPoint x="280" y="200" as="sourcePoint" />
            <mxPoint x="80" y="201" as="targetPoint" />
          </mxGeometry>
        </mxCell>
        <mxCell id="jSXWwVM48Mz3ox0O6Pu5-9" value="" style="endArrow=none;html=1;rounded=0;entryX=-0.005;entryY=0.194;entryDx=0;entryDy=0;entryPerimeter=0;exitX=0.997;exitY=0.192;exitDx=0;exitDy=0;exitPerimeter=0;" edge="1" parent="1">
          <mxGeometry width="50" height="50" relative="1" as="geometry">
            <mxPoint x="280" y="240" as="sourcePoint" />
            <mxPoint x="80" y="241" as="targetPoint" />
          </mxGeometry>
        </mxCell>
        <mxCell id="jSXWwVM48Mz3ox0O6Pu5-10" value="" style="endArrow=classic;html=1;rounded=0;fillColor=#f8cecc;strokeColor=#b85450;exitX=-0.006;exitY=0.1;exitDx=0;exitDy=0;exitPerimeter=0;entryX=1.004;entryY=0.097;entryDx=0;entryDy=0;entryPerimeter=0;" edge="1" parent="1" source="jSXWwVM48Mz3ox0O6Pu5-1" target="jSXWwVM48Mz3ox0O6Pu5-1">
          <mxGeometry width="50" height="50" relative="1" as="geometry">
            <mxPoint x="340" y="330" as="sourcePoint" />
            <mxPoint x="480" y="330" as="targetPoint" />
          </mxGeometry>
        </mxCell>
        <mxCell id="jSXWwVM48Mz3ox0O6Pu5-11" value="" style="endArrow=classic;html=1;rounded=0;fillColor=#f8cecc;strokeColor=#b85450;exitX=-0.006;exitY=0.1;exitDx=0;exitDy=0;exitPerimeter=0;entryX=1.004;entryY=0.097;entryDx=0;entryDy=0;entryPerimeter=0;" edge="1" parent="1">
          <mxGeometry width="50" height="50" relative="1" as="geometry">
            <mxPoint x="78" y="141" as="sourcePoint" />
            <mxPoint x="280" y="140" as="targetPoint" />
          </mxGeometry>
        </mxCell>
        <mxCell id="jSXWwVM48Mz3ox0O6Pu5-12" value="" style="endArrow=classic;html=1;rounded=0;fillColor=#f8cecc;strokeColor=#b85450;exitX=-0.006;exitY=0.1;exitDx=0;exitDy=0;exitPerimeter=0;entryX=1.004;entryY=0.097;entryDx=0;entryDy=0;entryPerimeter=0;" edge="1" parent="1">
          <mxGeometry width="50" height="50" relative="1" as="geometry">
            <mxPoint x="80" y="180.5" as="sourcePoint" />
            <mxPoint x="282" y="179.5" as="targetPoint" />
          </mxGeometry>
        </mxCell>
        <mxCell id="jSXWwVM48Mz3ox0O6Pu5-13" value="" style="endArrow=classic;html=1;rounded=0;fillColor=#f8cecc;strokeColor=#b85450;exitX=-0.006;exitY=0.1;exitDx=0;exitDy=0;exitPerimeter=0;entryX=1.004;entryY=0.097;entryDx=0;entryDy=0;entryPerimeter=0;" edge="1" parent="1">
          <mxGeometry width="50" height="50" relative="1" as="geometry">
            <mxPoint x="80" y="221" as="sourcePoint" />
            <mxPoint x="282" y="220" as="targetPoint" />
          </mxGeometry>
        </mxCell>
        <mxCell id="jSXWwVM48Mz3ox0O6Pu5-14" value="" style="endArrow=classic;html=1;rounded=0;fillColor=#f8cecc;strokeColor=#b85450;exitX=-0.006;exitY=0.1;exitDx=0;exitDy=0;exitPerimeter=0;entryX=1.004;entryY=0.097;entryDx=0;entryDy=0;entryPerimeter=0;" edge="1" parent="1">
          <mxGeometry width="50" height="50" relative="1" as="geometry">
            <mxPoint x="78" y="261" as="sourcePoint" />
            <mxPoint x="280" y="260" as="targetPoint" />
          </mxGeometry>
        </mxCell>
        <mxCell id="jSXWwVM48Mz3ox0O6Pu5-64" style="edgeStyle=orthogonalEdgeStyle;rounded=0;orthogonalLoop=1;jettySize=auto;html=1;exitX=1;exitY=0.5;exitDx=0;exitDy=0;" edge="1" parent="1" source="jSXWwVM48Mz3ox0O6Pu5-15">
          <mxGeometry relative="1" as="geometry">
            <mxPoint x="640" y="180.04347826086962" as="targetPoint" />
          </mxGeometry>
        </mxCell>
        <mxCell id="jSXWwVM48Mz3ox0O6Pu5-15" value="" style="whiteSpace=wrap;html=1;aspect=fixed;" vertex="1" parent="1">
          <mxGeometry x="361" y="80" width="200" height="200" as="geometry" />
        </mxCell>
        <mxCell id="jSXWwVM48Mz3ox0O6Pu5-16" value="" style="endArrow=none;html=1;rounded=0;entryX=0.195;entryY=0;entryDx=0;entryDy=0;entryPerimeter=0;exitX=0.192;exitY=1.005;exitDx=0;exitDy=0;exitPerimeter=0;" edge="1" parent="1" source="jSXWwVM48Mz3ox0O6Pu5-15" target="jSXWwVM48Mz3ox0O6Pu5-15">
          <mxGeometry width="50" height="50" relative="1" as="geometry">
            <mxPoint x="641" y="290" as="sourcePoint" />
            <mxPoint x="691" y="240" as="targetPoint" />
          </mxGeometry>
        </mxCell>
        <mxCell id="jSXWwVM48Mz3ox0O6Pu5-17" value="" style="endArrow=none;html=1;rounded=0;entryX=0.195;entryY=0;entryDx=0;entryDy=0;entryPerimeter=0;exitX=0.192;exitY=1.005;exitDx=0;exitDy=0;exitPerimeter=0;" edge="1" parent="1">
          <mxGeometry width="50" height="50" relative="1" as="geometry">
            <mxPoint x="441" y="281" as="sourcePoint" />
            <mxPoint x="442" y="80" as="targetPoint" />
          </mxGeometry>
        </mxCell>
        <mxCell id="jSXWwVM48Mz3ox0O6Pu5-18" value="" style="endArrow=none;html=1;rounded=0;entryX=0.195;entryY=0;entryDx=0;entryDy=0;entryPerimeter=0;exitX=0.192;exitY=1.005;exitDx=0;exitDy=0;exitPerimeter=0;" edge="1" parent="1">
          <mxGeometry width="50" height="50" relative="1" as="geometry">
            <mxPoint x="481" y="281" as="sourcePoint" />
            <mxPoint x="482" y="80" as="targetPoint" />
          </mxGeometry>
        </mxCell>
        <mxCell id="jSXWwVM48Mz3ox0O6Pu5-19" value="" style="endArrow=none;html=1;rounded=0;entryX=0.195;entryY=0;entryDx=0;entryDy=0;entryPerimeter=0;exitX=0.192;exitY=1.005;exitDx=0;exitDy=0;exitPerimeter=0;" edge="1" parent="1">
          <mxGeometry width="50" height="50" relative="1" as="geometry">
            <mxPoint x="521" y="280" as="sourcePoint" />
            <mxPoint x="522" y="79" as="targetPoint" />
          </mxGeometry>
        </mxCell>
        <mxCell id="jSXWwVM48Mz3ox0O6Pu5-20" value="" style="endArrow=none;html=1;rounded=0;entryX=-0.005;entryY=0.194;entryDx=0;entryDy=0;entryPerimeter=0;exitX=0.997;exitY=0.192;exitDx=0;exitDy=0;exitPerimeter=0;" edge="1" parent="1" source="jSXWwVM48Mz3ox0O6Pu5-15" target="jSXWwVM48Mz3ox0O6Pu5-15">
          <mxGeometry width="50" height="50" relative="1" as="geometry">
            <mxPoint x="621" y="311" as="sourcePoint" />
            <mxPoint x="622" y="110" as="targetPoint" />
          </mxGeometry>
        </mxCell>
        <mxCell id="jSXWwVM48Mz3ox0O6Pu5-21" value="" style="endArrow=none;html=1;rounded=0;entryX=-0.005;entryY=0.194;entryDx=0;entryDy=0;entryPerimeter=0;exitX=0.997;exitY=0.192;exitDx=0;exitDy=0;exitPerimeter=0;" edge="1" parent="1">
          <mxGeometry width="50" height="50" relative="1" as="geometry">
            <mxPoint x="561" y="160" as="sourcePoint" />
            <mxPoint x="361" y="161" as="targetPoint" />
          </mxGeometry>
        </mxCell>
        <mxCell id="jSXWwVM48Mz3ox0O6Pu5-22" value="" style="endArrow=none;html=1;rounded=0;entryX=-0.005;entryY=0.194;entryDx=0;entryDy=0;entryPerimeter=0;exitX=0.997;exitY=0.192;exitDx=0;exitDy=0;exitPerimeter=0;" edge="1" parent="1">
          <mxGeometry width="50" height="50" relative="1" as="geometry">
            <mxPoint x="561" y="200" as="sourcePoint" />
            <mxPoint x="361" y="201" as="targetPoint" />
          </mxGeometry>
        </mxCell>
        <mxCell id="jSXWwVM48Mz3ox0O6Pu5-23" value="" style="endArrow=none;html=1;rounded=0;entryX=-0.005;entryY=0.194;entryDx=0;entryDy=0;entryPerimeter=0;exitX=0.997;exitY=0.192;exitDx=0;exitDy=0;exitPerimeter=0;" edge="1" parent="1">
          <mxGeometry width="50" height="50" relative="1" as="geometry">
            <mxPoint x="561" y="240" as="sourcePoint" />
            <mxPoint x="361" y="241" as="targetPoint" />
          </mxGeometry>
        </mxCell>
        <mxCell id="jSXWwVM48Mz3ox0O6Pu5-30" value="" style="endArrow=classic;html=1;rounded=0;fillColor=#f8cecc;strokeColor=#b85450;exitX=0.093;exitY=-0.001;exitDx=0;exitDy=0;exitPerimeter=0;entryX=0.093;entryY=1.004;entryDx=0;entryDy=0;entryPerimeter=0;" edge="1" parent="1" source="jSXWwVM48Mz3ox0O6Pu5-15" target="jSXWwVM48Mz3ox0O6Pu5-15">
          <mxGeometry width="50" height="50" relative="1" as="geometry">
            <mxPoint x="320" y="321" as="sourcePoint" />
            <mxPoint x="522" y="320" as="targetPoint" />
          </mxGeometry>
        </mxCell>
        <mxCell id="jSXWwVM48Mz3ox0O6Pu5-31" value="" style="endArrow=classic;html=1;rounded=0;fillColor=#f8cecc;strokeColor=#b85450;exitX=0.093;exitY=-0.001;exitDx=0;exitDy=0;exitPerimeter=0;entryX=0.093;entryY=1.004;entryDx=0;entryDy=0;entryPerimeter=0;" edge="1" parent="1">
          <mxGeometry width="50" height="50" relative="1" as="geometry">
            <mxPoint x="420" y="79" as="sourcePoint" />
            <mxPoint x="420" y="280" as="targetPoint" />
          </mxGeometry>
        </mxCell>
        <mxCell id="jSXWwVM48Mz3ox0O6Pu5-32" value="" style="endArrow=classic;html=1;rounded=0;fillColor=#f8cecc;strokeColor=#b85450;exitX=0.093;exitY=-0.001;exitDx=0;exitDy=0;exitPerimeter=0;entryX=0.093;entryY=1.004;entryDx=0;entryDy=0;entryPerimeter=0;" edge="1" parent="1">
          <mxGeometry width="50" height="50" relative="1" as="geometry">
            <mxPoint x="460.7" y="80" as="sourcePoint" />
            <mxPoint x="460.7" y="281" as="targetPoint" />
          </mxGeometry>
        </mxCell>
        <mxCell id="jSXWwVM48Mz3ox0O6Pu5-33" value="" style="endArrow=classic;html=1;rounded=0;fillColor=#f8cecc;strokeColor=#b85450;exitX=0.093;exitY=-0.001;exitDx=0;exitDy=0;exitPerimeter=0;entryX=0.093;entryY=1.004;entryDx=0;entryDy=0;entryPerimeter=0;" edge="1" parent="1">
          <mxGeometry width="50" height="50" relative="1" as="geometry">
            <mxPoint x="500" y="79" as="sourcePoint" />
            <mxPoint x="500" y="280" as="targetPoint" />
          </mxGeometry>
        </mxCell>
        <mxCell id="jSXWwVM48Mz3ox0O6Pu5-34" value="" style="endArrow=classic;html=1;rounded=0;fillColor=#f8cecc;strokeColor=#b85450;exitX=0.093;exitY=-0.001;exitDx=0;exitDy=0;exitPerimeter=0;entryX=0.093;entryY=1.004;entryDx=0;entryDy=0;entryPerimeter=0;" edge="1" parent="1">
          <mxGeometry width="50" height="50" relative="1" as="geometry">
            <mxPoint x="540" y="79" as="sourcePoint" />
            <mxPoint x="540" y="280" as="targetPoint" />
          </mxGeometry>
        </mxCell>
        <mxCell id="jSXWwVM48Mz3ox0O6Pu5-65" style="edgeStyle=orthogonalEdgeStyle;rounded=0;orthogonalLoop=1;jettySize=auto;html=1;entryX=0.5;entryY=0;entryDx=0;entryDy=0;exitX=0.5;exitY=1;exitDx=0;exitDy=0;" edge="1" parent="1" source="jSXWwVM48Mz3ox0O6Pu5-35" target="jSXWwVM48Mz3ox0O6Pu5-51">
          <mxGeometry relative="1" as="geometry" />
        </mxCell>
        <mxCell id="jSXWwVM48Mz3ox0O6Pu5-35" value="" style="whiteSpace=wrap;html=1;aspect=fixed;" vertex="1" parent="1">
          <mxGeometry x="641" y="81" width="200" height="200" as="geometry" />
        </mxCell>
        <mxCell id="jSXWwVM48Mz3ox0O6Pu5-36" value="" style="endArrow=none;html=1;rounded=0;entryX=0.195;entryY=0;entryDx=0;entryDy=0;entryPerimeter=0;exitX=0.192;exitY=1.005;exitDx=0;exitDy=0;exitPerimeter=0;" edge="1" parent="1" source="jSXWwVM48Mz3ox0O6Pu5-35" target="jSXWwVM48Mz3ox0O6Pu5-35">
          <mxGeometry width="50" height="50" relative="1" as="geometry">
            <mxPoint x="921" y="291" as="sourcePoint" />
            <mxPoint x="971" y="241" as="targetPoint" />
          </mxGeometry>
        </mxCell>
        <mxCell id="jSXWwVM48Mz3ox0O6Pu5-37" value="" style="endArrow=none;html=1;rounded=0;entryX=0.195;entryY=0;entryDx=0;entryDy=0;entryPerimeter=0;exitX=0.192;exitY=1.005;exitDx=0;exitDy=0;exitPerimeter=0;" edge="1" parent="1">
          <mxGeometry width="50" height="50" relative="1" as="geometry">
            <mxPoint x="721" y="282" as="sourcePoint" />
            <mxPoint x="722" y="81" as="targetPoint" />
          </mxGeometry>
        </mxCell>
        <mxCell id="jSXWwVM48Mz3ox0O6Pu5-38" value="" style="endArrow=none;html=1;rounded=0;entryX=0.195;entryY=0;entryDx=0;entryDy=0;entryPerimeter=0;exitX=0.192;exitY=1.005;exitDx=0;exitDy=0;exitPerimeter=0;" edge="1" parent="1">
          <mxGeometry width="50" height="50" relative="1" as="geometry">
            <mxPoint x="761" y="282" as="sourcePoint" />
            <mxPoint x="762" y="81" as="targetPoint" />
          </mxGeometry>
        </mxCell>
        <mxCell id="jSXWwVM48Mz3ox0O6Pu5-39" value="" style="endArrow=none;html=1;rounded=0;entryX=0.195;entryY=0;entryDx=0;entryDy=0;entryPerimeter=0;exitX=0.192;exitY=1.005;exitDx=0;exitDy=0;exitPerimeter=0;" edge="1" parent="1">
          <mxGeometry width="50" height="50" relative="1" as="geometry">
            <mxPoint x="801" y="281" as="sourcePoint" />
            <mxPoint x="802" y="80" as="targetPoint" />
          </mxGeometry>
        </mxCell>
        <mxCell id="jSXWwVM48Mz3ox0O6Pu5-40" value="" style="endArrow=none;html=1;rounded=0;entryX=-0.005;entryY=0.194;entryDx=0;entryDy=0;entryPerimeter=0;exitX=0.997;exitY=0.192;exitDx=0;exitDy=0;exitPerimeter=0;" edge="1" parent="1" source="jSXWwVM48Mz3ox0O6Pu5-35" target="jSXWwVM48Mz3ox0O6Pu5-35">
          <mxGeometry width="50" height="50" relative="1" as="geometry">
            <mxPoint x="901" y="312" as="sourcePoint" />
            <mxPoint x="902" y="111" as="targetPoint" />
          </mxGeometry>
        </mxCell>
        <mxCell id="jSXWwVM48Mz3ox0O6Pu5-41" value="" style="endArrow=none;html=1;rounded=0;entryX=-0.005;entryY=0.194;entryDx=0;entryDy=0;entryPerimeter=0;exitX=0.997;exitY=0.192;exitDx=0;exitDy=0;exitPerimeter=0;" edge="1" parent="1">
          <mxGeometry width="50" height="50" relative="1" as="geometry">
            <mxPoint x="841" y="161" as="sourcePoint" />
            <mxPoint x="641" y="162" as="targetPoint" />
          </mxGeometry>
        </mxCell>
        <mxCell id="jSXWwVM48Mz3ox0O6Pu5-42" value="" style="endArrow=none;html=1;rounded=0;entryX=-0.005;entryY=0.194;entryDx=0;entryDy=0;entryPerimeter=0;exitX=0.997;exitY=0.192;exitDx=0;exitDy=0;exitPerimeter=0;" edge="1" parent="1">
          <mxGeometry width="50" height="50" relative="1" as="geometry">
            <mxPoint x="841" y="201" as="sourcePoint" />
            <mxPoint x="641" y="202" as="targetPoint" />
          </mxGeometry>
        </mxCell>
        <mxCell id="jSXWwVM48Mz3ox0O6Pu5-43" value="" style="endArrow=none;html=1;rounded=0;entryX=-0.005;entryY=0.194;entryDx=0;entryDy=0;entryPerimeter=0;exitX=0.997;exitY=0.192;exitDx=0;exitDy=0;exitPerimeter=0;" edge="1" parent="1">
          <mxGeometry width="50" height="50" relative="1" as="geometry">
            <mxPoint x="841" y="241" as="sourcePoint" />
            <mxPoint x="641" y="242" as="targetPoint" />
          </mxGeometry>
        </mxCell>
        <mxCell id="jSXWwVM48Mz3ox0O6Pu5-48" value="" style="endArrow=classic;html=1;rounded=0;fillColor=#f8cecc;strokeColor=#b85450;exitX=0;exitY=1;exitDx=0;exitDy=0;entryX=1;entryY=0;entryDx=0;entryDy=0;" edge="1" parent="1" source="jSXWwVM48Mz3ox0O6Pu5-35" target="jSXWwVM48Mz3ox0O6Pu5-35">
          <mxGeometry width="50" height="50" relative="1" as="geometry">
            <mxPoint x="820" y="80" as="sourcePoint" />
            <mxPoint x="820" y="281" as="targetPoint" />
          </mxGeometry>
        </mxCell>
        <mxCell id="jSXWwVM48Mz3ox0O6Pu5-49" value="" style="endArrow=classic;html=1;rounded=0;fillColor=#f8cecc;strokeColor=#b85450;exitX=0.195;exitY=1.003;exitDx=0;exitDy=0;entryX=0.992;entryY=0.201;entryDx=0;entryDy=0;exitPerimeter=0;entryPerimeter=0;" edge="1" parent="1" source="jSXWwVM48Mz3ox0O6Pu5-35" target="jSXWwVM48Mz3ox0O6Pu5-35">
          <mxGeometry width="50" height="50" relative="1" as="geometry">
            <mxPoint x="651" y="291" as="sourcePoint" />
            <mxPoint x="851" y="91" as="targetPoint" />
          </mxGeometry>
        </mxCell>
        <mxCell id="jSXWwVM48Mz3ox0O6Pu5-50" value="" style="endArrow=classic;html=1;rounded=0;fillColor=#f8cecc;strokeColor=#b85450;exitX=0.195;exitY=1.003;exitDx=0;exitDy=0;entryX=0.992;entryY=0.201;entryDx=0;entryDy=0;exitPerimeter=0;entryPerimeter=0;" edge="1" parent="1">
          <mxGeometry width="50" height="50" relative="1" as="geometry">
            <mxPoint x="641" y="242" as="sourcePoint" />
            <mxPoint x="800" y="81" as="targetPoint" />
          </mxGeometry>
        </mxCell>
        <mxCell id="jSXWwVM48Mz3ox0O6Pu5-51" value="" style="whiteSpace=wrap;html=1;aspect=fixed;" vertex="1" parent="1">
          <mxGeometry x="80" y="361" width="200" height="200" as="geometry" />
        </mxCell>
        <mxCell id="jSXWwVM48Mz3ox0O6Pu5-52" value="" style="endArrow=none;html=1;rounded=0;entryX=0.195;entryY=0;entryDx=0;entryDy=0;entryPerimeter=0;exitX=0.192;exitY=1.005;exitDx=0;exitDy=0;exitPerimeter=0;" edge="1" parent="1" source="jSXWwVM48Mz3ox0O6Pu5-51" target="jSXWwVM48Mz3ox0O6Pu5-51">
          <mxGeometry width="50" height="50" relative="1" as="geometry">
            <mxPoint x="360" y="571" as="sourcePoint" />
            <mxPoint x="410" y="521" as="targetPoint" />
          </mxGeometry>
        </mxCell>
        <mxCell id="jSXWwVM48Mz3ox0O6Pu5-53" value="" style="endArrow=none;html=1;rounded=0;entryX=0.195;entryY=0;entryDx=0;entryDy=0;entryPerimeter=0;exitX=0.192;exitY=1.005;exitDx=0;exitDy=0;exitPerimeter=0;" edge="1" parent="1">
          <mxGeometry width="50" height="50" relative="1" as="geometry">
            <mxPoint x="160" y="562" as="sourcePoint" />
            <mxPoint x="161" y="361" as="targetPoint" />
          </mxGeometry>
        </mxCell>
        <mxCell id="jSXWwVM48Mz3ox0O6Pu5-54" value="" style="endArrow=none;html=1;rounded=0;entryX=0.195;entryY=0;entryDx=0;entryDy=0;entryPerimeter=0;exitX=0.192;exitY=1.005;exitDx=0;exitDy=0;exitPerimeter=0;" edge="1" parent="1">
          <mxGeometry width="50" height="50" relative="1" as="geometry">
            <mxPoint x="200" y="562" as="sourcePoint" />
            <mxPoint x="201" y="361" as="targetPoint" />
          </mxGeometry>
        </mxCell>
        <mxCell id="jSXWwVM48Mz3ox0O6Pu5-55" value="" style="endArrow=none;html=1;rounded=0;entryX=0.195;entryY=0;entryDx=0;entryDy=0;entryPerimeter=0;exitX=0.192;exitY=1.005;exitDx=0;exitDy=0;exitPerimeter=0;" edge="1" parent="1">
          <mxGeometry width="50" height="50" relative="1" as="geometry">
            <mxPoint x="240" y="561" as="sourcePoint" />
            <mxPoint x="241" y="360" as="targetPoint" />
          </mxGeometry>
        </mxCell>
        <mxCell id="jSXWwVM48Mz3ox0O6Pu5-56" value="" style="endArrow=none;html=1;rounded=0;entryX=-0.005;entryY=0.194;entryDx=0;entryDy=0;entryPerimeter=0;exitX=0.997;exitY=0.192;exitDx=0;exitDy=0;exitPerimeter=0;" edge="1" parent="1" source="jSXWwVM48Mz3ox0O6Pu5-51" target="jSXWwVM48Mz3ox0O6Pu5-51">
          <mxGeometry width="50" height="50" relative="1" as="geometry">
            <mxPoint x="340" y="592" as="sourcePoint" />
            <mxPoint x="341" y="391" as="targetPoint" />
          </mxGeometry>
        </mxCell>
        <mxCell id="jSXWwVM48Mz3ox0O6Pu5-57" value="" style="endArrow=none;html=1;rounded=0;entryX=-0.005;entryY=0.194;entryDx=0;entryDy=0;entryPerimeter=0;exitX=0.997;exitY=0.192;exitDx=0;exitDy=0;exitPerimeter=0;" edge="1" parent="1">
          <mxGeometry width="50" height="50" relative="1" as="geometry">
            <mxPoint x="280" y="441" as="sourcePoint" />
            <mxPoint x="80" y="442" as="targetPoint" />
          </mxGeometry>
        </mxCell>
        <mxCell id="jSXWwVM48Mz3ox0O6Pu5-58" value="" style="endArrow=none;html=1;rounded=0;entryX=-0.005;entryY=0.194;entryDx=0;entryDy=0;entryPerimeter=0;exitX=0.997;exitY=0.192;exitDx=0;exitDy=0;exitPerimeter=0;" edge="1" parent="1">
          <mxGeometry width="50" height="50" relative="1" as="geometry">
            <mxPoint x="280" y="481" as="sourcePoint" />
            <mxPoint x="80" y="482" as="targetPoint" />
          </mxGeometry>
        </mxCell>
        <mxCell id="jSXWwVM48Mz3ox0O6Pu5-59" value="" style="endArrow=none;html=1;rounded=0;entryX=-0.005;entryY=0.194;entryDx=0;entryDy=0;entryPerimeter=0;exitX=0.997;exitY=0.192;exitDx=0;exitDy=0;exitPerimeter=0;" edge="1" parent="1">
          <mxGeometry width="50" height="50" relative="1" as="geometry">
            <mxPoint x="280" y="521" as="sourcePoint" />
            <mxPoint x="80" y="522" as="targetPoint" />
          </mxGeometry>
        </mxCell>
        <mxCell id="jSXWwVM48Mz3ox0O6Pu5-60" value="" style="endArrow=classic;html=1;rounded=0;fillColor=#f8cecc;strokeColor=#b85450;exitX=0.015;exitY=0.719;exitDx=0;exitDy=0;entryX=0.99;entryY=0.214;entryDx=0;entryDy=0;exitPerimeter=0;entryPerimeter=0;" edge="1" parent="1" source="jSXWwVM48Mz3ox0O6Pu5-51" target="jSXWwVM48Mz3ox0O6Pu5-51">
          <mxGeometry width="50" height="50" relative="1" as="geometry">
            <mxPoint x="259" y="360" as="sourcePoint" />
            <mxPoint x="259" y="561" as="targetPoint" />
          </mxGeometry>
        </mxCell>
      </root>
    </mxGraphModel>
  </diagram>
  <diagram id="8f7ZsdAHNoC1IR_lqFbL" name="calculate address">
    <mxGraphModel dx="918" dy="640" grid="1" gridSize="10" guides="1" tooltips="1" connect="1" arrows="1" fold="1" page="1" pageScale="1" pageWidth="1169" pageHeight="827" math="0" shadow="0">
      <root>
        <mxCell id="0" />
        <mxCell id="1" parent="0" />
        <mxCell id="s8nKksNPSgX0H1lGTMog-3" style="edgeStyle=orthogonalEdgeStyle;rounded=0;orthogonalLoop=1;jettySize=auto;html=1;entryX=0;entryY=0.5;entryDx=0;entryDy=0;" edge="1" parent="1" source="s8nKksNPSgX0H1lGTMog-1" target="s8nKksNPSgX0H1lGTMog-2">
          <mxGeometry relative="1" as="geometry" />
        </mxCell>
        <mxCell id="s8nKksNPSgX0H1lGTMog-1" value="" style="whiteSpace=wrap;html=1;aspect=fixed;" vertex="1" parent="1">
          <mxGeometry x="80" y="80" width="40" height="40" as="geometry" />
        </mxCell>
        <mxCell id="s8nKksNPSgX0H1lGTMog-5" style="edgeStyle=orthogonalEdgeStyle;rounded=0;orthogonalLoop=1;jettySize=auto;html=1;entryX=0.5;entryY=0;entryDx=0;entryDy=0;exitX=0.5;exitY=1;exitDx=0;exitDy=0;" edge="1" parent="1" source="s8nKksNPSgX0H1lGTMog-2" target="s8nKksNPSgX0H1lGTMog-4">
          <mxGeometry relative="1" as="geometry" />
        </mxCell>
        <mxCell id="s8nKksNPSgX0H1lGTMog-2" value="" style="whiteSpace=wrap;html=1;aspect=fixed;" vertex="1" parent="1">
          <mxGeometry x="160" y="80" width="40" height="40" as="geometry" />
        </mxCell>
        <mxCell id="s8nKksNPSgX0H1lGTMog-7" value="" style="edgeStyle=orthogonalEdgeStyle;rounded=0;orthogonalLoop=1;jettySize=auto;html=1;" edge="1" parent="1" source="s8nKksNPSgX0H1lGTMog-4" target="s8nKksNPSgX0H1lGTMog-6">
          <mxGeometry relative="1" as="geometry">
            <Array as="points">
              <mxPoint x="160" y="180" />
              <mxPoint x="160" y="180" />
            </Array>
          </mxGeometry>
        </mxCell>
        <mxCell id="s8nKksNPSgX0H1lGTMog-4" value="" style="whiteSpace=wrap;html=1;aspect=fixed;" vertex="1" parent="1">
          <mxGeometry x="80" y="160" width="40" height="40" as="geometry" />
        </mxCell>
        <mxCell id="s8nKksNPSgX0H1lGTMog-6" value="" style="whiteSpace=wrap;html=1;aspect=fixed;" vertex="1" parent="1">
          <mxGeometry x="160" y="160" width="40" height="40" as="geometry" />
        </mxCell>
        <mxCell id="s8nKksNPSgX0H1lGTMog-9" value="5x5 address cal" style="swimlane;fontStyle=0;childLayout=stackLayout;horizontal=1;startSize=26;fillColor=none;horizontalStack=0;resizeParent=1;resizeParentMax=0;resizeLast=0;collapsible=1;marginBottom=0;whiteSpace=wrap;html=1;" vertex="1" parent="1">
          <mxGeometry x="60" y="42" width="160" height="188" as="geometry" />
        </mxCell>
      </root>
    </mxGraphModel>
  </diagram>
  <diagram id="DZb2DGAIE_biiFl0NfVW" name="calculate address 2 ">
    <mxGraphModel dx="1020" dy="544" grid="1" gridSize="10" guides="1" tooltips="1" connect="1" arrows="1" fold="1" page="1" pageScale="1" pageWidth="1169" pageHeight="827" math="0" shadow="0">
      <root>
        <mxCell id="0" />
        <mxCell id="1" parent="0" />
        <mxCell id="ZNmCVV18uNa8C35vwXip-1" style="edgeStyle=orthogonalEdgeStyle;rounded=0;orthogonalLoop=1;jettySize=auto;html=1;entryX=0;entryY=0.5;entryDx=0;entryDy=0;" parent="1" source="ZNmCVV18uNa8C35vwXip-2" target="ZNmCVV18uNa8C35vwXip-4" edge="1">
          <mxGeometry relative="1" as="geometry" />
        </mxCell>
        <mxCell id="ZNmCVV18uNa8C35vwXip-2" value="" style="whiteSpace=wrap;html=1;aspect=fixed;" parent="1" vertex="1">
          <mxGeometry x="360" y="80" width="40" height="40" as="geometry" />
        </mxCell>
        <mxCell id="ZNmCVV18uNa8C35vwXip-3" style="edgeStyle=orthogonalEdgeStyle;rounded=0;orthogonalLoop=1;jettySize=auto;html=1;entryX=0.5;entryY=0;entryDx=0;entryDy=0;exitX=0.5;exitY=1;exitDx=0;exitDy=0;" parent="1" source="ZNmCVV18uNa8C35vwXip-4" target="ZNmCVV18uNa8C35vwXip-6" edge="1">
          <mxGeometry relative="1" as="geometry" />
        </mxCell>
        <mxCell id="ZNmCVV18uNa8C35vwXip-4" value="" style="whiteSpace=wrap;html=1;aspect=fixed;" parent="1" vertex="1">
          <mxGeometry x="440" y="80" width="40" height="40" as="geometry" />
        </mxCell>
        <mxCell id="ZNmCVV18uNa8C35vwXip-5" value="" style="edgeStyle=orthogonalEdgeStyle;rounded=0;orthogonalLoop=1;jettySize=auto;html=1;" parent="1" source="ZNmCVV18uNa8C35vwXip-6" target="ZNmCVV18uNa8C35vwXip-7" edge="1">
          <mxGeometry relative="1" as="geometry">
            <Array as="points">
              <mxPoint x="440" y="180" />
              <mxPoint x="440" y="180" />
            </Array>
          </mxGeometry>
        </mxCell>
        <mxCell id="ZNmCVV18uNa8C35vwXip-6" value="" style="whiteSpace=wrap;html=1;aspect=fixed;" parent="1" vertex="1">
          <mxGeometry x="360" y="160" width="40" height="40" as="geometry" />
        </mxCell>
        <mxCell id="ZNmCVV18uNa8C35vwXip-7" value="" style="whiteSpace=wrap;html=1;aspect=fixed;" parent="1" vertex="1">
          <mxGeometry x="440" y="160" width="40" height="40" as="geometry" />
        </mxCell>
        <mxCell id="ZNmCVV18uNa8C35vwXip-8" style="edgeStyle=orthogonalEdgeStyle;rounded=0;orthogonalLoop=1;jettySize=auto;html=1;entryX=0;entryY=0.5;entryDx=0;entryDy=0;" parent="1" source="ZNmCVV18uNa8C35vwXip-9" target="ZNmCVV18uNa8C35vwXip-11" edge="1">
          <mxGeometry relative="1" as="geometry" />
        </mxCell>
        <mxCell id="ZNmCVV18uNa8C35vwXip-9" value="" style="whiteSpace=wrap;html=1;aspect=fixed;" parent="1" vertex="1">
          <mxGeometry x="640" y="80" width="40" height="40" as="geometry" />
        </mxCell>
        <mxCell id="ZNmCVV18uNa8C35vwXip-10" style="edgeStyle=orthogonalEdgeStyle;rounded=0;orthogonalLoop=1;jettySize=auto;html=1;entryX=0.5;entryY=0;entryDx=0;entryDy=0;exitX=0.5;exitY=1;exitDx=0;exitDy=0;" parent="1" source="ZNmCVV18uNa8C35vwXip-11" target="ZNmCVV18uNa8C35vwXip-13" edge="1">
          <mxGeometry relative="1" as="geometry" />
        </mxCell>
        <mxCell id="ZNmCVV18uNa8C35vwXip-11" value="" style="whiteSpace=wrap;html=1;aspect=fixed;" parent="1" vertex="1">
          <mxGeometry x="720" y="80" width="40" height="40" as="geometry" />
        </mxCell>
        <mxCell id="ZNmCVV18uNa8C35vwXip-12" value="" style="edgeStyle=orthogonalEdgeStyle;rounded=0;orthogonalLoop=1;jettySize=auto;html=1;" parent="1" source="ZNmCVV18uNa8C35vwXip-13" target="ZNmCVV18uNa8C35vwXip-14" edge="1">
          <mxGeometry relative="1" as="geometry">
            <Array as="points">
              <mxPoint x="720" y="180" />
              <mxPoint x="720" y="180" />
            </Array>
          </mxGeometry>
        </mxCell>
        <mxCell id="ZNmCVV18uNa8C35vwXip-13" value="" style="whiteSpace=wrap;html=1;aspect=fixed;" parent="1" vertex="1">
          <mxGeometry x="640" y="160" width="40" height="40" as="geometry" />
        </mxCell>
        <mxCell id="ZNmCVV18uNa8C35vwXip-14" value="" style="whiteSpace=wrap;html=1;aspect=fixed;" parent="1" vertex="1">
          <mxGeometry x="720" y="160" width="40" height="40" as="geometry" />
        </mxCell>
        <mxCell id="ZNmCVV18uNa8C35vwXip-15" style="edgeStyle=orthogonalEdgeStyle;rounded=0;orthogonalLoop=1;jettySize=auto;html=1;entryX=0;entryY=0.5;entryDx=0;entryDy=0;" parent="1" source="ZNmCVV18uNa8C35vwXip-16" target="ZNmCVV18uNa8C35vwXip-18" edge="1">
          <mxGeometry relative="1" as="geometry" />
        </mxCell>
        <mxCell id="ZNmCVV18uNa8C35vwXip-16" value="" style="whiteSpace=wrap;html=1;aspect=fixed;" parent="1" vertex="1">
          <mxGeometry x="360" y="280" width="40" height="40" as="geometry" />
        </mxCell>
        <mxCell id="ZNmCVV18uNa8C35vwXip-17" style="edgeStyle=orthogonalEdgeStyle;rounded=0;orthogonalLoop=1;jettySize=auto;html=1;entryX=0.5;entryY=0;entryDx=0;entryDy=0;exitX=0.5;exitY=1;exitDx=0;exitDy=0;" parent="1" source="ZNmCVV18uNa8C35vwXip-18" target="ZNmCVV18uNa8C35vwXip-20" edge="1">
          <mxGeometry relative="1" as="geometry" />
        </mxCell>
        <mxCell id="ZNmCVV18uNa8C35vwXip-18" value="" style="whiteSpace=wrap;html=1;aspect=fixed;" parent="1" vertex="1">
          <mxGeometry x="440" y="280" width="40" height="40" as="geometry" />
        </mxCell>
        <mxCell id="ZNmCVV18uNa8C35vwXip-19" value="" style="edgeStyle=orthogonalEdgeStyle;rounded=0;orthogonalLoop=1;jettySize=auto;html=1;" parent="1" source="ZNmCVV18uNa8C35vwXip-20" target="ZNmCVV18uNa8C35vwXip-21" edge="1">
          <mxGeometry relative="1" as="geometry">
            <Array as="points">
              <mxPoint x="440" y="380" />
              <mxPoint x="440" y="380" />
            </Array>
          </mxGeometry>
        </mxCell>
        <mxCell id="ZNmCVV18uNa8C35vwXip-20" value="" style="whiteSpace=wrap;html=1;aspect=fixed;" parent="1" vertex="1">
          <mxGeometry x="360" y="360" width="40" height="40" as="geometry" />
        </mxCell>
        <mxCell id="ZNmCVV18uNa8C35vwXip-21" value="" style="whiteSpace=wrap;html=1;aspect=fixed;" parent="1" vertex="1">
          <mxGeometry x="440" y="360" width="40" height="40" as="geometry" />
        </mxCell>
        <mxCell id="ZNmCVV18uNa8C35vwXip-22" style="edgeStyle=orthogonalEdgeStyle;rounded=0;orthogonalLoop=1;jettySize=auto;html=1;entryX=0;entryY=0.5;entryDx=0;entryDy=0;" parent="1" source="ZNmCVV18uNa8C35vwXip-23" target="ZNmCVV18uNa8C35vwXip-25" edge="1">
          <mxGeometry relative="1" as="geometry" />
        </mxCell>
        <mxCell id="ZNmCVV18uNa8C35vwXip-23" value="" style="whiteSpace=wrap;html=1;aspect=fixed;" parent="1" vertex="1">
          <mxGeometry x="640" y="280" width="40" height="40" as="geometry" />
        </mxCell>
        <mxCell id="ZNmCVV18uNa8C35vwXip-24" style="edgeStyle=orthogonalEdgeStyle;rounded=0;orthogonalLoop=1;jettySize=auto;html=1;entryX=0.5;entryY=0;entryDx=0;entryDy=0;exitX=0.5;exitY=1;exitDx=0;exitDy=0;" parent="1" source="ZNmCVV18uNa8C35vwXip-25" target="ZNmCVV18uNa8C35vwXip-27" edge="1">
          <mxGeometry relative="1" as="geometry" />
        </mxCell>
        <mxCell id="ZNmCVV18uNa8C35vwXip-25" value="" style="whiteSpace=wrap;html=1;aspect=fixed;" parent="1" vertex="1">
          <mxGeometry x="720" y="280" width="40" height="40" as="geometry" />
        </mxCell>
        <mxCell id="ZNmCVV18uNa8C35vwXip-26" value="" style="edgeStyle=orthogonalEdgeStyle;rounded=0;orthogonalLoop=1;jettySize=auto;html=1;" parent="1" source="ZNmCVV18uNa8C35vwXip-27" target="ZNmCVV18uNa8C35vwXip-28" edge="1">
          <mxGeometry relative="1" as="geometry">
            <Array as="points">
              <mxPoint x="720" y="380" />
              <mxPoint x="720" y="380" />
            </Array>
          </mxGeometry>
        </mxCell>
        <mxCell id="ZNmCVV18uNa8C35vwXip-27" value="" style="whiteSpace=wrap;html=1;aspect=fixed;" parent="1" vertex="1">
          <mxGeometry x="640" y="360" width="40" height="40" as="geometry" />
        </mxCell>
        <mxCell id="ZNmCVV18uNa8C35vwXip-28" value="" style="whiteSpace=wrap;html=1;aspect=fixed;" parent="1" vertex="1">
          <mxGeometry x="720" y="360" width="40" height="40" as="geometry" />
        </mxCell>
        <mxCell id="ZNmCVV18uNa8C35vwXip-29" value="" style="endArrow=classic;html=1;rounded=0;dashed=1;" parent="1" edge="1">
          <mxGeometry width="50" height="50" relative="1" as="geometry">
            <mxPoint x="490" y="210" as="sourcePoint" />
            <mxPoint x="630" y="270" as="targetPoint" />
          </mxGeometry>
        </mxCell>
        <mxCell id="ZNmCVV18uNa8C35vwXip-30" value="" style="endArrow=classic;html=1;rounded=0;dashed=1;" parent="1" edge="1">
          <mxGeometry width="50" height="50" relative="1" as="geometry">
            <mxPoint x="490" y="140" as="sourcePoint" />
            <mxPoint x="640" y="140" as="targetPoint" />
          </mxGeometry>
        </mxCell>
        <mxCell id="ZNmCVV18uNa8C35vwXip-31" value="" style="endArrow=classic;html=1;rounded=0;dashed=1;" parent="1" edge="1">
          <mxGeometry width="50" height="50" relative="1" as="geometry">
            <mxPoint x="490" y="340" as="sourcePoint" />
            <mxPoint x="640" y="340" as="targetPoint" />
          </mxGeometry>
        </mxCell>
        <mxCell id="ZNmCVV18uNa8C35vwXip-32" value="" style="endArrow=classic;html=1;rounded=0;dashed=1;" parent="1" edge="1">
          <mxGeometry width="50" height="50" relative="1" as="geometry">
            <mxPoint x="420" y="280" as="sourcePoint" />
            <mxPoint x="420" y="200" as="targetPoint" />
          </mxGeometry>
        </mxCell>
        <mxCell id="ZNmCVV18uNa8C35vwXip-33" value="" style="endArrow=classic;html=1;rounded=0;dashed=1;" parent="1" edge="1">
          <mxGeometry width="50" height="50" relative="1" as="geometry">
            <mxPoint x="700" y="280" as="sourcePoint" />
            <mxPoint x="700" y="200" as="targetPoint" />
          </mxGeometry>
        </mxCell>
        <mxCell id="ZNmCVV18uNa8C35vwXip-34" value="&lt;b&gt;&lt;font style=&quot;font-size: 14px;&quot;&gt;7x7 + 9x9 address cal&lt;/font&gt;&lt;/b&gt;" style="swimlane;fontStyle=0;childLayout=stackLayout;horizontal=1;startSize=26;fillColor=none;horizontalStack=0;resizeParent=1;resizeParentMax=0;resizeLast=0;collapsible=1;marginBottom=0;whiteSpace=wrap;html=1;" parent="1" vertex="1">
          <mxGeometry x="320" y="30" width="480" height="420" as="geometry" />
        </mxCell>
      </root>
    </mxGraphModel>
  </diagram>
  <diagram id="Z6_aW4ORIYLXw29b0IT7" name="CI histograms">
    <mxGraphModel dx="1360" dy="725" grid="1" gridSize="10" guides="1" tooltips="1" connect="1" arrows="1" fold="1" page="1" pageScale="1" pageWidth="1169" pageHeight="827" math="0" shadow="0">
      <root>
        <mxCell id="0" />
        <mxCell id="1" parent="0" />
        <mxCell id="p4_mPg8JU1ZpTFdE1j5s-7" style="edgeStyle=orthogonalEdgeStyle;rounded=0;orthogonalLoop=1;jettySize=auto;html=1;entryX=0.5;entryY=1;entryDx=0;entryDy=0;" edge="1" parent="1" source="p4_mPg8JU1ZpTFdE1j5s-2" target="p4_mPg8JU1ZpTFdE1j5s-6">
          <mxGeometry relative="1" as="geometry" />
        </mxCell>
        <mxCell id="p4_mPg8JU1ZpTFdE1j5s-8" value="&lt;font size=&quot;3&quot;&gt;&lt;b&gt;count_1&lt;/b&gt;&lt;/font&gt;" style="edgeLabel;html=1;align=center;verticalAlign=middle;resizable=0;points=[];" vertex="1" connectable="0" parent="p4_mPg8JU1ZpTFdE1j5s-7">
          <mxGeometry x="-0.1786" y="-2" relative="1" as="geometry">
            <mxPoint x="-7" y="-2" as="offset" />
          </mxGeometry>
        </mxCell>
        <mxCell id="p4_mPg8JU1ZpTFdE1j5s-2" value="&lt;b style=&quot;font-size: 14px;&quot;&gt;Count logic 1&lt;/b&gt;" style="rounded=0;whiteSpace=wrap;html=1;" vertex="1" parent="1">
          <mxGeometry x="200" y="530" width="160" height="80" as="geometry" />
        </mxCell>
        <mxCell id="p4_mPg8JU1ZpTFdE1j5s-3" value="" style="endArrow=classic;html=1;rounded=0;entryX=0;entryY=0.5;entryDx=0;entryDy=0;" edge="1" parent="1" target="p4_mPg8JU1ZpTFdE1j5s-2">
          <mxGeometry width="50" height="50" relative="1" as="geometry">
            <mxPoint x="80" y="570" as="sourcePoint" />
            <mxPoint x="480" y="460" as="targetPoint" />
            <Array as="points" />
          </mxGeometry>
        </mxCell>
        <mxCell id="p4_mPg8JU1ZpTFdE1j5s-5" value="&lt;font size=&quot;3&quot;&gt;&lt;b&gt;i_din&lt;/b&gt;&lt;/font&gt;" style="edgeLabel;html=1;align=center;verticalAlign=middle;resizable=0;points=[];" vertex="1" connectable="0" parent="p4_mPg8JU1ZpTFdE1j5s-3">
          <mxGeometry x="-0.0556" relative="1" as="geometry">
            <mxPoint as="offset" />
          </mxGeometry>
        </mxCell>
        <mxCell id="p4_mPg8JU1ZpTFdE1j5s-31" style="edgeStyle=orthogonalEdgeStyle;rounded=0;orthogonalLoop=1;jettySize=auto;html=1;entryX=0;entryY=0.5;entryDx=0;entryDy=0;" edge="1" parent="1" source="p4_mPg8JU1ZpTFdE1j5s-6" target="p4_mPg8JU1ZpTFdE1j5s-29">
          <mxGeometry relative="1" as="geometry" />
        </mxCell>
        <mxCell id="p4_mPg8JU1ZpTFdE1j5s-6" value="&lt;font style=&quot;font-size: 24px;&quot;&gt;&lt;b&gt;-&lt;/b&gt;&lt;/font&gt;" style="ellipse;whiteSpace=wrap;html=1;aspect=fixed;" vertex="1" parent="1">
          <mxGeometry x="440" y="430" width="70" height="70" as="geometry" />
        </mxCell>
        <mxCell id="p4_mPg8JU1ZpTFdE1j5s-9" value="" style="endArrow=classic;html=1;rounded=0;entryX=0;entryY=0.5;entryDx=0;entryDy=0;" edge="1" parent="1" target="p4_mPg8JU1ZpTFdE1j5s-6">
          <mxGeometry width="50" height="50" relative="1" as="geometry">
            <mxPoint x="90" y="465" as="sourcePoint" />
            <mxPoint x="430" y="360" as="targetPoint" />
          </mxGeometry>
        </mxCell>
        <mxCell id="p4_mPg8JU1ZpTFdE1j5s-10" value="&lt;span style=&quot;font-size: 14px;&quot;&gt;&lt;b&gt;WIDTH_CALCULATE&lt;/b&gt;&lt;/span&gt;" style="edgeLabel;html=1;align=center;verticalAlign=middle;resizable=0;points=[];" vertex="1" connectable="0" parent="p4_mPg8JU1ZpTFdE1j5s-9">
          <mxGeometry x="0.0762" y="1" relative="1" as="geometry">
            <mxPoint as="offset" />
          </mxGeometry>
        </mxCell>
        <mxCell id="p4_mPg8JU1ZpTFdE1j5s-11" value="&lt;b&gt;&lt;font style=&quot;font-size: 14px;&quot;&gt;D_FF&lt;/font&gt;&lt;/b&gt;" style="rounded=0;whiteSpace=wrap;html=1;" vertex="1" parent="1">
          <mxGeometry x="690" y="320" width="80" height="120" as="geometry" />
        </mxCell>
        <mxCell id="p4_mPg8JU1ZpTFdE1j5s-12" value="&lt;b&gt;&lt;font style=&quot;font-size: 14px;&quot;&gt;D_FF&lt;/font&gt;&lt;/b&gt;" style="rounded=0;whiteSpace=wrap;html=1;" vertex="1" parent="1">
          <mxGeometry x="690" y="520" width="80" height="120" as="geometry" />
        </mxCell>
        <mxCell id="p4_mPg8JU1ZpTFdE1j5s-14" value="" style="endArrow=classic;html=1;rounded=0;exitX=1;exitY=0.5;exitDx=0;exitDy=0;" edge="1" parent="1" source="p4_mPg8JU1ZpTFdE1j5s-11">
          <mxGeometry width="50" height="50" relative="1" as="geometry">
            <mxPoint x="810" y="380" as="sourcePoint" />
            <mxPoint x="890" y="380" as="targetPoint" />
          </mxGeometry>
        </mxCell>
        <mxCell id="p4_mPg8JU1ZpTFdE1j5s-16" value="&lt;span style=&quot;font-size: 14px;&quot;&gt;&lt;b&gt;o_count_0&lt;/b&gt;&lt;/span&gt;" style="edgeLabel;html=1;align=center;verticalAlign=middle;resizable=0;points=[];" vertex="1" connectable="0" parent="p4_mPg8JU1ZpTFdE1j5s-14">
          <mxGeometry x="-0.0662" y="-1" relative="1" as="geometry">
            <mxPoint x="2" y="-3" as="offset" />
          </mxGeometry>
        </mxCell>
        <mxCell id="p4_mPg8JU1ZpTFdE1j5s-15" value="" style="endArrow=classic;html=1;rounded=0;exitX=1;exitY=0.5;exitDx=0;exitDy=0;" edge="1" parent="1">
          <mxGeometry width="50" height="50" relative="1" as="geometry">
            <mxPoint x="770" y="579.62" as="sourcePoint" />
            <mxPoint x="890" y="579.62" as="targetPoint" />
          </mxGeometry>
        </mxCell>
        <mxCell id="p4_mPg8JU1ZpTFdE1j5s-17" value="&lt;b style=&quot;font-size: 14px;&quot;&gt;o_count_1&lt;/b&gt;" style="edgeLabel;html=1;align=center;verticalAlign=middle;resizable=0;points=[];" vertex="1" connectable="0" parent="p4_mPg8JU1ZpTFdE1j5s-15">
          <mxGeometry x="-0.0021" y="-1" relative="1" as="geometry">
            <mxPoint x="1" y="-2" as="offset" />
          </mxGeometry>
        </mxCell>
        <mxCell id="p4_mPg8JU1ZpTFdE1j5s-18" value="" style="endArrow=classic;startArrow=classic;html=1;rounded=0;entryX=0.25;entryY=1;entryDx=0;entryDy=0;exitX=0.25;exitY=0;exitDx=0;exitDy=0;" edge="1" parent="1" source="p4_mPg8JU1ZpTFdE1j5s-12" target="p4_mPg8JU1ZpTFdE1j5s-11">
          <mxGeometry width="50" height="50" relative="1" as="geometry">
            <mxPoint x="690" y="510" as="sourcePoint" />
            <mxPoint x="740" y="460" as="targetPoint" />
          </mxGeometry>
        </mxCell>
        <mxCell id="p4_mPg8JU1ZpTFdE1j5s-19" value="" style="endArrow=classic;startArrow=classic;html=1;rounded=0;entryX=0.75;entryY=1;entryDx=0;entryDy=0;exitX=0.75;exitY=0;exitDx=0;exitDy=0;" edge="1" parent="1" source="p4_mPg8JU1ZpTFdE1j5s-12" target="p4_mPg8JU1ZpTFdE1j5s-11">
          <mxGeometry width="50" height="50" relative="1" as="geometry">
            <mxPoint x="610" y="510" as="sourcePoint" />
            <mxPoint x="660" y="460" as="targetPoint" />
          </mxGeometry>
        </mxCell>
        <mxCell id="p4_mPg8JU1ZpTFdE1j5s-21" value="" style="endArrow=none;html=1;rounded=0;" edge="1" parent="1">
          <mxGeometry width="50" height="50" relative="1" as="geometry">
            <mxPoint x="610" y="480" as="sourcePoint" />
            <mxPoint x="710" y="480" as="targetPoint" />
          </mxGeometry>
        </mxCell>
        <mxCell id="p4_mPg8JU1ZpTFdE1j5s-22" value="&lt;b&gt;&lt;font style=&quot;font-size: 14px;&quot;&gt;i_clk&lt;/font&gt;&lt;/b&gt;" style="edgeLabel;html=1;align=center;verticalAlign=middle;resizable=0;points=[];" vertex="1" connectable="0" parent="p4_mPg8JU1ZpTFdE1j5s-21">
          <mxGeometry x="-0.0745" y="-1" relative="1" as="geometry">
            <mxPoint as="offset" />
          </mxGeometry>
        </mxCell>
        <mxCell id="p4_mPg8JU1ZpTFdE1j5s-23" value="" style="endArrow=none;html=1;rounded=0;" edge="1" parent="1">
          <mxGeometry width="50" height="50" relative="1" as="geometry">
            <mxPoint x="750" y="480" as="sourcePoint" />
            <mxPoint x="830" y="480" as="targetPoint" />
          </mxGeometry>
        </mxCell>
        <mxCell id="p4_mPg8JU1ZpTFdE1j5s-24" value="&lt;b&gt;&lt;font style=&quot;font-size: 14px;&quot;&gt;i_rst&lt;/font&gt;&lt;/b&gt;" style="edgeLabel;html=1;align=center;verticalAlign=middle;resizable=0;points=[];" vertex="1" connectable="0" parent="p4_mPg8JU1ZpTFdE1j5s-23">
          <mxGeometry x="-0.0865" y="2" relative="1" as="geometry">
            <mxPoint as="offset" />
          </mxGeometry>
        </mxCell>
        <mxCell id="p4_mPg8JU1ZpTFdE1j5s-25" value="" style="endArrow=classic;html=1;rounded=0;entryX=0.5;entryY=1;entryDx=0;entryDy=0;" edge="1" parent="1" target="p4_mPg8JU1ZpTFdE1j5s-26">
          <mxGeometry width="50" height="50" relative="1" as="geometry">
            <mxPoint x="780" y="580" as="sourcePoint" />
            <mxPoint x="610" y="600" as="targetPoint" />
            <Array as="points">
              <mxPoint x="780" y="741" />
              <mxPoint x="580" y="740" />
            </Array>
          </mxGeometry>
        </mxCell>
        <mxCell id="p4_mPg8JU1ZpTFdE1j5s-26" value="&lt;span style=&quot;font-size: 24px;&quot;&gt;&lt;b&gt;+&lt;/b&gt;&lt;/span&gt;" style="ellipse;whiteSpace=wrap;html=1;aspect=fixed;" vertex="1" parent="1">
          <mxGeometry x="560" y="550" width="40" height="40" as="geometry" />
        </mxCell>
        <mxCell id="p4_mPg8JU1ZpTFdE1j5s-27" value="" style="endArrow=classic;html=1;rounded=0;entryX=0;entryY=0.5;entryDx=0;entryDy=0;" edge="1" parent="1" target="p4_mPg8JU1ZpTFdE1j5s-26">
          <mxGeometry width="50" height="50" relative="1" as="geometry">
            <mxPoint x="470" y="570" as="sourcePoint" />
            <mxPoint x="630" y="530" as="targetPoint" />
          </mxGeometry>
        </mxCell>
        <mxCell id="p4_mPg8JU1ZpTFdE1j5s-28" style="edgeStyle=orthogonalEdgeStyle;rounded=0;orthogonalLoop=1;jettySize=auto;html=1;entryX=-0.006;entryY=0.415;entryDx=0;entryDy=0;entryPerimeter=0;" edge="1" parent="1" source="p4_mPg8JU1ZpTFdE1j5s-26" target="p4_mPg8JU1ZpTFdE1j5s-12">
          <mxGeometry relative="1" as="geometry" />
        </mxCell>
        <mxCell id="p4_mPg8JU1ZpTFdE1j5s-32" style="edgeStyle=orthogonalEdgeStyle;rounded=0;orthogonalLoop=1;jettySize=auto;html=1;entryX=0;entryY=0.5;entryDx=0;entryDy=0;" edge="1" parent="1" source="p4_mPg8JU1ZpTFdE1j5s-29" target="p4_mPg8JU1ZpTFdE1j5s-11">
          <mxGeometry relative="1" as="geometry" />
        </mxCell>
        <mxCell id="p4_mPg8JU1ZpTFdE1j5s-29" value="&lt;span style=&quot;font-size: 24px;&quot;&gt;&lt;b&gt;+&lt;/b&gt;&lt;/span&gt;" style="ellipse;whiteSpace=wrap;html=1;aspect=fixed;" vertex="1" parent="1">
          <mxGeometry x="560" y="360" width="40" height="40" as="geometry" />
        </mxCell>
        <mxCell id="p4_mPg8JU1ZpTFdE1j5s-30" value="" style="endArrow=classic;html=1;rounded=0;entryX=0.5;entryY=0;entryDx=0;entryDy=0;" edge="1" parent="1" target="p4_mPg8JU1ZpTFdE1j5s-29">
          <mxGeometry width="50" height="50" relative="1" as="geometry">
            <mxPoint x="780" y="380" as="sourcePoint" />
            <mxPoint x="580" y="240" as="targetPoint" />
            <Array as="points">
              <mxPoint x="780" y="240" />
              <mxPoint x="580" y="240" />
            </Array>
          </mxGeometry>
        </mxCell>
        <mxCell id="p4_mPg8JU1ZpTFdE1j5s-33" value="" style="endArrow=classic;html=1;rounded=0;" edge="1" parent="1">
          <mxGeometry width="50" height="50" relative="1" as="geometry">
            <mxPoint x="600" y="420" as="sourcePoint" />
            <mxPoint x="690" y="420" as="targetPoint" />
          </mxGeometry>
        </mxCell>
        <mxCell id="p4_mPg8JU1ZpTFdE1j5s-34" value="&lt;b&gt;&lt;font style=&quot;font-size: 14px;&quot;&gt;i_wren&lt;/font&gt;&lt;/b&gt;" style="edgeLabel;html=1;align=center;verticalAlign=middle;resizable=0;points=[];" vertex="1" connectable="0" parent="p4_mPg8JU1ZpTFdE1j5s-33">
          <mxGeometry x="-0.3076" y="-2" relative="1" as="geometry">
            <mxPoint x="9" y="-3" as="offset" />
          </mxGeometry>
        </mxCell>
        <mxCell id="p4_mPg8JU1ZpTFdE1j5s-36" value="" style="endArrow=classic;html=1;rounded=0;" edge="1" parent="1">
          <mxGeometry width="50" height="50" relative="1" as="geometry">
            <mxPoint x="600" y="600" as="sourcePoint" />
            <mxPoint x="690" y="600" as="targetPoint" />
          </mxGeometry>
        </mxCell>
        <mxCell id="p4_mPg8JU1ZpTFdE1j5s-37" value="&lt;b&gt;&lt;font style=&quot;font-size: 14px;&quot;&gt;i_wren&lt;/font&gt;&lt;/b&gt;" style="edgeLabel;html=1;align=center;verticalAlign=middle;resizable=0;points=[];" vertex="1" connectable="0" parent="p4_mPg8JU1ZpTFdE1j5s-36">
          <mxGeometry x="-0.3076" y="-2" relative="1" as="geometry">
            <mxPoint x="9" y="-3" as="offset" />
          </mxGeometry>
        </mxCell>
      </root>
    </mxGraphModel>
  </diagram>
  <diagram name="NI and RD histograms" id="4BKzCt0FZIA3OoKzlBxx">
    <mxGraphModel dx="971" dy="518" grid="1" gridSize="10" guides="1" tooltips="1" connect="1" arrows="1" fold="1" page="1" pageScale="1" pageWidth="1169" pageHeight="827" math="0" shadow="0">
      <root>
        <mxCell id="oLI7rSL3uQcJZsqPeu8D-0" />
        <mxCell id="oLI7rSL3uQcJZsqPeu8D-1" parent="oLI7rSL3uQcJZsqPeu8D-0" />
        <mxCell id="hmIrpZwsjwqKG5y0otkH-7" style="edgeStyle=orthogonalEdgeStyle;rounded=0;orthogonalLoop=1;jettySize=auto;html=1;" edge="1" parent="oLI7rSL3uQcJZsqPeu8D-1" source="hmIrpZwsjwqKG5y0otkH-0">
          <mxGeometry relative="1" as="geometry">
            <mxPoint x="720" y="390" as="targetPoint" />
          </mxGeometry>
        </mxCell>
        <mxCell id="hmIrpZwsjwqKG5y0otkH-0" value="&lt;font size=&quot;3&quot;&gt;&lt;b&gt;RAM&lt;/b&gt;&lt;/font&gt;" style="rounded=0;whiteSpace=wrap;html=1;" vertex="1" parent="oLI7rSL3uQcJZsqPeu8D-1">
          <mxGeometry x="480" y="210" width="160" height="360" as="geometry" />
        </mxCell>
        <mxCell id="hmIrpZwsjwqKG5y0otkH-1" value="&lt;font size=&quot;3&quot;&gt;&lt;b&gt;D_FF&lt;/b&gt;&lt;/font&gt;" style="rounded=0;whiteSpace=wrap;html=1;" vertex="1" parent="oLI7rSL3uQcJZsqPeu8D-1">
          <mxGeometry x="320" y="210" width="80" height="160" as="geometry" />
        </mxCell>
        <mxCell id="hmIrpZwsjwqKG5y0otkH-2" value="" style="endArrow=classic;html=1;rounded=0;entryX=0;entryY=0.25;entryDx=0;entryDy=0;" edge="1" parent="oLI7rSL3uQcJZsqPeu8D-1" target="hmIrpZwsjwqKG5y0otkH-1">
          <mxGeometry width="50" height="50" relative="1" as="geometry">
            <mxPoint x="240" y="250" as="sourcePoint" />
            <mxPoint x="310" y="240" as="targetPoint" />
          </mxGeometry>
        </mxCell>
        <mxCell id="hmIrpZwsjwqKG5y0otkH-3" value="&lt;b&gt;&lt;font style=&quot;font-size: 14px;&quot;&gt;i_clk&lt;/font&gt;&lt;/b&gt;" style="edgeLabel;html=1;align=center;verticalAlign=middle;resizable=0;points=[];" vertex="1" connectable="0" parent="hmIrpZwsjwqKG5y0otkH-2">
          <mxGeometry x="-0.0444" y="1" relative="1" as="geometry">
            <mxPoint as="offset" />
          </mxGeometry>
        </mxCell>
        <mxCell id="hmIrpZwsjwqKG5y0otkH-4" value="" style="endArrow=classic;html=1;rounded=0;entryX=0;entryY=0.75;entryDx=0;entryDy=0;" edge="1" parent="oLI7rSL3uQcJZsqPeu8D-1" target="hmIrpZwsjwqKG5y0otkH-1">
          <mxGeometry width="50" height="50" relative="1" as="geometry">
            <mxPoint x="240" y="330" as="sourcePoint" />
            <mxPoint x="290" y="320" as="targetPoint" />
          </mxGeometry>
        </mxCell>
        <mxCell id="hmIrpZwsjwqKG5y0otkH-5" value="&lt;span style=&quot;font-size: 14px;&quot;&gt;&lt;b&gt;i_wren&lt;/b&gt;&lt;/span&gt;" style="edgeLabel;html=1;align=center;verticalAlign=middle;resizable=0;points=[];" vertex="1" connectable="0" parent="hmIrpZwsjwqKG5y0otkH-4">
          <mxGeometry x="-0.0278" y="1" relative="1" as="geometry">
            <mxPoint as="offset" />
          </mxGeometry>
        </mxCell>
        <mxCell id="hmIrpZwsjwqKG5y0otkH-6" style="edgeStyle=orthogonalEdgeStyle;rounded=0;orthogonalLoop=1;jettySize=auto;html=1;entryX=-0.003;entryY=0.223;entryDx=0;entryDy=0;entryPerimeter=0;" edge="1" parent="oLI7rSL3uQcJZsqPeu8D-1" source="hmIrpZwsjwqKG5y0otkH-1" target="hmIrpZwsjwqKG5y0otkH-0">
          <mxGeometry relative="1" as="geometry" />
        </mxCell>
        <mxCell id="hmIrpZwsjwqKG5y0otkH-11" style="edgeStyle=orthogonalEdgeStyle;rounded=0;orthogonalLoop=1;jettySize=auto;html=1;" edge="1" parent="oLI7rSL3uQcJZsqPeu8D-1" source="hmIrpZwsjwqKG5y0otkH-8">
          <mxGeometry relative="1" as="geometry">
            <mxPoint x="920" y="413" as="targetPoint" />
          </mxGeometry>
        </mxCell>
        <mxCell id="hmIrpZwsjwqKG5y0otkH-12" value="&lt;span style=&quot;font-size: 14px;&quot;&gt;&lt;b&gt;o_rdata&lt;/b&gt;&lt;/span&gt;" style="edgeLabel;html=1;align=center;verticalAlign=middle;resizable=0;points=[];" vertex="1" connectable="0" parent="hmIrpZwsjwqKG5y0otkH-11">
          <mxGeometry x="-0.0127" relative="1" as="geometry">
            <mxPoint y="-1" as="offset" />
          </mxGeometry>
        </mxCell>
        <mxCell id="hmIrpZwsjwqKG5y0otkH-8" value="&lt;font size=&quot;3&quot;&gt;&lt;b&gt;D_FF&lt;/b&gt;&lt;/font&gt;" style="rounded=0;whiteSpace=wrap;html=1;" vertex="1" parent="oLI7rSL3uQcJZsqPeu8D-1">
          <mxGeometry x="720" y="333" width="80" height="160" as="geometry" />
        </mxCell>
        <mxCell id="hmIrpZwsjwqKG5y0otkH-9" value="" style="endArrow=classic;html=1;rounded=0;entryX=0;entryY=0.25;entryDx=0;entryDy=0;" edge="1" parent="oLI7rSL3uQcJZsqPeu8D-1">
          <mxGeometry width="50" height="50" relative="1" as="geometry">
            <mxPoint x="660" y="450" as="sourcePoint" />
            <mxPoint x="720" y="450" as="targetPoint" />
          </mxGeometry>
        </mxCell>
        <mxCell id="hmIrpZwsjwqKG5y0otkH-10" value="&lt;b&gt;&lt;font style=&quot;font-size: 14px;&quot;&gt;i_clk&lt;/font&gt;&lt;/b&gt;" style="edgeLabel;html=1;align=center;verticalAlign=middle;resizable=0;points=[];" vertex="1" connectable="0" parent="hmIrpZwsjwqKG5y0otkH-9">
          <mxGeometry x="-0.0444" y="1" relative="1" as="geometry">
            <mxPoint as="offset" />
          </mxGeometry>
        </mxCell>
        <mxCell id="hmIrpZwsjwqKG5y0otkH-13" value="" style="endArrow=classic;html=1;rounded=0;" edge="1" parent="oLI7rSL3uQcJZsqPeu8D-1">
          <mxGeometry width="50" height="50" relative="1" as="geometry">
            <mxPoint x="820" y="414" as="sourcePoint" />
            <mxPoint x="320" y="520" as="targetPoint" />
            <Array as="points">
              <mxPoint x="820" y="630" />
              <mxPoint x="320" y="630" />
            </Array>
          </mxGeometry>
        </mxCell>
        <mxCell id="hmIrpZwsjwqKG5y0otkH-14" value="&lt;b&gt;&lt;font style=&quot;font-size: 14px;&quot;&gt;+&lt;/font&gt;&lt;/b&gt;" style="ellipse;whiteSpace=wrap;html=1;aspect=fixed;" vertex="1" parent="oLI7rSL3uQcJZsqPeu8D-1">
          <mxGeometry x="300" y="480" width="40" height="40" as="geometry" />
        </mxCell>
        <mxCell id="hmIrpZwsjwqKG5y0otkH-15" value="" style="endArrow=classic;html=1;rounded=0;" edge="1" parent="oLI7rSL3uQcJZsqPeu8D-1">
          <mxGeometry width="50" height="50" relative="1" as="geometry">
            <mxPoint x="210" y="500" as="sourcePoint" />
            <mxPoint x="300" y="500" as="targetPoint" />
          </mxGeometry>
        </mxCell>
        <mxCell id="hmIrpZwsjwqKG5y0otkH-16" value="&lt;b&gt;&lt;font style=&quot;font-size: 14px;&quot;&gt;1&lt;/font&gt;&lt;/b&gt;" style="edgeLabel;html=1;align=center;verticalAlign=middle;resizable=0;points=[];" vertex="1" connectable="0" parent="hmIrpZwsjwqKG5y0otkH-15">
          <mxGeometry x="-0.0444" y="1" relative="1" as="geometry">
            <mxPoint as="offset" />
          </mxGeometry>
        </mxCell>
        <mxCell id="hmIrpZwsjwqKG5y0otkH-17" style="edgeStyle=orthogonalEdgeStyle;rounded=0;orthogonalLoop=1;jettySize=auto;html=1;entryX=-0.008;entryY=0.804;entryDx=0;entryDy=0;entryPerimeter=0;" edge="1" parent="oLI7rSL3uQcJZsqPeu8D-1" source="hmIrpZwsjwqKG5y0otkH-14" target="hmIrpZwsjwqKG5y0otkH-0">
          <mxGeometry relative="1" as="geometry" />
        </mxCell>
        <mxCell id="hmIrpZwsjwqKG5y0otkH-18" value="&lt;b&gt;&lt;font style=&quot;font-size: 14px;&quot;&gt;i_wdata&lt;/font&gt;&lt;/b&gt;" style="edgeLabel;html=1;align=center;verticalAlign=middle;resizable=0;points=[];" vertex="1" connectable="0" parent="hmIrpZwsjwqKG5y0otkH-17">
          <mxGeometry x="-0.0984" relative="1" as="geometry">
            <mxPoint as="offset" />
          </mxGeometry>
        </mxCell>
        <mxCell id="hmIrpZwsjwqKG5y0otkH-19" value="" style="endArrow=classic;html=1;rounded=0;entryX=0;entryY=0.583;entryDx=0;entryDy=0;entryPerimeter=0;" edge="1" parent="oLI7rSL3uQcJZsqPeu8D-1" target="hmIrpZwsjwqKG5y0otkH-0">
          <mxGeometry width="50" height="50" relative="1" as="geometry">
            <mxPoint x="200" y="420" as="sourcePoint" />
            <mxPoint x="400" y="390" as="targetPoint" />
          </mxGeometry>
        </mxCell>
        <mxCell id="hmIrpZwsjwqKG5y0otkH-20" value="&lt;span style=&quot;font-size: 14px;&quot;&gt;&lt;b&gt;i_addr&lt;/b&gt;&lt;/span&gt;" style="edgeLabel;html=1;align=center;verticalAlign=middle;resizable=0;points=[];" vertex="1" connectable="0" parent="hmIrpZwsjwqKG5y0otkH-19">
          <mxGeometry x="-0.0059" relative="1" as="geometry">
            <mxPoint as="offset" />
          </mxGeometry>
        </mxCell>
        <mxCell id="hmIrpZwsjwqKG5y0otkH-22" value="" style="endArrow=classic;html=1;rounded=0;entryX=0;entryY=0.25;entryDx=0;entryDy=0;" edge="1" parent="oLI7rSL3uQcJZsqPeu8D-1">
          <mxGeometry width="50" height="50" relative="1" as="geometry">
            <mxPoint x="400" y="460" as="sourcePoint" />
            <mxPoint x="480" y="460" as="targetPoint" />
          </mxGeometry>
        </mxCell>
        <mxCell id="hmIrpZwsjwqKG5y0otkH-23" value="&lt;b&gt;&lt;font style=&quot;font-size: 14px;&quot;&gt;i_clk&lt;/font&gt;&lt;/b&gt;" style="edgeLabel;html=1;align=center;verticalAlign=middle;resizable=0;points=[];" vertex="1" connectable="0" parent="hmIrpZwsjwqKG5y0otkH-22">
          <mxGeometry x="-0.0444" y="1" relative="1" as="geometry">
            <mxPoint as="offset" />
          </mxGeometry>
        </mxCell>
      </root>
    </mxGraphModel>
  </diagram>
  <diagram id="HIY4vaPo-mO7SFrIXA75" name="SVM block diagram">
    <mxGraphModel dx="1133" dy="604" grid="1" gridSize="10" guides="1" tooltips="1" connect="1" arrows="1" fold="1" page="1" pageScale="1" pageWidth="1169" pageHeight="827" math="0" shadow="0">
      <root>
        <mxCell id="0" />
        <mxCell id="1" parent="0" />
        <mxCell id="MCiMZ4QMj1UhkNPMhB4v-4" style="edgeStyle=orthogonalEdgeStyle;rounded=0;orthogonalLoop=1;jettySize=auto;html=1;entryX=0;entryY=0.5;entryDx=0;entryDy=0;" edge="1" parent="1" source="MCiMZ4QMj1UhkNPMhB4v-5" target="MCiMZ4QMj1UhkNPMhB4v-7">
          <mxGeometry relative="1" as="geometry" />
        </mxCell>
        <mxCell id="MCiMZ4QMj1UhkNPMhB4v-5" value="&lt;span style=&quot;font-size: 14px;&quot;&gt;Dense layer&lt;/span&gt;" style="swimlane;whiteSpace=wrap;html=1;" vertex="1" parent="1">
          <mxGeometry x="200" y="160" width="280" height="120" as="geometry" />
        </mxCell>
        <mxCell id="MCiMZ4QMj1UhkNPMhB4v-6" value="&lt;span style=&quot;font-size: 14px;&quot;&gt;Calculate the sum of dot product of&lt;/span&gt;&lt;div&gt;&lt;span style=&quot;font-size: 14px;&quot;&gt;feature vector and weight, bias data&lt;/span&gt;&lt;/div&gt;" style="text;html=1;align=center;verticalAlign=middle;resizable=0;points=[];autosize=1;strokeColor=none;fillColor=none;" vertex="1" parent="MCiMZ4QMj1UhkNPMhB4v-5">
          <mxGeometry x="15" y="45" width="250" height="50" as="geometry" />
        </mxCell>
        <mxCell id="MCiMZ4QMj1UhkNPMhB4v-7" value="&lt;font style=&quot;font-size: 14px;&quot;&gt;Hardware Image Classification&lt;/font&gt;" style="swimlane;whiteSpace=wrap;html=1;startSize=23;" vertex="1" parent="1">
          <mxGeometry x="560" y="160" width="280" height="120" as="geometry" />
        </mxCell>
        <mxCell id="MCiMZ4QMj1UhkNPMhB4v-8" value="&lt;div&gt;&lt;div&gt;&lt;span style=&quot;font-size: 14px;&quot;&gt;Compare value of dense layer&lt;/span&gt;&lt;/div&gt;&lt;/div&gt;&lt;div&gt;&lt;span style=&quot;font-size: 14px;&quot;&gt;with region of each label.&lt;/span&gt;&lt;/div&gt;" style="text;html=1;align=center;verticalAlign=middle;resizable=0;points=[];autosize=1;strokeColor=none;fillColor=none;" vertex="1" parent="MCiMZ4QMj1UhkNPMhB4v-7">
          <mxGeometry x="45" y="45" width="210" height="50" as="geometry" />
        </mxCell>
      </root>
    </mxGraphModel>
  </diagram>
  <diagram id="Jj7Oh1kitbUQJsn79GmM" name="Dense layer">
    <mxGraphModel dx="1700" dy="907" grid="1" gridSize="10" guides="1" tooltips="1" connect="1" arrows="1" fold="1" page="1" pageScale="1" pageWidth="1169" pageHeight="827" math="0" shadow="0">
      <root>
        <mxCell id="0" />
        <mxCell id="1" parent="0" />
        <mxCell id="54BgK0b-CgpfpaKycAyT-1" value="&lt;font style=&quot;font-size: 14px;&quot;&gt;&lt;b&gt;LUT&lt;/b&gt;&lt;/font&gt;" style="whiteSpace=wrap;html=1;aspect=fixed;" parent="1" vertex="1">
          <mxGeometry x="190" y="100" width="120" height="120" as="geometry" />
        </mxCell>
        <mxCell id="54BgK0b-CgpfpaKycAyT-2" value="" style="endArrow=classic;html=1;rounded=0;entryX=0;entryY=0.5;entryDx=0;entryDy=0;" parent="1" target="54BgK0b-CgpfpaKycAyT-4" edge="1">
          <mxGeometry width="50" height="50" relative="1" as="geometry">
            <mxPoint x="310" y="160" as="sourcePoint" />
            <mxPoint x="390" y="160" as="targetPoint" />
          </mxGeometry>
        </mxCell>
        <mxCell id="54BgK0b-CgpfpaKycAyT-3" value="&lt;b&gt;&lt;font style=&quot;font-size: 14px;&quot;&gt;rdata_lut&lt;/font&gt;&lt;/b&gt;" style="edgeLabel;html=1;align=center;verticalAlign=middle;resizable=0;points=[];" parent="54BgK0b-CgpfpaKycAyT-2" vertex="1" connectable="0">
          <mxGeometry x="-0.0205" relative="1" as="geometry">
            <mxPoint x="-9" as="offset" />
          </mxGeometry>
        </mxCell>
        <mxCell id="54BgK0b-CgpfpaKycAyT-15" style="edgeStyle=orthogonalEdgeStyle;rounded=0;orthogonalLoop=1;jettySize=auto;html=1;entryX=0;entryY=0.5;entryDx=0;entryDy=0;" parent="1" source="54BgK0b-CgpfpaKycAyT-4" target="54BgK0b-CgpfpaKycAyT-14" edge="1">
          <mxGeometry relative="1" as="geometry" />
        </mxCell>
        <mxCell id="54BgK0b-CgpfpaKycAyT-4" value="&lt;b&gt;&lt;font style=&quot;font-size: 14px;&quot;&gt;X&lt;/font&gt;&lt;/b&gt;" style="ellipse;whiteSpace=wrap;html=1;aspect=fixed;" parent="1" vertex="1">
          <mxGeometry x="470" y="120" width="80" height="80" as="geometry" />
        </mxCell>
        <mxCell id="54BgK0b-CgpfpaKycAyT-6" style="edgeStyle=orthogonalEdgeStyle;rounded=0;orthogonalLoop=1;jettySize=auto;html=1;entryX=0.5;entryY=1;entryDx=0;entryDy=0;" parent="1" source="54BgK0b-CgpfpaKycAyT-5" target="54BgK0b-CgpfpaKycAyT-4" edge="1">
          <mxGeometry relative="1" as="geometry" />
        </mxCell>
        <mxCell id="54BgK0b-CgpfpaKycAyT-17" value="&lt;b&gt;&lt;font style=&quot;font-size: 14px;&quot;&gt;rdata_ram_cfv&lt;/font&gt;&lt;/b&gt;" style="edgeLabel;html=1;align=center;verticalAlign=middle;resizable=0;points=[];" parent="54BgK0b-CgpfpaKycAyT-6" vertex="1" connectable="0">
          <mxGeometry x="-0.4111" relative="1" as="geometry">
            <mxPoint as="offset" />
          </mxGeometry>
        </mxCell>
        <mxCell id="54BgK0b-CgpfpaKycAyT-5" value="&lt;b&gt;&lt;font style=&quot;font-size: 14px;&quot;&gt;RAM NI | RD&lt;/font&gt;&lt;/b&gt;" style="rounded=0;whiteSpace=wrap;html=1;" parent="1" vertex="1">
          <mxGeometry x="190" y="270" width="120" height="60" as="geometry" />
        </mxCell>
        <mxCell id="54BgK0b-CgpfpaKycAyT-8" style="edgeStyle=orthogonalEdgeStyle;rounded=0;orthogonalLoop=1;jettySize=auto;html=1;entryX=0.5;entryY=0;entryDx=0;entryDy=0;" parent="1" source="54BgK0b-CgpfpaKycAyT-7" target="54BgK0b-CgpfpaKycAyT-5" edge="1">
          <mxGeometry relative="1" as="geometry" />
        </mxCell>
        <mxCell id="54BgK0b-CgpfpaKycAyT-9" style="edgeStyle=orthogonalEdgeStyle;rounded=0;orthogonalLoop=1;jettySize=auto;html=1;entryX=0.5;entryY=1;entryDx=0;entryDy=0;" parent="1" source="54BgK0b-CgpfpaKycAyT-7" target="54BgK0b-CgpfpaKycAyT-1" edge="1">
          <mxGeometry relative="1" as="geometry" />
        </mxCell>
        <mxCell id="54BgK0b-CgpfpaKycAyT-7" value="&lt;b&gt;&lt;font style=&quot;font-size: 14px;&quot;&gt;Gen address&amp;nbsp;&lt;/font&gt;&lt;/b&gt;" style="rounded=0;whiteSpace=wrap;html=1;" parent="1" vertex="1">
          <mxGeometry x="40" y="210" width="120" height="60" as="geometry" />
        </mxCell>
        <mxCell id="54BgK0b-CgpfpaKycAyT-10" value="&lt;b&gt;&lt;font style=&quot;font-size: 14px;&quot;&gt;D_FF&lt;/font&gt;&lt;/b&gt;" style="rounded=0;whiteSpace=wrap;html=1;" parent="1" vertex="1">
          <mxGeometry x="700" y="130" width="120" height="60" as="geometry" />
        </mxCell>
        <mxCell id="54BgK0b-CgpfpaKycAyT-13" value="" style="endArrow=classic;html=1;rounded=0;entryX=0.5;entryY=0;entryDx=0;entryDy=0;" parent="1" target="54BgK0b-CgpfpaKycAyT-14" edge="1">
          <mxGeometry width="50" height="50" relative="1" as="geometry">
            <mxPoint x="870" y="160" as="sourcePoint" />
            <mxPoint x="870" y="30" as="targetPoint" />
            <Array as="points">
              <mxPoint x="870" y="30" />
              <mxPoint x="640" y="30" />
            </Array>
          </mxGeometry>
        </mxCell>
        <mxCell id="54BgK0b-CgpfpaKycAyT-16" style="edgeStyle=orthogonalEdgeStyle;rounded=0;orthogonalLoop=1;jettySize=auto;html=1;entryX=0;entryY=0.5;entryDx=0;entryDy=0;" parent="1" source="54BgK0b-CgpfpaKycAyT-14" target="54BgK0b-CgpfpaKycAyT-10" edge="1">
          <mxGeometry relative="1" as="geometry" />
        </mxCell>
        <mxCell id="54BgK0b-CgpfpaKycAyT-14" value="&lt;b&gt;&lt;font style=&quot;font-size: 18px;&quot;&gt;+&lt;/font&gt;&lt;/b&gt;" style="ellipse;whiteSpace=wrap;html=1;aspect=fixed;" parent="1" vertex="1">
          <mxGeometry x="600" y="120" width="80" height="80" as="geometry" />
        </mxCell>
        <mxCell id="7veohrQBJwiczWrKyr5L-1" value="&lt;font size=&quot;3&quot;&gt;&lt;b&gt;D_FF&lt;/b&gt;&lt;/font&gt;" style="rounded=0;whiteSpace=wrap;html=1;" vertex="1" parent="1">
          <mxGeometry x="240" y="440" width="70" height="200" as="geometry" />
        </mxCell>
        <mxCell id="7veohrQBJwiczWrKyr5L-4" value="" style="endArrow=classic;html=1;rounded=0;" edge="1" parent="1">
          <mxGeometry width="50" height="50" relative="1" as="geometry">
            <mxPoint x="360" y="540" as="sourcePoint" />
            <mxPoint x="160" y="760" as="targetPoint" />
            <Array as="points">
              <mxPoint x="360" y="760" />
            </Array>
          </mxGeometry>
        </mxCell>
        <mxCell id="7veohrQBJwiczWrKyr5L-5" value="" style="endArrow=classic;html=1;rounded=0;exitX=1;exitY=0.5;exitDx=0;exitDy=0;" edge="1" parent="1" source="7veohrQBJwiczWrKyr5L-1">
          <mxGeometry width="50" height="50" relative="1" as="geometry">
            <mxPoint x="410" y="580" as="sourcePoint" />
            <mxPoint x="440" y="540" as="targetPoint" />
          </mxGeometry>
        </mxCell>
        <mxCell id="7veohrQBJwiczWrKyr5L-11" value="" style="edgeStyle=orthogonalEdgeStyle;rounded=0;orthogonalLoop=1;jettySize=auto;html=1;" edge="1" parent="1" source="7veohrQBJwiczWrKyr5L-6" target="7veohrQBJwiczWrKyr5L-10">
          <mxGeometry relative="1" as="geometry" />
        </mxCell>
        <mxCell id="7veohrQBJwiczWrKyr5L-6" value="&lt;font size=&quot;3&quot;&gt;+&lt;/font&gt;" style="ellipse;whiteSpace=wrap;html=1;aspect=fixed;" vertex="1" parent="1">
          <mxGeometry x="120" y="740" width="40" height="40" as="geometry" />
        </mxCell>
        <mxCell id="7veohrQBJwiczWrKyr5L-8" value="" style="endArrow=classic;html=1;rounded=0;entryX=0;entryY=0.5;entryDx=0;entryDy=0;" edge="1" parent="1" target="7veohrQBJwiczWrKyr5L-6">
          <mxGeometry width="50" height="50" relative="1" as="geometry">
            <mxPoint x="40" y="760" as="sourcePoint" />
            <mxPoint x="110" y="760" as="targetPoint" />
          </mxGeometry>
        </mxCell>
        <mxCell id="7veohrQBJwiczWrKyr5L-9" value="&lt;font size=&quot;3&quot;&gt;&lt;b&gt;CI_2&lt;/b&gt;&lt;/font&gt;" style="edgeLabel;html=1;align=center;verticalAlign=middle;resizable=0;points=[];" vertex="1" connectable="0" parent="7veohrQBJwiczWrKyr5L-8">
          <mxGeometry x="-0.1224" y="1" relative="1" as="geometry">
            <mxPoint as="offset" />
          </mxGeometry>
        </mxCell>
        <mxCell id="7veohrQBJwiczWrKyr5L-15" value="" style="edgeStyle=orthogonalEdgeStyle;rounded=0;orthogonalLoop=1;jettySize=auto;html=1;" edge="1" parent="1" source="7veohrQBJwiczWrKyr5L-10" target="7veohrQBJwiczWrKyr5L-14">
          <mxGeometry relative="1" as="geometry" />
        </mxCell>
        <mxCell id="7veohrQBJwiczWrKyr5L-10" value="&lt;font size=&quot;3&quot;&gt;+&lt;/font&gt;" style="ellipse;whiteSpace=wrap;html=1;aspect=fixed;" vertex="1" parent="1">
          <mxGeometry x="120" y="670" width="40" height="40" as="geometry" />
        </mxCell>
        <mxCell id="7veohrQBJwiczWrKyr5L-12" value="" style="endArrow=classic;html=1;rounded=0;entryX=0;entryY=0.5;entryDx=0;entryDy=0;" edge="1" parent="1">
          <mxGeometry width="50" height="50" relative="1" as="geometry">
            <mxPoint x="40" y="689.72" as="sourcePoint" />
            <mxPoint x="120" y="689.72" as="targetPoint" />
          </mxGeometry>
        </mxCell>
        <mxCell id="7veohrQBJwiczWrKyr5L-13" value="&lt;font size=&quot;3&quot;&gt;&lt;b&gt;CI_4&lt;/b&gt;&lt;/font&gt;" style="edgeLabel;html=1;align=center;verticalAlign=middle;resizable=0;points=[];" vertex="1" connectable="0" parent="7veohrQBJwiczWrKyr5L-12">
          <mxGeometry x="-0.1224" y="1" relative="1" as="geometry">
            <mxPoint as="offset" />
          </mxGeometry>
        </mxCell>
        <mxCell id="7veohrQBJwiczWrKyr5L-19" value="" style="edgeStyle=orthogonalEdgeStyle;rounded=0;orthogonalLoop=1;jettySize=auto;html=1;" edge="1" parent="1" source="7veohrQBJwiczWrKyr5L-14" target="7veohrQBJwiczWrKyr5L-18">
          <mxGeometry relative="1" as="geometry" />
        </mxCell>
        <mxCell id="7veohrQBJwiczWrKyr5L-14" value="&lt;font size=&quot;3&quot;&gt;+&lt;/font&gt;" style="ellipse;whiteSpace=wrap;html=1;aspect=fixed;" vertex="1" parent="1">
          <mxGeometry x="120" y="600" width="40" height="40" as="geometry" />
        </mxCell>
        <mxCell id="7veohrQBJwiczWrKyr5L-16" value="" style="endArrow=classic;html=1;rounded=0;entryX=0;entryY=0.5;entryDx=0;entryDy=0;" edge="1" parent="1">
          <mxGeometry width="50" height="50" relative="1" as="geometry">
            <mxPoint x="40" y="619.72" as="sourcePoint" />
            <mxPoint x="120" y="619.72" as="targetPoint" />
          </mxGeometry>
        </mxCell>
        <mxCell id="7veohrQBJwiczWrKyr5L-17" value="&lt;font size=&quot;3&quot;&gt;&lt;b&gt;CI_6&lt;/b&gt;&lt;/font&gt;" style="edgeLabel;html=1;align=center;verticalAlign=middle;resizable=0;points=[];" vertex="1" connectable="0" parent="7veohrQBJwiczWrKyr5L-16">
          <mxGeometry x="-0.1224" y="1" relative="1" as="geometry">
            <mxPoint as="offset" />
          </mxGeometry>
        </mxCell>
        <mxCell id="7veohrQBJwiczWrKyr5L-23" value="" style="edgeStyle=orthogonalEdgeStyle;rounded=0;orthogonalLoop=1;jettySize=auto;html=1;" edge="1" parent="1" source="7veohrQBJwiczWrKyr5L-18" target="7veohrQBJwiczWrKyr5L-1">
          <mxGeometry relative="1" as="geometry">
            <Array as="points">
              <mxPoint x="230" y="540" />
              <mxPoint x="230" y="540" />
            </Array>
          </mxGeometry>
        </mxCell>
        <mxCell id="7veohrQBJwiczWrKyr5L-18" value="&lt;font size=&quot;3&quot;&gt;+&lt;/font&gt;" style="ellipse;whiteSpace=wrap;html=1;aspect=fixed;" vertex="1" parent="1">
          <mxGeometry x="120" y="520" width="40" height="40" as="geometry" />
        </mxCell>
        <mxCell id="7veohrQBJwiczWrKyr5L-21" value="" style="endArrow=classic;html=1;rounded=0;entryX=0;entryY=0.5;entryDx=0;entryDy=0;" edge="1" parent="1">
          <mxGeometry width="50" height="50" relative="1" as="geometry">
            <mxPoint x="40" y="539.72" as="sourcePoint" />
            <mxPoint x="120" y="539.72" as="targetPoint" />
          </mxGeometry>
        </mxCell>
        <mxCell id="7veohrQBJwiczWrKyr5L-22" value="&lt;font size=&quot;3&quot;&gt;&lt;b&gt;CI_8&lt;/b&gt;&lt;/font&gt;" style="edgeLabel;html=1;align=center;verticalAlign=middle;resizable=0;points=[];" vertex="1" connectable="0" parent="7veohrQBJwiczWrKyr5L-21">
          <mxGeometry x="-0.1224" y="1" relative="1" as="geometry">
            <mxPoint as="offset" />
          </mxGeometry>
        </mxCell>
        <mxCell id="7veohrQBJwiczWrKyr5L-29" style="edgeStyle=orthogonalEdgeStyle;rounded=0;orthogonalLoop=1;jettySize=auto;html=1;entryX=0;entryY=0.5;entryDx=0;entryDy=0;" edge="1" parent="1" source="7veohrQBJwiczWrKyr5L-24" target="7veohrQBJwiczWrKyr5L-28">
          <mxGeometry relative="1" as="geometry" />
        </mxCell>
        <mxCell id="7veohrQBJwiczWrKyr5L-24" value="&lt;b&gt;&lt;font style=&quot;font-size: 14px;&quot;&gt;X&lt;/font&gt;&lt;/b&gt;" style="ellipse;whiteSpace=wrap;html=1;aspect=fixed;" vertex="1" parent="1">
          <mxGeometry x="440" y="500" width="80" height="80" as="geometry" />
        </mxCell>
        <mxCell id="7veohrQBJwiczWrKyr5L-25" value="" style="endArrow=classic;html=1;rounded=0;" edge="1" parent="1">
          <mxGeometry width="50" height="50" relative="1" as="geometry">
            <mxPoint x="480" y="680" as="sourcePoint" />
            <mxPoint x="480" y="580" as="targetPoint" />
          </mxGeometry>
        </mxCell>
        <mxCell id="7veohrQBJwiczWrKyr5L-26" value="&lt;font size=&quot;3&quot;&gt;&lt;b&gt;WEIGHT_CI&lt;/b&gt;&lt;/font&gt;" style="edgeLabel;html=1;align=center;verticalAlign=middle;resizable=0;points=[];" vertex="1" connectable="0" parent="7veohrQBJwiczWrKyr5L-25">
          <mxGeometry x="0.0077" relative="1" as="geometry">
            <mxPoint as="offset" />
          </mxGeometry>
        </mxCell>
        <mxCell id="7veohrQBJwiczWrKyr5L-27" value="" style="endArrow=classic;html=1;rounded=0;entryX=0.5;entryY=0;entryDx=0;entryDy=0;" edge="1" parent="1" target="7veohrQBJwiczWrKyr5L-28">
          <mxGeometry width="50" height="50" relative="1" as="geometry">
            <mxPoint x="840" y="160" as="sourcePoint" />
            <mxPoint x="840" y="430" as="targetPoint" />
          </mxGeometry>
        </mxCell>
        <mxCell id="7veohrQBJwiczWrKyr5L-34" style="edgeStyle=orthogonalEdgeStyle;rounded=0;orthogonalLoop=1;jettySize=auto;html=1;exitX=1;exitY=0.5;exitDx=0;exitDy=0;" edge="1" parent="1" source="7veohrQBJwiczWrKyr5L-28">
          <mxGeometry relative="1" as="geometry">
            <mxPoint x="1000" y="540" as="targetPoint" />
          </mxGeometry>
        </mxCell>
        <mxCell id="7veohrQBJwiczWrKyr5L-35" value="&lt;b&gt;&lt;font style=&quot;font-size: 14px;&quot;&gt;o_dense&lt;/font&gt;&lt;/b&gt;" style="edgeLabel;html=1;align=center;verticalAlign=middle;resizable=0;points=[];" vertex="1" connectable="0" parent="7veohrQBJwiczWrKyr5L-34">
          <mxGeometry x="-0.1541" relative="1" as="geometry">
            <mxPoint x="1" as="offset" />
          </mxGeometry>
        </mxCell>
        <mxCell id="7veohrQBJwiczWrKyr5L-28" value="&lt;b&gt;&lt;font style=&quot;font-size: 18px;&quot;&gt;+&lt;/font&gt;&lt;/b&gt;" style="ellipse;whiteSpace=wrap;html=1;aspect=fixed;" vertex="1" parent="1">
          <mxGeometry x="800" y="500" width="80" height="80" as="geometry" />
        </mxCell>
        <mxCell id="7veohrQBJwiczWrKyr5L-30" value="" style="endArrow=classic;html=1;rounded=0;" edge="1" parent="1">
          <mxGeometry width="50" height="50" relative="1" as="geometry">
            <mxPoint x="839.3299999999999" y="680" as="sourcePoint" />
            <mxPoint x="839.3299999999999" y="580" as="targetPoint" />
          </mxGeometry>
        </mxCell>
        <mxCell id="7veohrQBJwiczWrKyr5L-31" value="&lt;font size=&quot;3&quot;&gt;&lt;b&gt;BIAS&lt;/b&gt;&lt;/font&gt;" style="edgeLabel;html=1;align=center;verticalAlign=middle;resizable=0;points=[];" vertex="1" connectable="0" parent="7veohrQBJwiczWrKyr5L-30">
          <mxGeometry x="0.0077" relative="1" as="geometry">
            <mxPoint as="offset" />
          </mxGeometry>
        </mxCell>
        <mxCell id="7veohrQBJwiczWrKyr5L-33" value="" style="endArrow=none;html=1;rounded=0;exitX=1;exitY=0.5;exitDx=0;exitDy=0;" edge="1" parent="1" source="54BgK0b-CgpfpaKycAyT-10">
          <mxGeometry width="50" height="50" relative="1" as="geometry">
            <mxPoint x="840" y="230" as="sourcePoint" />
            <mxPoint x="870" y="160" as="targetPoint" />
          </mxGeometry>
        </mxCell>
      </root>
    </mxGraphModel>
  </diagram>
  <diagram id="PaR8ig3VPZjrzFDscSHV" name="classification ">
    <mxGraphModel dx="887" dy="473" grid="1" gridSize="10" guides="1" tooltips="1" connect="1" arrows="1" fold="1" page="1" pageScale="1" pageWidth="1169" pageHeight="827" math="0" shadow="0">
      <root>
        <mxCell id="0" />
        <mxCell id="1" parent="0" />
        <mxCell id="rsYOpoUNDt5BCHQ4WCjB-3" style="edgeStyle=orthogonalEdgeStyle;rounded=0;orthogonalLoop=1;jettySize=auto;html=1;exitX=1;exitY=0.25;exitDx=0;exitDy=0;" edge="1" parent="1">
          <mxGeometry relative="1" as="geometry">
            <mxPoint x="520" y="130" as="targetPoint" />
            <mxPoint x="420" y="130" as="sourcePoint" />
          </mxGeometry>
        </mxCell>
        <mxCell id="rsYOpoUNDt5BCHQ4WCjB-5" value="&lt;b&gt;&lt;font style=&quot;font-size: 14px;&quot;&gt;max_value&lt;/font&gt;&lt;/b&gt;" style="edgeLabel;html=1;align=center;verticalAlign=middle;resizable=0;points=[];" vertex="1" connectable="0" parent="rsYOpoUNDt5BCHQ4WCjB-3">
          <mxGeometry x="-0.2463" y="1" relative="1" as="geometry">
            <mxPoint x="8" as="offset" />
          </mxGeometry>
        </mxCell>
        <mxCell id="rsYOpoUNDt5BCHQ4WCjB-2" value="&lt;b&gt;&lt;font style=&quot;font-size: 14px;&quot;&gt;LUT&lt;/font&gt;&lt;/b&gt;" style="rounded=1;whiteSpace=wrap;html=1;" vertex="1" parent="1">
          <mxGeometry x="280" y="120" width="140" height="80" as="geometry" />
        </mxCell>
        <mxCell id="rsYOpoUNDt5BCHQ4WCjB-4" style="edgeStyle=orthogonalEdgeStyle;rounded=0;orthogonalLoop=1;jettySize=auto;html=1;exitX=1;exitY=0.25;exitDx=0;exitDy=0;" edge="1" parent="1">
          <mxGeometry relative="1" as="geometry">
            <mxPoint x="520" y="190" as="targetPoint" />
            <mxPoint x="420" y="190" as="sourcePoint" />
          </mxGeometry>
        </mxCell>
        <mxCell id="rsYOpoUNDt5BCHQ4WCjB-6" value="&lt;b&gt;&lt;font style=&quot;font-size: 14px;&quot;&gt;min_value&lt;/font&gt;&lt;/b&gt;" style="edgeLabel;html=1;align=center;verticalAlign=middle;resizable=0;points=[];" vertex="1" connectable="0" parent="1">
          <mxGeometry x="467.99589743589735" y="187.99999999999994" as="geometry" />
        </mxCell>
        <mxCell id="rsYOpoUNDt5BCHQ4WCjB-8" style="edgeStyle=orthogonalEdgeStyle;rounded=0;orthogonalLoop=1;jettySize=auto;html=1;" edge="1" parent="1">
          <mxGeometry relative="1" as="geometry">
            <mxPoint x="530" y="280" as="targetPoint" />
            <mxPoint x="529.9999999999998" y="200" as="sourcePoint" />
          </mxGeometry>
        </mxCell>
        <mxCell id="rsYOpoUNDt5BCHQ4WCjB-7" value="&lt;span style=&quot;font-size: 14px;&quot;&gt;&lt;b&gt;CAL_CENTER&lt;/b&gt;&lt;/span&gt;" style="rounded=1;whiteSpace=wrap;html=1;" vertex="1" parent="1">
          <mxGeometry x="520" y="120" width="140" height="80" as="geometry" />
        </mxCell>
        <mxCell id="rsYOpoUNDt5BCHQ4WCjB-10" style="edgeStyle=orthogonalEdgeStyle;rounded=0;orthogonalLoop=1;jettySize=auto;html=1;" edge="1" parent="1">
          <mxGeometry relative="1" as="geometry">
            <mxPoint x="640" y="280" as="targetPoint" />
            <mxPoint x="639.9999999999998" y="200" as="sourcePoint" />
          </mxGeometry>
        </mxCell>
        <mxCell id="rsYOpoUNDt5BCHQ4WCjB-11" value="" style="endArrow=none;dashed=1;html=1;dashPattern=1 3;strokeWidth=2;rounded=0;" edge="1" parent="1">
          <mxGeometry width="50" height="50" relative="1" as="geometry">
            <mxPoint x="550" y="240" as="sourcePoint" />
            <mxPoint x="630" y="240" as="targetPoint" />
          </mxGeometry>
        </mxCell>
        <mxCell id="rsYOpoUNDt5BCHQ4WCjB-12" value="&lt;b&gt;&lt;font style=&quot;font-size: 14px;&quot;&gt;n label&lt;/font&gt;&lt;/b&gt;" style="text;html=1;align=center;verticalAlign=middle;resizable=0;points=[];autosize=1;strokeColor=none;fillColor=none;" vertex="1" parent="1">
          <mxGeometry x="550" y="210" width="70" height="30" as="geometry" />
        </mxCell>
        <mxCell id="X8gjOVLivfuwsEMCE18O-5" style="edgeStyle=orthogonalEdgeStyle;rounded=0;orthogonalLoop=1;jettySize=auto;html=1;" edge="1" parent="1" source="rsYOpoUNDt5BCHQ4WCjB-13">
          <mxGeometry relative="1" as="geometry">
            <mxPoint x="760" y="450.0000000000001" as="targetPoint" />
          </mxGeometry>
        </mxCell>
        <mxCell id="X8gjOVLivfuwsEMCE18O-6" value="&lt;span style=&quot;font-size: 14px;&quot;&gt;&lt;b&gt;o_dout&lt;/b&gt;&lt;/span&gt;" style="edgeLabel;html=1;align=center;verticalAlign=middle;resizable=0;points=[];" vertex="1" connectable="0" parent="X8gjOVLivfuwsEMCE18O-5">
          <mxGeometry x="-0.1339" y="-1" relative="1" as="geometry">
            <mxPoint as="offset" />
          </mxGeometry>
        </mxCell>
        <mxCell id="rsYOpoUNDt5BCHQ4WCjB-13" value="&lt;font size=&quot;3&quot;&gt;&lt;b&gt;CAL_PRIORITY&lt;/b&gt;&lt;/font&gt;" style="rounded=1;whiteSpace=wrap;html=1;" vertex="1" parent="1">
          <mxGeometry x="520" y="420" width="130" height="60" as="geometry" />
        </mxCell>
        <mxCell id="rsYOpoUNDt5BCHQ4WCjB-14" value="&lt;font style=&quot;font-size: 14px;&quot;&gt;&lt;b&gt;COMPARE&lt;/b&gt;&lt;/font&gt;" style="rounded=1;whiteSpace=wrap;html=1;" vertex="1" parent="1">
          <mxGeometry x="520" y="280" width="130" height="60" as="geometry" />
        </mxCell>
        <mxCell id="rsYOpoUNDt5BCHQ4WCjB-15" value="" style="endArrow=classic;html=1;rounded=0;" edge="1" parent="1">
          <mxGeometry width="50" height="50" relative="1" as="geometry">
            <mxPoint x="400" y="310" as="sourcePoint" />
            <mxPoint x="520" y="310" as="targetPoint" />
          </mxGeometry>
        </mxCell>
        <mxCell id="rsYOpoUNDt5BCHQ4WCjB-16" value="&lt;b&gt;&lt;font style=&quot;font-size: 14px;&quot;&gt;i_din&lt;/font&gt;&lt;/b&gt;" style="edgeLabel;html=1;align=center;verticalAlign=middle;resizable=0;points=[];" vertex="1" connectable="0" parent="rsYOpoUNDt5BCHQ4WCjB-15">
          <mxGeometry x="-0.028" relative="1" as="geometry">
            <mxPoint as="offset" />
          </mxGeometry>
        </mxCell>
        <mxCell id="X8gjOVLivfuwsEMCE18O-1" style="edgeStyle=orthogonalEdgeStyle;rounded=0;orthogonalLoop=1;jettySize=auto;html=1;" edge="1" parent="1">
          <mxGeometry relative="1" as="geometry">
            <mxPoint x="529" y="420" as="targetPoint" />
            <mxPoint x="528.9999999999998" y="340" as="sourcePoint" />
          </mxGeometry>
        </mxCell>
        <mxCell id="X8gjOVLivfuwsEMCE18O-2" style="edgeStyle=orthogonalEdgeStyle;rounded=0;orthogonalLoop=1;jettySize=auto;html=1;" edge="1" parent="1">
          <mxGeometry relative="1" as="geometry">
            <mxPoint x="639" y="420" as="targetPoint" />
            <mxPoint x="638.9999999999998" y="340" as="sourcePoint" />
          </mxGeometry>
        </mxCell>
        <mxCell id="X8gjOVLivfuwsEMCE18O-3" value="" style="endArrow=none;dashed=1;html=1;dashPattern=1 3;strokeWidth=2;rounded=0;" edge="1" parent="1">
          <mxGeometry width="50" height="50" relative="1" as="geometry">
            <mxPoint x="549" y="380" as="sourcePoint" />
            <mxPoint x="629" y="380" as="targetPoint" />
          </mxGeometry>
        </mxCell>
        <mxCell id="X8gjOVLivfuwsEMCE18O-4" value="&lt;b&gt;&lt;font style=&quot;font-size: 14px;&quot;&gt;n label&lt;/font&gt;&lt;/b&gt;" style="text;html=1;align=center;verticalAlign=middle;resizable=0;points=[];autosize=1;strokeColor=none;fillColor=none;" vertex="1" parent="1">
          <mxGeometry x="549" y="350" width="70" height="30" as="geometry" />
        </mxCell>
        <mxCell id="X8gjOVLivfuwsEMCE18O-9" style="edgeStyle=orthogonalEdgeStyle;rounded=0;orthogonalLoop=1;jettySize=auto;html=1;entryX=0.008;entryY=0.931;entryDx=0;entryDy=0;entryPerimeter=0;" edge="1" parent="1">
          <mxGeometry relative="1" as="geometry">
            <mxPoint x="521.04" y="469.86" as="targetPoint" />
            <mxPoint x="440" y="470" as="sourcePoint" />
          </mxGeometry>
        </mxCell>
        <mxCell id="X8gjOVLivfuwsEMCE18O-10" style="edgeStyle=orthogonalEdgeStyle;rounded=0;orthogonalLoop=1;jettySize=auto;html=1;entryX=0;entryY=0.25;entryDx=0;entryDy=0;" edge="1" parent="1" target="rsYOpoUNDt5BCHQ4WCjB-13">
          <mxGeometry relative="1" as="geometry">
            <mxPoint x="517.9200000000001" y="433.55999999999995" as="targetPoint" />
            <mxPoint x="440" y="434" as="sourcePoint" />
          </mxGeometry>
        </mxCell>
        <mxCell id="X8gjOVLivfuwsEMCE18O-11" value="" style="endArrow=none;dashed=1;html=1;dashPattern=1 3;strokeWidth=2;rounded=0;" edge="1" parent="1">
          <mxGeometry width="50" height="50" relative="1" as="geometry">
            <mxPoint x="480" y="464" as="sourcePoint" />
            <mxPoint x="480" y="444" as="targetPoint" />
          </mxGeometry>
        </mxCell>
        <mxCell id="X8gjOVLivfuwsEMCE18O-12" value="&lt;b&gt;&lt;font style=&quot;font-size: 14px;&quot;&gt;n label of output CAL_CENTER&lt;/font&gt;&lt;/b&gt;" style="text;html=1;align=center;verticalAlign=middle;resizable=0;points=[];autosize=1;strokeColor=none;fillColor=none;rotation=0;" vertex="1" parent="1">
          <mxGeometry x="255" y="439" width="230" height="30" as="geometry" />
        </mxCell>
      </root>
    </mxGraphModel>
  </diagram>
</mxfile>
